<mxfile host="app.diagrams.net" agent="Mozilla/5.0 (Windows NT 10.0; Win64; x64) AppleWebKit/537.36 (KHTML, like Gecko) Chrome/138.0.0.0 YaBrowser/25.8.0.0 Safari/537.36" version="28.2.5" pages="2">
  <diagram name="structural-diagram" id="tKifsHz8xkLD7cNQ-IDP">
    <mxGraphModel dx="994" dy="1813" grid="1" gridSize="10" guides="1" tooltips="1" connect="1" arrows="1" fold="1" page="1" pageScale="1" pageWidth="827" pageHeight="1169" math="0" shadow="0">
      <root>
        <mxCell id="0" />
        <mxCell id="1" parent="0" />
        <mxCell id="FoBP6NZhNMQKQz-mhMS4-1" value="ESP8266" style="whiteSpace=wrap;html=1;aspect=fixed;" parent="1" vertex="1">
          <mxGeometry x="300" y="170" width="130" height="130" as="geometry" />
        </mxCell>
        <mxCell id="FoBP6NZhNMQKQz-mhMS4-4" style="edgeStyle=orthogonalEdgeStyle;rounded=0;orthogonalLoop=1;jettySize=auto;html=1;entryX=1;entryY=0.5;entryDx=0;entryDy=0;" parent="1" source="FoBP6NZhNMQKQz-mhMS4-2" target="FoBP6NZhNMQKQz-mhMS4-1" edge="1">
          <mxGeometry relative="1" as="geometry" />
        </mxCell>
        <mxCell id="FoBP6NZhNMQKQz-mhMS4-5" value="I&lt;sup&gt;2&lt;/sup&gt;C" style="edgeLabel;html=1;align=center;verticalAlign=middle;resizable=0;points=[];" parent="FoBP6NZhNMQKQz-mhMS4-4" vertex="1" connectable="0">
          <mxGeometry x="0.1652" relative="1" as="geometry">
            <mxPoint y="-14" as="offset" />
          </mxGeometry>
        </mxCell>
        <mxCell id="FoBP6NZhNMQKQz-mhMS4-2" value="&lt;h4&gt;Датчик-барометр&lt;/h4&gt;&lt;div&gt;- Температура&lt;/div&gt;&lt;div&gt;- Влажность&lt;/div&gt;&lt;div&gt;- Атм. давление&lt;/div&gt;&lt;div&gt;- Высота&lt;/div&gt;&lt;div&gt;над уровнем моря&lt;/div&gt;" style="ellipse;whiteSpace=wrap;html=1;" parent="1" vertex="1">
          <mxGeometry x="580" y="70" width="170" height="170" as="geometry" />
        </mxCell>
        <mxCell id="FoBP6NZhNMQKQz-mhMS4-7" style="edgeStyle=orthogonalEdgeStyle;rounded=0;orthogonalLoop=1;jettySize=auto;html=1;entryX=0.5;entryY=1;entryDx=0;entryDy=0;" parent="1" source="FoBP6NZhNMQKQz-mhMS4-6" target="FoBP6NZhNMQKQz-mhMS4-1" edge="1">
          <mxGeometry relative="1" as="geometry" />
        </mxCell>
        <mxCell id="FoBP6NZhNMQKQz-mhMS4-8" value="Digital" style="edgeLabel;html=1;align=center;verticalAlign=middle;resizable=0;points=[];" parent="FoBP6NZhNMQKQz-mhMS4-7" vertex="1" connectable="0">
          <mxGeometry x="-0.2324" relative="1" as="geometry">
            <mxPoint as="offset" />
          </mxGeometry>
        </mxCell>
        <mxCell id="FoBP6NZhNMQKQz-mhMS4-6" value="&lt;h4&gt;Датчик-дождя&lt;/h4&gt;&lt;div&gt;- Наличие дождя&lt;/div&gt;" style="ellipse;whiteSpace=wrap;html=1;" parent="1" vertex="1">
          <mxGeometry x="590" y="380" width="170" height="170" as="geometry" />
        </mxCell>
        <mxCell id="FoBP6NZhNMQKQz-mhMS4-10" style="edgeStyle=orthogonalEdgeStyle;rounded=0;orthogonalLoop=1;jettySize=auto;html=1;entryX=0;entryY=0.5;entryDx=0;entryDy=0;" parent="1" source="FoBP6NZhNMQKQz-mhMS4-9" target="FoBP6NZhNMQKQz-mhMS4-1" edge="1">
          <mxGeometry relative="1" as="geometry" />
        </mxCell>
        <mxCell id="FoBP6NZhNMQKQz-mhMS4-11" value="Analog" style="edgeLabel;html=1;align=center;verticalAlign=middle;resizable=0;points=[];" parent="FoBP6NZhNMQKQz-mhMS4-10" vertex="1" connectable="0">
          <mxGeometry x="-0.0726" y="-2" relative="1" as="geometry">
            <mxPoint y="1" as="offset" />
          </mxGeometry>
        </mxCell>
        <mxCell id="FoBP6NZhNMQKQz-mhMS4-9" value="&lt;h4&gt;Датчик света&lt;/h4&gt;&lt;div&gt;- Уровень освещённости&lt;/div&gt;" style="ellipse;whiteSpace=wrap;html=1;" parent="1" vertex="1">
          <mxGeometry x="10" y="310" width="170" height="170" as="geometry" />
        </mxCell>
        <mxCell id="TI2kGsZEfOz8IgFKryug-3" style="edgeStyle=orthogonalEdgeStyle;rounded=0;orthogonalLoop=1;jettySize=auto;html=1;entryX=0.5;entryY=0;entryDx=0;entryDy=0;startArrow=classic;startFill=1;" edge="1" parent="1" source="TI2kGsZEfOz8IgFKryug-2" target="FoBP6NZhNMQKQz-mhMS4-1">
          <mxGeometry relative="1" as="geometry" />
        </mxCell>
        <mxCell id="TI2kGsZEfOz8IgFKryug-4" value="USB &amp;lt;-&amp;gt; UART" style="edgeLabel;html=1;align=center;verticalAlign=middle;resizable=0;points=[];" vertex="1" connectable="0" parent="TI2kGsZEfOz8IgFKryug-3">
          <mxGeometry x="-0.0857" y="1" relative="1" as="geometry">
            <mxPoint as="offset" />
          </mxGeometry>
        </mxCell>
        <mxCell id="TI2kGsZEfOz8IgFKryug-2" value="PC" style="rhombus;whiteSpace=wrap;html=1;" vertex="1" parent="1">
          <mxGeometry x="277" y="-140" width="176" height="170" as="geometry" />
        </mxCell>
      </root>
    </mxGraphModel>
  </diagram>
  <diagram id="FDYQIe_Fb8oLmNZfDT93" name="circuit-diagram">
    <mxGraphModel dx="1325" dy="859" grid="1" gridSize="10" guides="1" tooltips="1" connect="1" arrows="1" fold="1" page="1" pageScale="1" pageWidth="827" pageHeight="1169" math="0" shadow="0">
      <root>
        <mxCell id="0" />
        <mxCell id="1" parent="0" />
        <mxCell id="pi9QV9mLhc3Nf6GCbJB_-5" value="" style="shape=image;verticalLabelPosition=bottom;labelBackgroundColor=default;verticalAlign=top;aspect=fixed;imageAspect=0;image=data:image/png,iVBORw0KGgoAAAANSUhEUgAAAVwAAAJ0CAYAAABeAZvqAAAAAXNSR0IArs4c6QAAAARnQU1BAACxjwv8YQUAAAAJcEhZcwAADsMAAA7DAcdvqGQAAP+lSURBVHhe7P13fFvXYf//v+7FBkhw7720SGpQW5Ys2VreM4ntxEkTJ2lmk7ZOv59Pf00bt/mkadoMJ86q7WzvIdvy1N4StSWS4t57gwBBbNz7+4MkRICULacNLdPn6ccxgXvPHSB137j33HPvlVRVVREEQRD+4uTIAYIgCMJfhghcQRCEWSICVxAEYZaIwBUEQZglInAFQRBmiQhcQRCEWSICVxAEYZaIwBUEQZglInAFQRBmiQhcQRCEWSICVxAEYZaIwBUEQZglInAFQRBmiQhcQRCEWSICVxAEYZaIwBUEQZglInAFQRBmiQhcQRCEWSICVxAEYZaIwBUEQZglInAFQRBmiQhcQRCEWSJd649J93q9eL1eAoFA5ChBED7C9Ho9BoMBrVaLJEmRo69J13zgtra20tbaht0+EjlKEISPsLS0NHJyckhMSkKWPxwH69d84O7etZs9u3bR1NQUOUoQhI+wNWvXsm3bNkqXLEaj0USOviZd84H73DPP8twzz1BVVRU5ShCEj7DtN93E/Q88wNrr1qHVaiNHX5M+dIFrNBqxWCyR1QRBmOMCgQBerxePxwMicP8yIgN30w03cPsdd0RWEwRhjuvs7OTc2bMcOngQROD+ZUwNXKPRyP0PPMAXv/ylyGqCIMxxLc3N7Nm9mz/87vcgAvcvY2rgWq1WPvf5h/ibb34zspogCHNcc3Mzb+x8nZ89+ih8SAP3w9GXQhAEYQ4QgSsIgjBLROAKgiDMEhG4giAIs0QEriAIwiwRgSsIgjBLROAKgiDMEhG4giAIs0QEriAIwiwRgSsIgjBLROAKgiDMEhG4giAIs0QEriAIwiwRgSsIgjBLROAKgiDMEhG4giAIs0QEriAIwiwRgSsIgjBLROAKgiDMEhG4giAIs0QEriAIwiwRgSsIgjBLROAKgiDMEhG4giAIs0QEriAIwiwRgSsIgjBLROAKgiDMEhG4giAIs2TOB67X66W1pYXGhkZ6e3sjRwMQDAYZGhqiprqGs2fOUFVZSVdnF8FgEFVVI6sLggAEAgEcDgfNzc3UVFdTW1NDQ309ra2tDPT34/V6URQlcjJ8Ph9DQ0NUV1dz/vx5LlVdoqe7G5/PF1l1zpnTgasoCg6HgwP79/P2W29x4fz5GUPU4XBQfekSb735Ji+/9BKv73ydUydPMjQ0RCAQCKsrCMI4r8dDd1cXB/bt443XX2fXO7vYv28fRw8f5vz587S1tWEfsePz+VBVFVVVURSFoaEhKisreeett3htxyu8/eabnCwv/0hsb3M6cN1uN62trbyy4xWeffpp9u/bN+Mf9Y2dr/PSiy/SUF9Pakoqw8PD7N69i988/jh9V9grFoSPOo/XS3dXN4cOHuL8ufPYbDba29s5duwYv33yN/yfb/0Dv//d76itqQnt5DgcDg4eOMCvf/FL+vv7sURZsNls/PEPf2Dfnr10tLdHLmZO+YsF7qjqoFvtoFvtwK26IkfPisHBQRobGtBoNOh0Ohx2BzXV1bjdbpg4tBnoH+D8uXME/AG2btvGho0b2bxlMxkZmRw9epTOzk5crg9m/QXhWqYqKj6fD6fTSUpqClu3bWXb9u3cfvsdbN66hYKCAk6fOsXBAwepr6sHFZqammhtaUEjy2y4/npuuPFGVq1eTU5OLhcvXqC5uTlyMXOKDBBQA4yqDhyq/X9UbOowvWo3vWo3XbTTSjOtNNNNB71qN31qD3bVNm26dysenYuAOYAapaBGKXj1HsZUJ4o6vW0oUl9vL431DeQXFLCweBEGo4Hz584xNjYGgMfjoa2tjb6+PpKSkti6bStLli7h+o0bKS4upr9/gM6OThx2e+SsBUGYoNFoyMzM4rr169m4aRO33HYr99x7L7fdcTuSJFFZUcGZ06dRVIXGhgZGRuzkFxaydu06lq9YwYqVK1i7bi3tbW10dnQQCASmNfsByC4XxjEnsUqQWCWIxeNBY7ejDg6gDFxDZWgI9QpNI5rvfOc7j7hx0UIjNoaxqUPjP/+M0k0Hl7hAOy3008sodkax00MX7bTQRQc+fDiwT5v2SqWi4yJ1/TWMqENokmSyl2aTX5JPLLHIyEiSFPmZAFBVlXNnz3Ls6BFWrFxBRkYGXq+XmupqrrvuOuLi4rDb7Zw7e5bmpiYKiwq5fuNGJElCp9PR19fHubNnSU1LIzUtleTk5MhFCMJHmsvloru7m/PnzpGZlcW669aFxpnNZpJTUnC73TQ3NTEwOMDWbdvYt2cv9pERiuYVsXjxYgxGI6gqwWCQd95+h7T0dJYsXYperw9t25PhO1ZRwXD5Cey1NaSoCvNjrBRYzMT7fKjd3ShdXR94Ubu7UQYGkJOTYcpnmCSPB2UnKuMfyuVy0dXZSW1tLdWXqqmuDi81EaW2pobamhrONp7iXOsp2lpbqOmqpKrnfKhc6rlAfWc1La1NnGkrp6LpPPV1ddTX1YdKQ31EaWigoaGB/v5+vF5P2Er78NJGC05Gw4ZPZbfb6enqZnh4mIXFxSxfuZLklBRaW1rp6+3F7XIRDAZxjjrR6XQYDIaw6bVaLWazGY/HjdfrDRsnCMJ702g05ObmYjKZGLHZcDgcjI46CCoKJpMZSR5v0dRqtZijopA1Ml6vd3oTnsdD8OIF1IH+sMF+v58x5xj2kZHxYrfjsNtxOBwzltHR0RmLc9QZKmPO8eIaG7tcXK4Zi9vtDivBYHBixXwEqypRZjj/Iz3+7H+rU4PL43Ez6hjF7fbMeNg+bX9yIsHd0aN4LW5UVDxWJ4qiIHllQEKJH0PSgs5tAsAwZkbnMc40t3HS5TFdXV10dXUyah/FZDFz+/Y7ue/uTwGQRS7xUkLYpJMqL1bw+uuvU32piu99//vExMayb+9eHnv0p/z1l7/E+g0bkGWZV3a8QmVFBWvWruGhL3whNP2JY8f56U9+QsniUrZt386q1avD5i8IH3WDA4OcOX2a3zz5JGvWruXhf/hW2Hi/309NdQ2//c2TdHV28aNHf8IvH/s5LpeLDddfz8233kJUVBQej4eOjg7+7hvfZNXqVXzu858nIyMDWZZR7HaUnm6Ujg76a2upOFnOgQP7AUhJTiEzK4uEhAQkeTwxpKnhEWZivHT59UwmR0tT60yrfnnA5R1YiYKCAhITEkGWkeLi0JYuRpOfH6oLIG3atGl6Y8mfwZ/kIRDvA52CGucDjwbZrgfAW9SLP2qMoFOGAASHZZTR93++zmg1cvsNd3Pf9k/DewTuSy+8yPHjx/F5vXzpK18hJjaGUydP8vvf/o6y5cu55dZbycjMYMfLL1NddYk1a9fwuc9/PjT9iePH+elPHqW4pIRt27exes2asPkLwkfd1QRufX09v33iSTo6OvivH/+IX/zsMdxuN9dv2sjNt1wO3M6ODv72G99k5apVfO6hz5GZlYUsywRbWwlWXwJg6OIFak+c4NjZ02HLuRZIkszNN25mYVERaHXI84rQLls+LXDff+q9G4OCmuQFfXiGK2MSikuC4HjYBns1KD3vv+Cd9lVzRXV1ddTX1tLY2MivfvELfvSf/8Vrr7yKw+Gg4uJFuru70Go0WKOjAQhMHg5MCAYVfD4fJqMRvX78i0MQhKunKAr9fX04x5zo9XpiY2OJtlrRarUE/JdPKinBID6vD1VRMBj0mMzmaW2fk8aAVqRrqrQh0ybJjJ+Kf3f/u4ErqaCZvgsuG0ETraKNUZBjFeR4BSnh/Rd04fOdic/nY2BggPa2NkxmM+s3bGD+ggUUFo030q9eswa73U53Vxcul4v4hATcHjdjo+PNIJOdsz0eN8PDw5gtZkym8aYQQRCujqIouN1uzp09S8Dvp6CwEKPRSGxMDLIsMzw8jDKxk+PxehkcGkRFxWQyY7FYImcXYgTSUK+pkopKKgpXkxKaB7/4qUeSC5JIL0gjvSCNhMwEohItmONNRCVFEZ1kITopanpJDH9vyNBjTNVhijOij9FjtBgwWI0YEvQYM2QscRasxjiiTDHEmRKJj04iPj7+XUoc8XHxaLVagsEgwWAQnaRnfs5CSuYvBiCGWEySOewDjTpGqa2ppfzECbKysrj19tvJy80lKzubrOxsUtNSuXj+AtaYGDIyMklITOBkeTk6nY6FixZhNpsZsY1QcfECx44eZev27cybN4+oiT1hQRDGhXopnD1LWnoay1eswOv1Mjo6SldnJxcuXODAvv0kJCSy7rp1LFi4kO6ubnp7erCPjFC2fDlGk5GB/n5Onz5NV0cnS5YuZemypcjyeA8kdWQEdWAAAHdfL/bOToZ7ujECUVotsQYjcSYTMQbDVRerQT/+Wv+/UHQGYgx6YvQGCnJyiYuLA1mDlJCAnJaOHBcX9juT+pQetZ9egox/29iGh+nq6prxiqypIvvJjRkduHVjBNQALuMoQU34tLqAHqPXggYNZk80Rp8FZuhrx0Rvicn5V1dXU3upmsHBQcwWC7ffeSf33X8/GrRkkkWsFB82dXtbG6+8vIPaulrWrbuOT//VZ0LjVFXF4XDwL//0bSQJ1q1fz6233cY//9M/4XK5uOnmm1m5ciWNDY0cOniQo0eO8IMf/hclpaXodFexey0IHyGTbbhPPP44Cxcu5DOf/Su8Xi9Dg4NUV1dz/Nhx7HY7d91zN3ffcw9xcXFcqqri9dd2cvbMGf7u4YfJysmmsb6BF55/nmirlVtuvYUbbrwxtIxgRzvB2lrw+xmqrKDuxAlOnj4JQKw1lsTERKKjoy83QYQiZSJHwoZNG3OFDAo3fR4R85ZAliQWLFw43n1Uq0POz0e7rGxaG67kU3zqKHY6aUdFJRAI4Pf7r9j5+EoUKciY5GSAXhRZCXUzmySpEjpVTzKpGBQjknp1rRkH9+/nwIEDtLe2hgL30/f/FZlkY8KMVtKG1a+sqOQ//v17FBXN44Ybb2TjDZtC41RVxe1286c//pHKigpSUlL5P//4fzly+DB79+zh3NlzxMbF4hobIzk5hS1bt7J56xaSkpKu2KYkCB9Vk4H7i5//nN7eHhITk9DIMgaDgbj4eHJyc1m9ehULFy0iLT0djUaD2+XiyOEjvPbqq3R1dqLRaJBkGY1Gw1997rOsWLGSlNSU0DJUnw/VZiNQVUlfUxPnTp7knXfeAqB4UQkrVq6ioLAAeaKL2dUK5dPVR9x7MpqM6LS68a4LBgPaRcXTA1dVVdWn+rBjmxaS75cfX6hvrJNRRnEAEEs8JkzIaIgiGg2aiCmv7NVXXuHVHa9QV1tLdHQ0933yAb70hS8TQxwaafp8+vr6OHroMGkZ6eTk5pKRkRE23u/3U19XR1dXNwa9nvXXb2BocJC6urrQZb96vYHMzEyWLFtKSkrKtD66giCMNyn09vRw7uw5hoaGkCQJjUaDwaAnJiaW1LRU8vLzsVqtoRPPqqrS3d1NTXUNTU2NeD0eDAYjySnJrFq9mqSkpGknqVWfD6W3h46WFvbv288ffvc7AK6//npuu/12li0vQ6OZngUfNCk+ATk2NnyY+n52Y98HmzrEMEMApJBGlPTntYE+98yzPPfMM1RVVWG1Wvnc5x/ib775zchqIZMnvSQkJFmatmc6edciVVXD6ijKeK+EkZERLBYLZrP5mvwjCsK1Yuq2NEmW5PF+rO9xRBgMBvF4PHg8nvHeQjExwLtP19zczBs7X+dnjz4KwPabbuL+Bx5g7XXr0GrDj3SvVe9vP/x9iCWefIrIpwgLUZGj/6JkWQ51hJ6JJEnT6kiShMFgICUlhaioqPd9iCIIH0WT29JkieyhdCWyLGM2m4mPjw+F7UfBXyxVJGl8z3GyzJb3Wm7k+Mk6kcNmmlYQhMsit5f3s+1E1r/a6T7s/mKBKwiCIIQTgSsIgjBLROAKgiDMEhG4giAIs0QEriAIwiwRgSsIgjBLROAKgiDMEhG4giAIs0QEriAIwiwRgSsIgjBLROAKgiDMEhG4giAIs0QEriAIwiwRgSsIgjBLROAKgiDMEhG4giAIs0QEriAIwiwRgSsIgjBLROAKgiDMkjkbuE6nE9uwDdvwMDabDbvdjtvlQlGUsKeMTgoEAjidTvr7++nt7WVgYAC73Y7f78fv9+Mac4XeR5p8UvCow4HT6cTv98+4DEGYSya3mY6ODpoaG2lqaqK1pYXOjg4GBgZwTWxvM1FVlWAwSG9vLz09PZGj56w5G7jNzc1cvHiBCxcucvHCBWprauju6SEQCMwYhk6nk7bWVo4dOcqB/fs5fuwYtTU1jI2N4XA46OzspKa6mtHR0chJAVAUhcbGRtra2nA6nTMuQxDmErfbTUtzC6/ueIXf/ua3/P63v+OZp5/htVdf48TxE3R3dePz+SIng4nA9fl87N+7j3179kSOnrM0jzzyyCORA68lVZVVVFVW0t/fj8FgYFnZMlavWRNZbZrfPP4Eu97ZRX1dHfV1dZw+dYqjR45w4vhxoqKisERFYTKZADh39iyv79zJKy+/zMDAID093dTV1nL0yFFqa2txjbkYGh7iycefIDsnm5SUFHQ6XWhZbpeLtvZ2fvPEE3g9XhYsXIDJZPpIPIVU+Ogac47R0tLC7l27cI45yc7KBgmGh4aoqqpi7+7ddHZ0YjQZSU5ODj2Zt6uzk5Mnytm7ezf79u1DURVu3Lw5cvbT2Gw26uvqOVleDkBhYSElpaVkZWeNP6L9Q+DDsZZ/hra2VkZGRkhJTWFRcTElpaXExcXR1NjEoYMHaWluJhgM4nK5OHbkKLU1NSQkJFJaWkpZ2XKWLl3KggULkCTQaDRoNBoaGhqor69noL8/bFkOh4NLVVV0dXbh8/kwGo0ibIU5T1EUvB4PNpsNa7SVVatXs3LlKlasXMnCRQuxWq2cPFnOsSNHaWpqCk03bLNRV1tLXX0dnR0d2O32sPnOZTKAGgyiOp2oo6PXXNF4PRiCQcyqgklR0Hq9qK4x1Cu0DU2Vk5PDrbfdzkOf/zxf/5tv8MADnyQ/P5/Tp07T0NBAIBDAbrdz+vRpFEXlvgfu5/5PPsAnH/wUD33+C/zN336TbTfdROniUrKzs0lJTqajvZ22tvbQMlRVZdhm4/y58yQlJZKZlYnFYhGBK3xkaDQaMrOyWH/9Bm7YfCN33n0XD37603zq0w+CCmfPnOHkifLQ+RMJ0Oq0JCYmYjQZI2d3RZLPh87nxawqmFUFvd+P7HZfe9k15kQNBiNXHyabFFSHg8C5syhdnSjdXddU6T13DkddLfrhQdJlmcXJScxLS0NOSkbSaiM/T8gbO3ciyxqWLF1KamoqWp0Wr9eLY9RBxcUK5s0rYlFxMb09vezft4+YGCvrN2wgPj4ejUaDJEnodDqSk5OJi4/H6/PR19fL4OAgVquVxUuWhJbVUF/Pyy++yOLFi1m6bBlp6elh6yIIc5HL5aK7u5vz586RmZXFuuvWhcbpdTqirVY8Hg8d7e0M24bZsnUrGo2GuLg4CgoKSExKoq62DoPBwM233BI275mMVVYydLKc4UtVJCtBFsbGURQdRaLfh9rTMy07PqiiDgwgJSYi6fWRHwHNP3/5y48oLc3gcEAggHt0lOG+Pga6uxnu68fWP4BtILyMTH09OMjI5M+IYh8cZGRw6PKwoZnr2IeGcAwNYZ8sw8Oh160NjfR0tONxOjFptRTk5jEvPx91bAzJaECaaIeNFBm4Gq2G7q4uTp08hXPUwdKlS1lUXIwsy5SfOEF3dw/O0VG0Gi2yRkav16PX69FqtWg0GoLBIIqicPH8BfQGPcvKytBqtTgcDiouXGDP7j3cdsftFJeUEBUVFbk6gjDnvFvgSrKMJEmMjY1RV1uLfcTODTfeGNquNLKM0+nk1MlT6HS6dw1c1esl2NDAaHMTPU1NNNfXoQWS4+NJSUzAbDDgc7nwjo3hHRvDN3b5tdc18TM0bqK4XDMWv9s9bVhonMuN3+0m4B7/6Xe78Xs8oddSMIisKOD3o7rdSDodksUS9lkkf12tqjQ2jn+w0VGGentpb29jYGCQYCAAk0fGMxwih4ZMGRdeS4ocMDl0yhtp/P0V5t/V2UVnZweOUQcmo4n1W7ay9c47AdAsXoImMzNyMgC+9IUvMDbm4uZbb6GoqIhAMEhTQyOnTpaTkZHJjVs2s2LlSgKBAH/6wx/Gg9jpJL+ggIyMdFJSU0lJSSE3L4/4+HhUVaW3p4fvffe7WGNi+Osvf5m8vDxampvZs3s3r+zYwfd/8AOWLluGwWCIXB1BmHMGBwY5c/o0v3nySdasXcvD//CtsPF+v5+amhp+9+STdHZ28aOf/ITklGSMRiMet5umpiYe/fFPMJlN/OznPw+bdpLqdKIM9BNsaqK/vp4LJ8vZu3e8V0NGRiZ5efkkpySHTpq9W1PeZM7MlFuRrjSf8Xlcfjd1XtlZ2cTGxSJJMkRHoy0pRZOfP1ljvNrUwA02NtJZfYnKS5do62jDN0Of0w+SWadn2bbtrLrrbriKwG1oaKCgoIDY2Fh6enrxeDykp6fx0Be+wLx58zBPfPsMDAxwqvwku3a9Q/WlS9jtdvR6A9nZ2dz7iY+zevVqMjMzUVWVf/mnbzM0NMiWrVvZun07x48d4+iRI4zYbPztww9TWFgYuSqCMCddTeA2NjTw5BNP0N7Wzn/96IekpKZiMpmuOnCDra0Eqy8BMHTxAnUnTnDy7OnIah84SZLYduMW5hcVgVaHPK8I7bLl0wJ3Wi8Fj8HAYLSVdllLK9I1VdyRK/sejEYTiUlJpKal4fG4kWWJ1WvWkJqWhsF4ubE+NjaWdeuv4+8ffpifPvYY//7973PPvffi83p5/plnKT9+AkVRkCSJefPnYTKbuXjxIl6Ph9aWFoaGhlixahXR0dFhyxeEjzJFUejt7cM15sJkMhEXFx/WnfLP4YJpufDBF5k2NIxFruwMpgWuJhDA6PMSrSrEoF5T5cqnyGaWkBBPSWkp6zdsYP2GDSQkJnLmzBm6urpwuy/Ht06nIy4ujpzcXBYuWsTK1avZcP0GVq1ZzdDgIN3dl+vPmz8fq9VKzaVqWlpaaG9vJxgMsqysDEtEe40gfFQFg0GcTifnzp7F7/eRX5CP0WT8H/eX1cG0XLgWihWVq/kqCfv0ksmEKSqK5KgocpOTyUtJDZXcdy0p4yX5/ZecdytJySRHW7FqdZgAvyTjm6lR+Aqs1hgKC4tYunQZ27ZvZ/78BVyqrOLE8eO0trTgdrsZsdno6+3FPjICE4cGsbGxZOfksHDRIvQGPYFAgOBEN4+8vDwSExPp6e2l/MQJent6sUZbKSwsDF1IIQgfKaqK3+/D6XTicDgYGhyktaWV8+fOcfHCBaKjrZQtX45Op0OWZRRFIRAMEgwGUVUVVVFD29iVLgWeZACSJkqqRkOmwUCO2Xx1xfR+iylUsiOLcUoxGck2GTBrNJGrO034STNVxT4yQk9XNzabjUAwMDE8YioAxgdOvYT13S5nDRs38VKdfDHF5WoqqOOX6DY3N2EbGcZssrB5y1Zuu+N2uIo2XK1Wx2c++1mWLl2KTq/j4oULPP2nP1FVVcWdd93FzbfcQnt7O91d3WRnZ7N6zRpkzfjZ1ebmZt558y3efvtt7rr7Lj770EPIsoyqqrz26qv87NGfoioKycnJbLrxBr7yta/BuzS2C8JcM9mG+8QTjzNv3jw+9eCDeL1e+vr6qLxYweHDhwkEAtx///3c87GPYY2xIkkSXq8Xu91OS3MLv/7lLzGZTPzHf/0nGo0GvV4f1uwQ2YbbcOIEpyfacKOjoomLjRvv9x6aYty0ZJmaU6FB02pNmXBqrkVk1UzTSRIlJSWkpaW9axuupIyOqkpfH8H6uolvKj9ej3fiBiyXv21mWMTMZlqZCVcecwUqnDp1itOnTtLd3YXZZB4P3Ps+gWbePOSEBCTjzHuVkYGrN+ix2+3U19Xx5BNPgKqycNEiypav4NUdO+jv7ycpKYnklBQURWFocJDOzk5WrVrF5q1bWFZWFpr3ieMneObppzl54gRr1q3ljjvvZOu2bWHLF4S5bmhwiPPnzvGbJ5/EYbeTkZmJVqtBo9FiMptISEigpKSURcXFZGVnhfq3Hz50mB0vv8yo3U5bWxuyRqa4uIS8vDw2bLw+bFtTXS6UwUGC9XX0NzRw/tRJdu/eBcCCeQtYumwZObm5V9FUMUP6jO/TvQ+hPcXppPEvAIPRAJIMFgva4pLpgauqqqq6xgi2tcOUgL1WvP3W27z95ps0NjYQZYnirnvu4VOf/zxyTjaS9sqtJo//+r/RaDRcv2kjubm56HQ6FEXB5XLx9ptv0tnZSXR0NGvXXcfJ8hO0TDQxmM1mJElClmSMJiM33HgjRfPmERcXF5p3e1sbZ06f4dTJkyxdtpTVa9aQF/GLFYS5bmxsjK7OLk6Wn2BgYHDiYiEtRqOR+IQEsrOzKSgsJDo6Gu2Ui5QunD/P4UOHCQYCoeySZZn09HSWLlvKvPnzQ3VhvB+u0t5GR0sLhw4e5Ok//QmA665bz8233MKSZUvRXMXh/GyTU1KQExLDhknqjPvV147nnnmW5555hqqqKqxWK5/7/EP8zTe/GVltmo6ODiQgLj4ek8kU+gZUFAW3y4XNZsPn85GQmIhOp8PhcNDb08PIyAh6vZ74+HgyMjIwm81oIq5o8/nG26uGBgeJjYsjNjb2f3z2VRCEd9fc3MwbO1/nZ48+CsD2m27i/gceYO1168IC/Vr2XvvhH1ppaWmkpqVNu2uXJEmYzGZS09LIys4mOjoao9FIYmIiCxctYvWaNZQtX05+QQGWqCjkGb45dTodMTEx5ObmEh8f/6H5YwuC8MGas4Gr1WrRarXIE5cYTpIkCVmW0Wq1obOmk+8NBgMmkwmj0Yher5827dR5aDQadHp9qF1KEAThvczZwBUEQbjWiMAVBEGYJSJwBUEQZokIXEEQhFkiAlcQBGGWiMAVBEGYJSJwBUEQZokIXEEQhFkiAlcQBGGWiMAVBEGYJSJwBUEQZokIXEEQhFkiAlcQBGGWiMAVBEGYJSJwBUEQZokIXEEQhFkiAlcQBGGWiMAVBEGYJSJwBUEQZsmcDVy3y8Xo6CijjlFGR0dxOp14PB6CwSAzPag4EAjgcrkYGRnBZrMxMjKC0+nE7/fj9/vxeDw4nU4CgUDkpKiqiqqquFwu3G43gUBgxmUIwlwSDAbxuD0MDg7S29NLb28v/X19DA4OMjIygtvtnra9+Xw+HHY7vb29dHZ00NnRMf60bJsNv98/57cbzSOPPPJI5MBrSVVlFVWVlfT392MwGFhWtozVa9ZEVpvmwvnzVFdX09raSntbG329vXjcbixmS+jhklMNDg5SU13NqfJyqioraWlpYXh4GLPZjMvtpquri/q6OqwxMVgslrBpAfx+P+fOnsU+MoLRaMRoNIqHSwpz2phzjMbGRl7dsYNdu3ZRfqKcc+fPUVNdTW9vL6qiYI2JQa/Xh7aFrs5Ojh45wgvPPc+rr7zCnj17uXjhIiMjI6Slp2M2m6dtm5NsNhv1dfWcLC8HoLCwkJLSUrKys644zbVmzgbuM089TfmJE/T19tHf10djYyMXL1zg1KlTGPQGzBYLZrMZgDOnz7B3z24OHTyEy+XCbrfT1dVFVUUlrS2t+H1+HA4Hzz3zLJlZWSQlJ6HT6ULLcrtcdHR08Pxzz6OoCvPnzxeBK8x5Y84xWlta2Ld3L16Ph4KCAgwGAx6Ph472ds6cOkVHewd6nZ7EpERkWaa2poa2tjb8fj/5BQWkpCTj8bi5cP4CBoMBq9VKbGxs5KJgjgTuh2Mt/wyNDfV0dHSg1elITEoiISEBj8fLmVOnOHzoEG2tbQSDQdxuN8eOHuXc2XMEg0Gys7MpKCwkKyubmJgYhm3DeL1eFEXh4oUL1NfVMjg4GLYsh2OUS5cu0djQgHPUKcJW+EhQFAWv18uIzUZMbAxr1q1lxcqVlJYuJj0tHY/bw6EDBzh27CjtbW0AGI1GsrOzWbN2Ldu3b2fb9u0sXLQIu93OhXPn6OzoiFzMX4yiBnGodryqJ3LUX4zmkUceeURVVQgGx4uiXFOluqqS6soqBvv7MRkMLF2ylJUrV4IkvWuovbFzJ/HxCXzi/vu59dbb2LDxejIzMxkaHKKiooK0tDTmL5jP0NAQf/z97zFbovjSV77CDTfeSNny5axYuYLrNqwnJSWVwqJCjAYDJ44dJyo6msTERLJzcmCi/bazo4O9e/YCULZ8OSWlpe+6boIwF7hcLrq7u7lw4QILFy3iE/fdR05uLvMXLGBRSTEFhQUcP3qMvt5etBotpUsWk5aWRkFhIQWFhSQmJZGSkoIsa0Jtv9nZOcxfsCByUQAM24aor6/j5KlykKCgqJDi0mIysjKQJAn1Kv9TCBIkiBcv7bQiIWHAgIIyre6f+5/EzPk0HrijowQvXkDp6kTp7rqmSvfZs9hqatAPD5IuyyxJSWFhejpyQgKSRhP5eULe2LkTWdawZOlSUlNT0Wq1jI2NMTg4SPWlS8ybN59FixYxODDA/n37MZvNrFq9iviEBLRaLQAajQZrjBWr1Yrf56Ovr4+hwSGsViuLlywJLau+vp4dL71EcWkpS5ctJT09fcqaCMLcNBm458+dIzMri3XXrQuN02o0GI1GPG4PXd3dOBwObth8I7IsI0XsLLW3t3H0yBE0Wi2LiospKioKjZuqZbSJC71nqWg/D3EKqQtTSFuUijHNgF22YWP4qkojdTRRTyetDNLPAH100k4HLbhxMYpj2jTvpziwY8GCVhrPkak0//L1rz+itLejDvSDx4PbZmOou5v+9naGuroY7u4ZLz2Xiy1Uesd/9o6/HwkbN1F6exmZLH19l19PKfbeXkZ6+y6Xvsulra6O/vZ2/M5RorRairKzKcrNAX8ADHokgzHyM8EMgSvLMt1d3Zw9fQa73cGSpUtYtGgRKnDq5EkGBgbweDyAhBIMIms0GAwG9Ho9Op2OYDBIMBCg4uJFdPrxtmStVovD4aDi4kX27N7NrbfdRnFpCdHR0ZGrIwhzzrsFrizLyBoNHreH2rpabDYbN27ZjF6vRzNlR8npdFJVWcm+PXspKS1hyZIlpGdkhMYDBNQAQwzQMdpGQ2c9l+oqQQeJaYkkpCWgs+hwuOzYx0awu+w4XCPYJ4vbjt01Xobdw3T72un1dNPr7abX34XNN8SQr58h7yBOtxOH14HTPYrL7cbhdoSV0cniGWXU4wgrTu8oQTmIolEI4CeIghYtekkf9lkkf12tqjQ2AqC63Qz19dHa1kp/X3+oC5QEMHX3eOLl+I+wN0iTLyZcnkwK1ZnyYmLe06ebHNnZ0UFHRwcOhx2T0czGrVvZfscdAGgWL0GTmRk5FQBf+sIX8Hi83H7nnSxYMB9FVamrqeXA/v2kpqWxddtW1qxdSzAY5MnHn+D48WO4nGMUl5aQnZNDRmYmGenppKSmYrVaUVWV3p4evvuv/0pMbCxf+epXyc3NpaWlhV3v7OLlF1/kP3/0Q5aVlaHXh/+SBWEuGhwY5Mzp0/zmySdZs3YtD//Dt8LG+/1+6mpr+c2TT9LZ0cmPHv0JycnJGI1GVFVFURQuVVWxZ9du3nrrTb76ta+z9rp1YUeIftWHEyfddNDU3cjRY4d4+cWXAMjLy2fBokVkZKSHTpqN581Emlz+H5IWAjofI9ph0Cr4tB7c0hiSSw8S6GQdUcEYJL9ElCeGaO/Eibsp8wiZIetkSSYmxorRZAoNSyCJOCk+9B4iAjfY3ERXdTXVly7R3tmOz+8Pq/xBUFUVVVFQAYNOz7Jt21l9191wFYFbVXWJ9PR0oqKiGBoaQqvTsXDhAj754IPk5+djNI7vHdtsNs6eOcu+vXupvlRFb08viqKQnpHOg5/+NGvXrSMzKwtFUfiXb3+boaEhtm7dyrbt2zl+7DhHjhxheHiIv3v4YQoLC2dsuxGEueZqArehvp4nn3iCjvYOfvijH5KcmorJZEJRFDweD7/8+c85feo0eXl5fOkrXyYnNzesx8GgOkA3HaioXOqv4Mi5A+x9excAsiwhy5rxJoopy43MRwA5WkGOGW+j1VpVZKMKXg36S6lgBDUqgKRKSAMGdD0mdMMzHzm/G2l8zzHsfeSOZHgvBUXFo9UyYDLTpkBrUPnAS5ui0o5EBxK+mX+XVxQbG8u8efNYvGTJeLiqKtnZ2cTFxWEwGEJtSVarlWVly/jMX32Gf/ynf+Lb//Iv3PfA/RiNRl7fuZMzp88QDAaRZZl58+ZhMpm4eLECt8dDa2sLw0NDrFi5kujoaBG2gjBBURT6+vrwuD1YLGZi4uLQ6XQoisLg4CDPPP00bW1tLFy4kAce/BTJKSnTtp/Jk1Chdx5Q+mSUPplAj4SvS8HbGcQztXTMUHqCePqCePsUvENBAh165Np4lDEZZURGGZYnmg2D+Iwe3Nbxi54CvsBVF7/Pj997ufi8Prxeb1iZ1i1MUlRkJYgW0F1j5f1GWXx8PMWlJay7bh2r16wmOTmZpqYment6cY2Nha4Q02g0JCYmsqi4mLXr1rF5y2Zu3LyZpUuX0tHRQXt7O16vF4B58+djtVqpqa6mtaWFtrY2AoEAZWVlREVFRa6CIHwkBQIBRh0OLl64gM/nIycnF7PZjCRJdHZ0cOzoUS6cO096egbXb9pIcXFxaPy7ksebB95vQQPSREEGyadFM2JGUmSQ1fEySZGQgu+xHn+msMCVdDpMWg3JskxedBT5Vuv7LNFXLHl/TomOJtNoIFmWSUBFkiSmX1h7ZVarlYKCQpYuXcatt93G/AULOHH8BOXlJ+jo6MDn841f6DBxGa8ycRmi2WIhKzubZcuXYzSa8Pl8+Hw+APILCkhMTKSrs5Py8nJ6unuIjo5m/vwFmKa03wjCR4aqEgj4cblcjI2N4bDb6evtpa62llMnT2E0GllWVoZWq8Vut3Pm9BnefP0NVFVh1epVLF+xAp/Ph9vtxufzoSjKFS/xlfQqcpKCnKSgTZUwZmgxZxves1jSDZiTDZhSdRiTtOjjNGisjJckBU2yitaoRWvRYNDoMSomdFYN2hj5qosl2URMejQx6VYS0uNJSU8hPT09rISfNPP7cdhs9PX1MWIfIRgITnxMlcjPH/Y29EYNex35K7v8/t3rwWRllaamZpqbmrCNDGM2mrlh61ZuvsqTZlqtjs989rMsXboUSYKKigpefuklai5Vc9PNN7N561Z6erppbm4mIyODtWvXYp64bLexoYHXd+7k0MFD3HX33Xzms3+FRqMhGAyy87XX+NUvfgFAfEIC12/cyFe++tVp3V0EYS6bbMN94r//m5zcXO752L14vF6GBgepr63j7NmzyLLMnXfdxW233058Qjw7Xn6Z/fv20dvTyx133EF6ZmbYnm1qWippaWmhi4cG1H66Gb8Y4lL/RY6cO8C+XbsBiEtIIDk1hZiYmImzZVOSZOLl+A8VZFC0QTzmMQImN6oURPKP95ZQNSqyokHrNUJQQucyoHNF7DxdIeNCryWJRaUlpKaloUFDCulkkkOClDhZebxa0GZTlZ4elNYWUFX8Ph8ejwef34+qKKGKM4ZipJlTeIZ3U0QkeWS9M6dPc/rUaXp6ujCbzGzespXbPvFxNLm5yCkpSJaZD+MjA9dgNDA8PExNdTV//P0f0Gg0LFy0iJLSEna/8w5DQ8MkJCYQH5+AoijYbMP0dPdQXFLMjZs3s3zFCgAkSeL4sWPjlw6Xl7Nm7RruuPNOtm3fHrkKgjCnDQ8PU3HhIk/96U94PB5yc3ORZBlUFVmWMZlMzF+wgNIli8nNzUWj0fDMU09x5PBhenv7KCwsHD+XMuUk2Zq1a1i37jri4uOQJAm36saOjUH6aeiu52j5IV7bsQOAhcXFrFi5ivyC/He9tHdyl84n+RjS9RHQ+FCly9kGIKkyclBLLPEYAybk4PQ+tDA9r6ZKTErCEmVBi5YcCognAZM0fvuASZKqqqridBJsaBi/uusas2fXLnbt2kVzUyMWSxS333EH9z30OTSFRUhT7mcQ6WePPopGo2Xzli3kF+Sj1+tDd/R67ZVXaW5uJioqis1bNnP0yBHq6+pxOBzj3TpUFa1WS1xcHLfcdivz5s8Pu767tbWVk+XlHD18hJWrV7F+/XryCwrCli8Ic93Y2BgdHR0cP3aMgf5+JElCp9NjMplITkmmoKCQgoICzJbLN6Q5euQItbW1DEVcHj+pbPkKVq5cSUxsTGiv16/66KOHlvYWDuzfxx9+9zsANly/kdtuv51ly8vC+vZeiQ8fwwyiouDDhwtXaJwOHRaiiCcRA4aw6d6v8T3cNPTS9PlI6pUaS64Rzz3zLM898wxVVVVYrVY+9/mH+JtvfjOy2jRDQ0MAWCyWUI8EGO9m5vP5QrdajI6KRqfX4Xa7GRocZHh4GJ1OR1xcHMkpKeh0umnfnoFAAI/Hw+joKBaLBYvFclV/cEEQ/nzNzc28sfN1fvboowBsv+km7n/gAdZety50dejVGlYH6ZpoqgCIJoZcKT+szl/ClffDP+Ss1vFLcme6CEGn02G1Wse7hxkNaDQazGYzaenpzJ8/n4LCwlDYztQmq9FoMJlMJCQkvOvt5ARBuDZFE0M+RaGSyuxcjj9nk0Kn04X2TqeGpiRJyLKMTqcLXWYoyzJarRaj0UhUdHRorzhy2qnz0Gg06PV6tFrtjHUEQbh26SQdFikqVIzS+7/Q4c8xZwNXEAThWiMCVxAEYZaIwBUEQZglInAFQRBmiQhcQRCEWSICVxAEYZaIwBUEQZglInAFQRBmiQhcQRCEWSICVxAEYZaIwBUEQZglInAFQRBmiQhcQRCEWSICVxAEYZaIwBUEQZglInAFQRBmiQhcQRCEWSICVxAEYZaIwBUEYdapqhpWPirmbOCqqoqiKAQCAXw+Hz6fD7/fTyAQQFGU0B86GAwSCATGx02MDwaDYXWmUhSFYDCI3+8PzTfg94fqC8JHxeT24/P58Hg8eDwevF4vXq8Xv298W4rchhRFwe/34/V6cblcuN1uPB4PPp/vI7ENzdnHpAeDQTo6Oqi5VE13dxeKomA2m0lMSmLhwkUkJSXhD/ipr6ujv78fj8cTenqv1WolOTmZrOxsNBpN2EMie3t7aWlupqmpiRHbCDqdltS0dEpKS0hPT8dkMoWthyDMVaOjo7Q0N7Nn9x66u7uRZRmDwUBUlIWUlFQKCgooLi0hJiYm9Bjz5uZmzp4+zalTp+jv6ycYDBITE0NRURG33n4bWdnZGI0zP9Dxf/Mx6R8UzSOPPPJI5MBrSVVlFVWVlfT392MwGFhWtozVa9ZEVguZ/EY9cfw4Rw4fobKyAq/Xh3N0lN6+XpqbmnA4HERFRyFJEocOHKTiYgXdnV2Mjo7S291DXV0dtdU1NDc3hZ7mO/mP4NDBg5w7e5a+vn78Ph/DNhvt7e3UVNeQnJxEVHT0jI9mF4S5xul00tLUzK5duxhzOsnOyUGv1xMI+BnoH6C2tpaenh70eh3x8fHIGg2NDQ20tbUxNjZGckoycfHx+AMBmhobkSSZmBgriYmJkYsCwGazUV9Xz8nycgAKCwspKS0lKzsLWf5wHKx/ONbyfQgGAow6Rtn9zi6OHzuKz+cjJzeHvLw8EuIT8Hi8tDQ3Mzg4hNvtpqmxkbaWFsbGxoiOjkbWyNhsNi5evMjLL77E3t17aGpswufzoaoqA/0DjI25SE5JZuGiheTm5uJ2uXj9tdeorKjENjwcuUqCMCepiorP52PM6SQjM4Nbb7uVLVu3sHLVKpJTkunt7eGN13dy5PBhuru7AdBqteTk5LB123Y++9BDPPSFz7Pphk0EAn5OnTxJS0tL5GLmlDm3h+t0jtHY2MBrr75CXn4Bf/v3f8/y5cspKS2lbMVy1m/YQGZmJpmZGfgDAc6eOYMlKor1GzZw/ycfYNXq1WzcuJG8ggJ6e3s5fPAQWp2OonnzsFgs5OblsXr1alauWsX8BQsoXVyKyWzi/LlzxMfHk5qWRlp6euRqCcKc43K56O7u5sL588ybN4/b77yTtLQ0cvPyWLhoEQsXLeLMmbP09fYiSRKLlywmJSWF3Lw8srKyiImJwWq1ogQVhgaHGBwcJL8gn4WLFkUuCubIHq7mkUceeURxOglUX0Lp7kbp6bmmStfZswxWX0IzNECaLLM0LY1FWZlIsbFIGk3k58HldtHV1cWxI0dJSExg7bp1RE8c5mu1WvR6PVEWC1HR0TgcDs6eOYMkSeTl5VFSWoJOp0On0xEdHU1aahp1dXX4A34sFgv5+fkYDAaMRiN6vR6NRkMgEKCxoYH9+/axes0a5i9YQEJCQuRqCcKcMxm458+dIysrm/Ub1iPLMhqNBr1ej8FgYNThoLurC+eYkxtuuBGtVotWqx0PSBVstmGqKis5cvgICxYuYGlZGRkZGZGLAmC0tob+U6forbhAohJkUUIC8+PiSFYV1L7eadnxQRV1YBDJakXS6SI/AlLQZlOVnh6U1hbUkRG8o6OMjY3h8XiufMbw8jmksAFXGHwVpCtWraqqoqqqkv6BfkwGE+u3bmXzffehyc1FTklBskSF1Xc6nbS1tvKD7/8HSBLbtm9j4cKFJCYmEhMbi9VqRZIkJEmisbGRx3/1a1RVZf2GDdx5912h+aiqyphzjP/8wQ/o6emmpKSEr3ztaxNtVAGcTid1tbX09vbS1tpKQ30DH/vEJygpLRGBK3wkDA4Mcub0aX7z5JOsWbuWh//hW2HjvV4v5cdP8NyzzzI6OsrPfv4Y0VYrOp2O0dFRTpWfpLW1hfa2Nvr6+rnrnrtZumwZqampYfNR/X6UgX66T53i1Dvv8MbrOwFYuHARZctXkJ+fF76HO+Uk97u5XGtK/YhJrzinGZYRExMzftJcq0XOzUNOTUW2WsPqSP66WlVpbAQg2NjIcHMT7e3tDAwOEgwExyuF5j3xYvqyQIocPG1A5NsJ4/Wmjpv6esRhx2634/F6Mej0LN22nVV33Q2AZvESNJmZU2qP907weX386Ic/pPzECUBl+YoVFBYWkpefT25uLrFxcRiNRlpbW68YuAAej4ff/+53nDtzhsTERL7zb/+GwWDA7XbT0d7OU3/6E9WXLhEXF8ett93OuvXXkZiY+KE5vBGE/4n3Cly/309DfT1PPvEEHe0d/PDHPyI5JQWTyURXZxf/+YMfUFdTgyUqirVr13Lr7beRk5uL2WwOzUMNBFDtIwQuXqSvqYmzp07x1ltvAJCWmk5OTi6JiYlI8pT4nCEMmWF4+PvL2Tbz1FOD6XKl8R/jO3ALFy4kJSVlPDC1WrSLitHk54cmhxkCt7ummpqaajq6OvH7/WGVr+TK+6dX4T0mVYJBghP9864mcCd7KbS3tXPhwnnOnD5NR3s7fX39KMEgqWlp3P/JBygrK8M5Nvaugev1ennxhRc4evgIFouFf//Bf2AwGPB6vQwODHDgwAEa6xvo7u7C6Rzj69/8BosXLyYqKnyvWxDmoqsJ3NqaGn77m9/Q1dnJjx59lKSkJIxGI16vl87OTgb6+6mqrOLokSMUFBaybfu2sHM0wc5Ogg314PEwWFlBbXk55SdPwMQJOJ1Oj1ajec8cmdn0iaYPuYKIipIks/H6jRTk54f2cLVLl00LXM2//M3XH1Enzqyrw8MMjthoGLHTMjjAkN+PXVHes4z8T0rw3YtdVRkFRpEwazRkFhSSsWAhAHLKDLvsE80FZouZ+Ph4MjIyKCwqoqAgH5PZREdbO4ODgxNNDDGcPXMGgOycHBYsXBA2r4DfT/mJcnp7e4mLj+f6jdej1WqRJAmtTkdsbCw5ubkYjQbqamsxmUzExsWRnJwcNh9BmIumtuFmZmWx7rp1YeMDgQC1tbVUXqxAkiTuuPMujCZjqJ03Ojqa+Ph4dHodIyMj1NZUk5aWTnFJcWge6vAwas94Dwd3Tw897e1U9fTgRmJMUXEEAoz4fLNfvBHF76cwM5PUmBhQQUqIR05LR46Lm/IbmaFbmIJEQJbxI+GHa6ookSs7A3XiCjOdTkdaejorVq5k+003ce/HP85Nt9xCXkE+l6qqaGtrhSu1UU/8Y3E6nXR2dCDLMhkZGaGmAo1Gg8ViobCwkOUrxntAWK1WWltb6evtjZyVIHzkBAIBHA4HVZVV+P1+srKysVgsyLKMqqpIkhQ6OZ2SnEx2dhb2ETujo47IWYVRZsiFa6EEgCunyWXhgStJGAN+klxj5Ggk8rSaD7zkyhLZqGShYriKD6UoyvilhX4/wWAw1MRgMpnIzs5mxcqVSJKE1+sNnRRUVRWVy9d1K4qC0+mkvb2d+vp6jCYTi4oXIUkSwWAwbL6qqiLLMkaTafxyRn8gcpUEYc5T1fFL3gOBAIFAgFGHg5aWFg4e2I8sy5StWI5GqwldFj95CX0wGMTr9WK32yd6CEVcNCRJU04iSZglyJrIg2wJcmSJXI38wRdZwiLL4+sqS9PbHCaEteGqbjcuhwPbiA3XmGv82uaw6pffTYbV5QGh/4V2HKeH4/Tpp81nkqqiAvV1ddTV1TE0NIjJaGbj1q1sv+MOuEIb7uDAAKdOnmJ4eIiMjEyWLF2CNSaGYDDIxQsXePH5F+ju7uKej32MJUuW8Piv/5tAIMDqtWu46eab8Xg89HR3U3HxIocOHsLlcnHzLTdz6+23YzQaqayowGAwMH/BAoxGI8PDwxzYt59f/uIXbLtpOzfddBPLysrC1kkQ5qLJNtzH//u/SU9P5/Y778Dn9WGz2WhtaaG6+hIajZabbr6Zbdu3k5ySzI6XX2ZocIi0tDTSM9LxeDxUVlSw6+13KCgs5PY772Djpk2hZageD8rQEMHaGvoaGjh/6iS7dr0DQHpaOjm5uSQlJY0HnTpD5oTyZUr2hF5NHT/+csZaoVlMZFbEeBWQkSgpLSE1NW18XUwmtMUl09pwpeDAgKp0daJ0d8OUm7m8140k3m3cZFi+m6udvvzECcpPnKCrqxOzyczmLVu57WP3IqenI2dkIsfEhE06MDDAqfKTHD92DI/XQ0pyCtaYGPx+PwMD/XR3dbGsrIzrN27CZDbx+K9+TVtrK7FxcRTNm4eiKHg8bsbGxvB6vCxeuoQ1a9Yyb/483G43zzz1NJ0dHcQnJBAVZWFkxE5Pdzd9/f08+OkHKVu+fPxMpSDMcbbhYSorK3n26Wfw+/0UFBYA4yfL/P4AsiSxYNFCli9fTmFREZIksePll6mtqcHj9mAwGFAUBZfLhcvlYsu2rZSVlZGZlRW2HNXnQ+nspPvcWU7t3RvWLWz58hXkFeQjS9KVM0cN/e/y20hhYRrhaqYHEhISsFgsoNFczqf4+LA6kqqqquKwE7x0CZSraSWdXfv27mPf3r20tDRhMUdx86238rG/+gyaRcVIM9yzwOl00t7WxttvvUVVVRW24WE0Gg2KomK1WimaV8Q9995Lbl4eQ0NDvPLSy1y8eJHhoSEkWUav1xMTG0NuTg5Ly8pYuWoV8fHxqKqK1+vl97/9HSdPnMA2MoJer0dRFJKTk1m7bi3bb7qJlNTUad1PBGEuGnM66ejo4NjRYwz09yPJEnqDAYvFQnp6OvPnzyczKwuj0RjaJi5VVVFZUUFtTS224WF0ej1p6eM3f1q5ahWxsbFX7FbZceQwR3fs4OUXXwBg1ao1bN68meLSUjSamaf5QOj1aBcVI1kskWPGA1dVFAiO97m91rzw3PM8/9xzXKqqIsZq5TOf+xxf+8bfQMRdvCapU28Z53bjdI4xMmLDZDIRHW0l2hqNwWBAoxlvT3K5XPj9/lBbrFajQZo4izp5VczU5bjdbkYdo4zYbIw6R4mOjiYuPh6r1Yperw/1khCEuW5yW5s8Imay5VKS0MgymskryiZ6DzFxMi0YCBCYOA8CjG93U7a1K20/LY2NvLlzJ4/99GcAbNu+nfvuv581a9egudbuFhaRG5NkAEmWkXS6a7KoGg2KJBGUJAKShKqRka7wYZj4w2q1WsxmM7FxcaSmpZJfUEBmVhaJiYmYzebQLRc1Gg1RUVHExsYSFxdHbGws0VYr0dHRmM1m9Ho9siyH/hFIkoTJZCIhMYGsnGzmzZtHVnY28fHxGI3j3V2utF6CMNdMbmtGoxGz2YzZbMZkNmMymdBP7NREBqhWq8VgNGKxWIiKiiIqKmratnYlqiyjyBqCE3mgyDKqRgMz5MYHXq7wOa6h/fD/ffJEE0FUVBQmkwmtLvwbVJKkUJ9AjUbznn9wIgLdGhOD2Wz+0NyLUxCED9acDlxBEIRriQhcQRCEWSICVxAEYZaIwBUEQZglInAFQRBmiQhcQRCEWSICVxAEYZaIwBUEQZglInAFQRBmiQhcQRCEWSICVxAEYZaIwBUEQZglInAFQRBmiQhcQRCEWSICVxAEYZaIwBUEQZglInAFQRBmiQhcQRCEWSICVxAEYZaIwBUEQZglkjr5rOJr1HPPPMtzzzxDVVUVVquVz33+If7mm9+MrDaNz+ejvb2d2uoaevt6URUFk9lMQkICRUXzSElNQVUUampr6e/tw+NxI8saTCYjlqgoklNSyMnJCT1SfVJHRwctzS20t7XhcDjQ6/Wkp6dTsriU5ORkjEZj2HoIwlw1OjpKa0sL+/ftp6enB1mS0Ov1mMxmEhMTycnNoaS0lPj4ePR6feTkAHR3dXHhwgVOlpezZds2Fi5cSGJiYmQ1AJqbm3lj5+v87NFHAdh+003c/8ADrL1u3YfmQa6aRx555JHIgdeSqsoqqior6e/vx2AwsKxsGavXrImsFqKqKoqicP7cOU6Wl1NZUYnDbmfEPkJ/fz9dnZ14PB6s0VaQ4NCBA1RcvEhnZyfOMSeDA4O0t7fT1tpGT3cPGo2M3mAIBWn5iRNUXLhAV2cndoeD/r4+uru76O3pISUlBUtUVFhAC8JcNTo6SkN9Pa/ueIXe7m5iYmMJBoO4XS4GBwdpb2vDZrOh1+uJiYkJPTYdIBgMMjo6yonjx3nn7bc5fOgQRUXzSE/PIDY2NnJRANhsNurr6jlZXg5AYWEhJaWlZGVnIcsfjoP1D8davg/BYBC3282rr7zKrnd24XK5WLxkMUuXLiUtLR2H3UHFhYt0d3fhdrtpbmqms6ODQMBPQkIiWp2Wnp4eDuzfz2M/+xlvvfUWLS0tBAIBVFWlrbUN28gI2TnZrF23joLCQgYGBvjtk7/hUtUlRkdHI1dJEOYmFZSggqIqLFu+nG/87d/y+S9+kdvvvIP8/DxaW1p46g9/ZP/efQwMDIQmUxQFl8tFXW0tx48eo+LCRfw+P4FgkGv8gPt/bM4Frsvloq6ujpbmZgoKC/j6N7/Blq1b2bJtG/d/8gEe/v/+gU8++CnmL1gQmiYpOZkVK1fy8U98nE//1V/x//3f/8vf/v3fs37DBg7s28+B/fvp6+tDVVXuvPsuvvTlL3P3vfdy/fXXc+/HP8ZNN92EXq+ntbWF/v7+sPURhLlOliSioiykpaeRk5vDsrIy7r7nHr75d39HZlYWlZWV7Nu7F0VRAPB4PDQ3N/PEfz9OQmIiW7ZtRW8wIE/s/c5lmkceeeQR1eUi2NiIMtCPMjBwTZW2c+fou3QJdWiAZI2GpdnZlOTmIlmjkeTph+5ul4vurm6OHD5MQkIi69dvID4hHrPZjNlsxmq1EhUdTVRUFA6Hg7NnziDLMoVFRSxbXobFYiE6OpqY2Bji4uK4dKmKgD+A1WolLy+PqKgooqOjsVgsGIzjTQ1dnV3s2b2bhQsXkV+QT3JKSuRqCcKc43K56O7u5vy582RlZ7Ph+g1otdpQO64lKoqhoUE6OjoYczrZtGkTQUWhsqKCfXv2otVqWbt2LSaTiVMnT7J85Upyc3OJjQtvUlC9XpSWFkabm+i9VEXnhfPEqQoLk5NZkJxEslYDQ4PTsuMDKzYbkiUKaYZ2ZUlxjqpKXx/BujpUpxO/243H48bn87+v3fsZv5umDZw24D1dOH+e8+fP09vXg8lo4vot29h2/31o5s1HTohHMprC6judTlpbWvjP//gBWq2Wm2+5hfkLFhAbF0v0RNBqtVokSaKxsZHHf/VrVFVl/YYN3Hn3XaH5qKqKy+Xiv/7jB3R3d7OopJivfu1r0xr/bTYbu95+hx98//t89etfY/OWLeQXFITVEYS5aHBgkDOnT/ObJ59kzdq1PPwP3wob7/V6KT9xgmeffgaHw8HPfvFzerq7OX7sGFWVldx8662UlS3n4sUL/Ou/fIe//spX2LRpE7l5uaF5qC4XyuAgwfo6etvbOX3qFG+8vhOA4uISVq5cRUFhAfJVnDe5Yvpc5Z51eK0p7yZeWiwWDAYDaHVo5s9DTkpGMpsv1wMkf12tqjQ2AhBsbGS4pZnOzk4GBwYIBoNhlUOmrKCEFLG+01ck9DZsurARU9+FjbON2LCNjODxejDo9Czdtp1Vd90NgGbxEjSZmVNqj7cPBYNBvvfd73Jw/wG8Xi8rV62iuKSE4pJiFhUXEx0djVarpamp6YqBy8Shzx//8AfOnDpNfEIC//rdfxv/hU4EMsCF8xd48/XXeWXHDv7rxz9i9erVWKKiwuYjCHPRewWu3+8PNR20NDfz7z/4D55/9llsw8OUlJZy78c/TnR0NLt37eLfHvlX/vpLX2LjDZvIy8uDibwItrYSrL4EQG9v70TgvgZARnomefkFJKckI0vy5dyYmjNhcRQZSJM/p42ZGByRS2Hvw5chSRLzFywgKTk5NFy7cBGa/PzQe5ghcHtqa6irq6Wzqwt/wB9WeSYzr+oVXGXVqdX8gQABfwBFVa4qcFVVRVVVGurrqayopOpSFUODgwwPDeH3+4mNjeP2O+6gbMVy3G73ewbuC889z7Fjx4iOjuZ73//3UOAGAgGGh4f50x/+SMXFi8xfsID7P/kAOTk5opeC8JFwNYFbXV3N7578Da0tLXz7ke/w85/+jMGBAQqKCklJSUGj0dLa0sLRI0dYumwZN9x4I+s3rKewqAhZlsMCd7Cmmuryco4dPwqAwWDAZDSNH3VeYS915qERrlgpInDD3k0hgSTJrL9u/fiXhUaLnJmJdsnSaYE77aSZV5YZlDR0eL20u93vWdrcrqsvrqsrrVNKl89Hn6owAPgiV3YGkiQhyzIFhYVct2E9N99yC1u2buX6TZvIycmlu7ubfXv30lBfHznpNKqq4hxzAmCecmgQCAQYHhpi965ddHS0k5mVyU0330xycrIIW0GYoAQVBvr78fl8REVHExMTQ+nixSxeuoSsrCz0+vE+7pIsI0kSkiyN/7xCtEk+H6rXixtwAyNeLz32EdoG+mnr75uxtF5N6btS6Q0rLVcqvX209PbhtNlgdBScTlBmbh2YFrgBWYNLr8chydiRrqkSiFzZGaiqSjAYRKPRkJaWxurVq7nzrrt46KGH+MT99zF//nwqKipoaW6Gd2mjDgQCuFwuujq7kCWJ9PS08W/cYJChwUEqKyrZv3cfUVHRbNy0iWVly7BYLJGzEYSPpEAgwOiog9qaWvx+Pzk5OaSlpXHLrbdy1z33cP2mTVy/aSPXb9pIcXExer2ewsJCCgoLSEhKnHY4P8kP03LhWigOJN67PWCGwDX4vCQ67OQoAXJRr6kSfnpsZpP9cCPbn7U6HSmpqSwtW4ZWo8Hvf/eTgmNOJ00NDVRfuoTJZKJk8WJkWcbtdlN+opw//O53JCYksP2m7Vy/cWPk5ILwkTY6OkptbS179+xBq9WyZt06TCYTRfOKWLp0aVjJzctFp9ORkZlJRkbmFS98ADDDtFz44ItCDkGuZncrrA1XHR1ldHiYoaEhRp2j00Jr6h7h5ZfhoXV5sBoxZsLUeYSNCJt4/KWq0tzcTHNzMyMjNkxGExu2bGXLnXfCFdpwh4aGuHD+PH19fSQlJrGweBEJCQn4fD4qL15k52uv0dPTy9333sPixYt5/Nf/jdfrZfmK5WzZuhWPx0NfXz91tTWcLD+J0+lky7at3HrbbcTHx/PSiy9yqvwkbrebLVu3MH/BAhImLkWUZRmL2YxZ7OkKHwGTbbiP//rXpKSmcuttt+Hz+3DYHXR2dtLU2IgsS9xw42Zu3LyZtPS0Gfdcd73zzpV7KTidKP39BJsa6W+o58LJk+zduweA5OQUMjMyiU+IR5Kk8DyJzJnI91d4My2TuDztu+2gASxesoT09HQkSYboaLQlpdPacKVAT4+qdLSjDg7CxOF4IBBAUZTpC5ghcK+witOnnXSlDz5lwNR5lp8o52T5Cbq6OjGbzGzespXb7r0HKTERTU4ucnz85emBgYEByk+coPzECZSgQmZWFrFxsQT8fnp6emhuaqKkdDEbN20kKiqaJx9/nK6uLpKSk1iwcCHBQAC73cHw0BAjIyOULS/juvXrKS4pAeCf/+nbnD1zhqSkJFauWoXZMt62KyFhMhlZvGRJqK4gzGW2YRtVlZU8+8wz+P1+8gsKUJQgbrcHj9uNqqosW17GqtWrKSoqgolzLJGOHjnCLx77OZ+4/35WrVpFRmZG2HjV6yHY3ExPRQWnDhwIdQtbsGAhy5aVkZeXh6SJOFifDMnI11OFDVAnqr1bPl1hPhOSk5OJjo4GWUZKTEKTk42cdLnXAkzcvEYZGSFw/vwVG3o/SAcPHOTggf20trZgMVvYtv0m7vr0g2iXLkOa6DEw1djYGJ0dHbz5+uucPXuOrs5OvD4f2ok23WXLl3Pvxz9GTk4Ofb19vPj885w/f57BoUE0sozZbCYuLo78ggJWrV7NsrIyYmNjQ/9Q/vU73+HEiRORi0VCIi4ujo/f9wnuvueeyNGCMOeMjY3R1dlJ+YlyBgYGkCQJo8FAVHQ0mVmZLFo0fnSpu8KNayY11Nezb98+Vq1aTV5+HnFxcZFVAOg8sJ/jL7/Mq6/sAGDFipVs2nQDi4qLkSMD9wMk6Q1oli1DnqF7qKSqqqoGAqhud+S4a8LLL77Eyy++SHX1JazRVj71mU/z5a99DUwmpBluWKEEg/j8fhx2Oy6XC4/Xi8ftQafXYTIasVgsxMTGotfrCQQCjNhsuNxuAoEA0kSzgEarxaDXY7ZYMJlMYTfd6OnpYWxsLHKxSIBGoyE2Lu5d26AEYa6Y3NZcY2MEAoHx3Q5ZQiPL6PR6jEZj6CKjd+PxeHCOjmK2WNDr9Ve881dLbS3vvPYav/rlLwHYsmUr9378Y6xavRrNFab5IEiSNJ5PM/RYmrO3Z2SiWUNVVQKBABqNBnmi+4kgCB8+c+H2jNN3EeeQyT65er0+bC9VEAThgzCnA1cQBOFaIgJXEARhlojAFQRBmCUicAVBEGaJCFxBEIRZIgJXEARhlojAFQRBmCUicAVBEGaJCFxBEIRZIgJXEARhlojAFQRBmCUicAVBEGaJCFxBEIRZIgJXEARhlojAFQRBmCUicAVBEGaJCFxBEIRZIgJXEARhlojAFQThiiafC6goCoFAAL/fTzAYZOqjECfrTJZIkeMnSzAYJBAIEAgEUBRlxmnnGhG4giC8K1VVcTgc9HR309LSwvDwMF6vNzTe7/fj8/kmntw73eSDXD0eD8FgEIBAIIDNZqOjvZ2Ojg7sdnto3Fw2Z5/a63a5aG9vp76+nuGhYVRVwWAwEBMbS0FBAWlpaSBJ1NfV0d/Xj9vjRiPLGIxGTCYTiYmJZGVlYYmKmvGJoH6/n56eHgYHBjAajSwqLo6sIggfaoFAgL7eXna9s4v+vj7cHjcAkiRTUFjA4sVLWLxkMceOHqWnp4eoqCg23XADJpMpbD7dXV3U1dVRcbGCW267FafTybEjRxgeHiYYCIIEWq2WktJSli5dSm5e3sRywh/6Kp7aew2aPFSpqanhyOEjHDpwkNOnT3P61CmOHz8+/v7UKXp7e3E4HJwsL2fP7t0c2L+f06dPc+rkSY4dPcrBAwc4fOgQzU1NjDocofn7/X6Gh4dpqK/n6OEjHDxwgEuXLoWtg/D+BYNB7HY7AwMD2Gy2yNEfqKmHvx+VQ18m/iY22winTp6ktraWvt4+hoaGqaqsYN+evRw5fBiPx0NbaxtHDx9h19vv4BwdRVGUsPm0tbZx9MhRDh7Yz8DAAF0dHZw6eZLm5mYGBgbo7urm3NlzvPH661RUVODxeMKmn0vmXOAqioLX4+XZZ57lzTfeAODmW27m1ttvZ/Hixfj9fk6ePElLS0voH8vg4CAWSxQLFy4kOTmZEdsIu95+h3/6x/8fL77wAk1NTaH5jzmdVFy8yHPPPsvvfvtbjh87zkD/wJQ1EP4cPp+P+vp6Tp48ec19gSmKgt/vZ2xsDL/fHzl6TouJjeGmW27m29/5Fx775S/44Y9/xN/+/d+jN+g5euQIQ0NDFBQUYLZYqK+vw+5wTGta6OjooKe7mxUrVxEXG0tOXh4fu+8+fvyTn/DTnz/G9/7j+/z1l79EW2sbF85foL+/f85+qWkeeeSRRyIHXkuqKquoqqykv78fg8HAsrJlrF6zJrJayJjTSUNjA7vefofsnGw++9DnmDd/PhmZmeTl5VFSupiFixZRUFhIIBDg7Jkz6HQ6lixZwpZtWykqKqJ08WIK583DYjZz8eJFQCIjI4Po6GjcbjcDAwPje8h2B3q9nqzsbFauWhW5Kh8aXV1dfO973+OZZ57h9OnT+P1+EhMTMRqNoTqjo6O89dZb/OpXv0Kv1xMdHY3FYgmbz//E6Ogob7zxBvv27WNkZIRNmzZFVnlPly5dYseOHfzqV7/ixIkTeL1e5s2bF1Zncm91165d/PCHP+Sll17CbrdjNptJSEgI1RsdHaW+vp7f//73/PrXv+bJJ5/kueee4+WXX2bv3r3U1NSgKApms5muri7+7d/+jerqagCysrKmLHE8sJ1OJy+99BJ/+MMf8Pl8xMbGEhUVFVbvWiPLMkajkaTkZBITE9Hr9UiShKKqVFZUYB+xs3nLFuITEsabDWpqyc7JIT4hgejoaBRFwe1ys3//fpqamrjtjjvIzy8gMSmR1NRUYmJj0Wq1400HKuzfv4+09HSWLFlKbGzstCYFm81GfV09J8vLASgsLKSktJSs7Cxk+cOx76h55JFHHlE9HpSODlSb7ZorLefP03XpEv7BARK0Wpbm5bO4qAjJbEaa4Zfsdrno6uzk8KFDJCUmsenGG0hKSiI6OhprTAyJiYnEJ8QTFRWF3W7n7JkzaDQa5s2fz8pVK4mZqJOQkECMNYZz587h9/uJjYsjLy8PJAmNRoNOp8dhHyGoKKSkpH6oA7enp4ef/OQnnDlzhs7OTlwuF0uWLCE2Njb0D9npdLJnzx5eeeUViouLycrKIjY2NnJWfzan08nevXupqKjAaDRy++23R1Z5T7W1tezevZs333yTpqYmLBYLZWVl6HS6sA2yra2NN954g+eee47q6mrS09MpKCggMzMTJr6AysvLef755zl9+jTDw8MYjUaioqIIBoMMDQ3R1NSE3W4nKSkJn8/Ho48+it/vJysri+KI9nxVVXG5XLz22mvs2bOHrKws8vPziYuLC6t3rZEkCa1WS1RU1PiXxqiTnp4eqiqr6O7uIik5mY2bNhITE0NfXy+tLa2ASnZ2NskpKQQCAVpbWikvL8ftdvPx+z5BXHwcFosFk8lEIBBgZGSEttY2LlVV0dfbS2npYhYvXYLZbA4FbkANYGOIHkc3te01nKs5A2aVrPlZ5BbnEpsRg1tyM3aN/OfGjR49sqSJ/JWi+c4//uMjyuAgwZpqlM5O/B3tuNtacLU0425txd02Xjx/TmmPHNb2vkt/xUWcLU0YHSOkSRKLUlMoyMhAjrGCToekCf9Q/kAA19gYp0+dxufzER0djcFgIBAIEAwG0cgyOr0erVbL8PAwZ8+cASA7J4cFCxeE5mMymUhMSqKutpahoSFAZeWqVZhMJuLi4khIHP9WH3WMEhcf/6EO3P7+fv74xz8yOjqK0+mkq6uLdevWkZKSgsFgAMDlcnHixAmOHz/OddddR0FBQVhgqBNdh/x+f6gNb3KDidxTYYb6breb8vJyOjo6SEpKmjFwg8EgwWAQv9+PJEmhMqmxsZEzZ85QWVmJzWYjJiaGhQsXhvbOJrsj7d+/n4MHD1JbW4vD4WDJkiWUlJSQlZVFIBDg2LFjvPjii7z00ktkZGRw/fXXc8cdd3DDDTewYMECzGYzvb29dHV1UVBQQHR0NE899RRxcXEUFxezePHisPWeDNx9+/ZRUVHBkiVLWLRoEfHx8WH1rmU2m43m5mbOnj7D/n37sFgsrFm7hqXLlqHVanHY7QwODNJQ38CCBQvJzsnB7/dTfvwETU1NJCQkcPsdt6PT6ZAkabyXwvAwNdXVnDh+jCOHD5OXX8CatWtCRyWSJBFQA4zhpJsuOsZaqe+vobqrEmIV4vNjicmxosQEGfT10e/rnShTX//Py4C/lwHfZOm7YnFIIzg0I4ziwEwUOrTTQlcKNDaqweYm8PsJtrYw3NpKZ0cng4MDBIKTbTES4dvMlDdS2Lsw4xvD5bFhG17ERFLkgIkqQ8NDDA0P4/a4MeoNLNu6jbV33wM6HZriYjRp6WHTBIPB8T2OH/2Iw4cPM+Yco6S0lPkLFrCoeBHFJSWhDbCxsZHHf/VrVFVl/YYN3Hn3XWHz8ng8/PH3v+fsmTMkJCTynX/711AA2Ww2Xnz+eerr6skvKOCrX/9a2LQfJtXV1dxzzz0kJiaiqio1NTV86Utf4mMf+xjLly8HYHBwkF/84hc8/vjjfPvb3+amm24a3+OfMBmafX19GAwGoqKisFqtEPl3nxAIBHC5XAwNDaHRaFBVlV/96lccP36chQsX8t///d+RkzA2NobdbmdsbIyUlBRMJhM6nS40ft++fTz11FMcOHAAs9lMTk4OK1as4Ktf/SppaWmhkH/44Yeprq7G5/Nx4sQJHnroIR588EHWrFnDwMAAP/zhD3n11VcpLCzkW9/6FmVlZRiNRmRZHj9H4PUyPDzMwYMHKS0txefzcd9997FkyRI+9alP8alPfSpsvRVFYXh4mP/3//4fO3fu5Itf/CIf//jHKSwsDKt3Lbtw/gIH9u1jz549BINBNt2wiZtuvpllZWUwcdRw+OAhfv2rX/GNb36TO+66k0AgwE9//GNGnU4WL1nC/Q88gCzLSJLE2NgYlRcreO3VV7lw4QKyLHPvxz/G9ddfT8HE70WSJIbUQXroIkiA6r5Kjpw7wJ633gEgNT2drJwcEpMSQ0e70mQezfBvjqk5I82UOJdzKTQuLLMmp5k+TJKgcN48EpOS0KIlg2yyySNRSrpcF9D889e++og6OAiAOjiEvbubzvY2urs6sY/YGHXYGXXYcdrtjL7P4rCPhJXRkREcVyy2acVut+FyOgn6fciqil7WkF5QSMaCBRAMIienIE9s1JOkiUP+uLg40tLSiY2NRVVVurq7qaqo5Mzp06iqitliCbXhMsMeLhOhUFtTQ2dnJ1qdjhs3bw51P/F4PFRfusTQ0NCHfg93YGCA559/nszMTHJycjCZTHR0dJCens6iRYuQZRm3283p06c5e/Ys119/PYWFhcTFxREIBEJtp7/5zW/YuXMnu3bt4vDhw9TW1hIbG4vJZMJgMKCqKn6/n9OnT/Pss8/yu9/9jjfffJM9e/Zw8OBBKisrGR4eJjs7O7SH63a7aW5u5qmnnuLZZ59lx44dvPPOO+zevZv29nY0Gk2oKaClpYXKykra2tpYvXo1FouFixcvsmHDBuLj4/F6vbS0tPDss89isVhYvnw5Z86cYfHixSxevJikpCR2797Nrl27CAQCfP3rX2fFihWhL2itVotOpws1LyQlJZGamsrg4CAvvfQSqampoXlNpaoqbrebw4cPU1dXx/LlyykuLv5Q7eHqdFqSkpOZP38+efn59PT00N7WxvwFC8Z/JwYjfr+fQwcPkpaePh6CksSLzz9PcnIK163fQFpaWqhpR5IkjCYjaelpzJs3j8ysTC6cPw9AWno6FotlPJhx4mAEgH5XL229LbS0NCHJEAj6GXU6GBjoo6enm56eLnq6uy7/nKF0h0on3T2d4z/frXR10t3VNf6zu5Ourk66ujomyvjr7omSkpFKfNL4eYAoooghDosU3k4/rRHUK0kMqyo9bjfdLleodIWVsasrY+Glc8z5/orTSZ/Xy7CiMAJczflhSZKQZZnikhK2btvKbXfcwfoNGyguLsZoNHKp6hJ79+yhsaER3utM6MSGgiRhMpkjx845RqORwsJCbrrpJvr6+qisrKS1tfWKZ4w9Hg9dXV2hkK2vr0dVVXw+H83Nzbz11lu8/PLLNDQ0hJp0qqqqePvtt3n99ddpbGxkbGwMt9tNf38/g4ODoS5Bk3ujDQ0NvPXWW+zdu5fOzk4URUGn09HV1cW+fft466236OrqCuuID7B48WIKCgro7OykqqqKgYEBhoeHOXLkCMFgkJycHIqKisL6b/p8Ps6fP8/g4CAZGRls2rSJhISEaSdkJElCr9eTm5sbdqJtLktITKR08WK233wTW7dvQ5Y1XLx4kfb2dtxuN2azmdS0VHJycxgcGKCqopL2tjZGHaPEJySQk5sTdqSj0+lISUlh1erVbL/5Jq7fuImB/gFqa2rp7uq64r85NQDKqIQyKuEe8DLcZqOnvo+e+t5Q6a57t9JzudReuXSFle7xUhNZuuiq6aKzpovOmm7cjvF+yu9mWuD6tDpGzBb6ZA09SNdU8UWu7AzUibPQkiSRkJhI2fIy7rz7Lr729a/z+S98gaVLl3Lh3HmaGhuY+U86TlEUvD4fPd09SJJEamrqtA1vLsrMzOTWW28lLi6O6upqjh07hnKFvqc2m41Tp07x9NNP43K5+PSnP81Pf/pTfvzjH/Pggw+i1+t5/PHHOX78OE6nE6/Xy86dO9m9ezder5cvfvGLfPe73+Xf//3f+epXv0peXl5Yzwiv18uBAwd46qmnMBgMfPGLX+QXv/gFv/rVr3j44YeRJIl33nmHkydP4pjSVxqgoKCA4uJirFYrR48epbGxkd7eXl5//XVycnIoKSnBYrGE/U2DwSDd3d0AZGRkhLVhfxRNfumpUy7Z1Wg0pKenk5AQjxIM0tHejsfjQZIlLJYoli4rY3R0lDOnT1NxsYIoq5X0jAwSEhKQJAlVUcbLlHmaTCbSM9KJi4vD43bT19s34783AHwS6pB8DRYNqnfGRoow0xLE4POSOOogWwmSi3pNlfDrV2bm9/uxDdvwer1hfzRJloiNj2PBooXoDYbxEztX+qMCdrudqspKKisrsZgtLFm29CMRuEajkdTUVDZt2hQ60eN0Ome87LK9vZ0dO3ZgMBjYvHkzd999NykpKWRmZrJ582YeeughNBoN586do7y8nL6+Po4dO4bJZOITn/gEt9xyC8XFxRQWFrJ06VLmzZtHTEwMTHzhnT9/noqKCrRaLX/3d3/H2rVrSUhIIDY2lg0bNrB69WqioqI4dOgQIyPjh52TZFkmJyeHjRs3cvbsWc6ePUt9fT0nTpygtLSUkpKSsPpMLLOvrw9Jkq75HgSzwefz4RpzEQxcvneCoijY7XbsDgfBoEJCQkKoHd1sNlG2vAyv18PZs2c5ffoUubm5pKenhebp9nhwT7nEl4lt1uFwYLPZkGWZmNjxfwMzMqrIacFrsASQTFfOk0lh18NJCQnEL1hASUICOUuXEgwGr7wXqKoT42aoMTHo8piZ60ROPz3/VNrb2mhra8Nut+OTNTildw89p9PJpUtV9PX2ERMbQ0FBAbGxcfj9PpqbmqivqyMlNYWExPE2JibaCQcG+mluasLr8zE8NExTYyPnzp7FarVSumQxRUVFSBNnV30+H/aREdxuN16fF7fbjc1mw2AwhNr6PqxkWcZisbB161ZaWlpobGzkyJEjFBQURFZlZGQk1K0qPz+fpKTxEwSSJJGWlsaiRYuIi4tjcHCQuro6TCYT/f39LFiwgJUrV5KUlBT6XUVFRWE2m0PvFUWhtbWVvr4+xsbGqKmpoaurK+xLr6OjA6fTSXNz83jTT4SsrCw2btzI/v372bNnD6mpqaSkpFBUVERKSgrt7e2Rk4SCQBPR++WjyDZso6G+nrq6uvEvurjxboA1NTV0dnSMd28rKMBsHm9uMxiNFM2bhzUmBvvICC3NLWzcuIm09Msntvv7+qitqaWjo4OMzEwsFjMOxyh1tbX4fT6ysrPIzrnc/GDBQhIpDDOIKWjG7I1CdY7/G0hJTSUrO4uEhIlteUqAhEVJ6E14wKiEh870+IkY9y7zkYDCxPkkkIyMhCY8WkO0ktmMFBODarcjx8VhjY0luqBwIhCnrULI1EOCaSaGX2EsTEw/9Wfk60nuY8doGB5h0O7ALGtwSTJoNEhWK9IMh3uBiZtinDp5ElmjoaO9nbi4eAIBP+1t7XR3d7Ns2TLy8vKQZRm9Xs/Q0CBNTU3oDQZ8Ph9Dg0P0dHcz0N/P+o3Xs2LlSpKTk2HiTHlnRyc11dX09PTgcDjo7e3l9KnT5OTkkJqWGtpL+7DS6XQsW7aMRYsW0djYyGuvvcb9998/flQwQZ1o3+7v72fx4sXTOqrr9XpiYmKIi4vD7XbT3d1NUlISXq+XhIQEsrKywupHUlWV/v5+nE4nHo+H06dPh/VIYOJk32SfzpmOPhISEli6dCkZGRnU1NTQ29vLxo0bycnJCYXEVJIkYbFYGJn4Mn0/Jpc/079hIobPtK7XIr/fz+DQIKdOnSImxjrxN5ZpamoiNiaGFatWkp6eHvo7arVakpOTKSwsorWlFUVRKJo3j8TExNA8fT4f7e3tnDxxgvSMDMwWC2NOJx0dHcxfMJ/Fi5eQmpIamqdZsqBVdfjxExWMweixoI6M//6Sc9NZXrSGefPnj/9OQzuBU8wQklfKnOnTTsmxK+XhlOlTElKIxoqEhAkzevRhVQFkOSMTzcKFMOUfgSRJSPL4yacrFY1Gg1arnbnodGh1OnTvUvR6PXq9HoPBECpGo3Fa0er00y9wMJvRLitDmvKHnBQVFUXp4sXk5ObS39fHU3/6E//6ne/wkx/9ePyM9JIl3H3PPZSUlKDV6YiLj8Pr9XHxwgVeeuEF9u7eQ0d7OwUFBfzdt77Fg5/+NIsWLQrNf2hwiMOHDvHkE09w8cJF+vv6qaqs5BePPcbxY8cY6O8PW58PI0mSsFqtlJWVUVRUxCuvvEJLSws+X3grut/vx+l0hv6mkSRJwmw2h74Eh4eHCQQCGAyG0FnodzM6OorX68VgMJCQkEBiYmJYWbJkCVu2bGHz5s0zNgFotVri4+PZsGEDcXFx6HQ67rnnntCXZyRZlklJSUFRlIm+11dHmrhAQJ1o85yJoigoihKq+2EI3ZTUFFavWcNtt99GZlYWPp8Pj8fNuuvW8dnPP8THP/GJaX9DSZLYsGEDn/mrv+K++++naF5R2BWJOTk5bLh+A1tv2k5UVBQulwuzxcL2m27ib/72b7luw3okOXyeOnRkk4tVCt+RMZtMJCUmkZmZSVZWFlnZ2WRHlpzJkhMqObm5oZKblxcqeZElP5+8/Hzy8/PJL8inoKBgeiksDJWo6GgANGjIJJsYpl8YJKmqqqp+P+rIyEwZ/4F7dccrvLJjB7U1NURHW7n/k5/kC1/5MlJsDJI8/bAvGAzi9XoZGBjAYbfjcrvx+3xoNBpMJhMxsbGkpqRgMBrxer309vYy6nDg8/mRJNBotOj1OiyWKGLjYrFYLGFNBG6Xm4HBAfr7+sKWK01srHFx41fSfJhM9sNdvHgx9913H/feey9MHLK//fbb/J//83+4++676evr48KFC3z7299m+/btXLp0iW984xusXr2az3zmM9xyyy2heaqqSktLCw8++CDR0dGsWLGChQsX8t3vfpfNmzfz8MMPk5ubGzp0HxgY4Mc//jHHjh1j4cKFPPbYYzzxxBO8/PLLeDweHnvsMaxW64wbuF6vJykpiWPHjvH0009z8OBBfvzjH3PXXXfh9XqpqKjg0KFDBINBPv/5z2O1WrHb7Rw6dIgvfelLfOITn+DBBx+ktLSUxx57jNdee42oqCh+8YtfkJWV9Z6X4J46dYqvfe1rWK1WPvGJT/ClL30pbHwgEKCtrY3//M//5PDhw/zjP/4jN954Y6g727VKURT8Ph92hwO3y4XP7wdVxWQ2ExMTQ1RU1LS/B4BzdBSXy01QCZKQkIBef3lPTwkGcbndjI6O4na5CQYDyBoNZpOJuPh4DAbDjPMEqG2p4fW3X+PXv/wVAJu3bOHej32MVWtWX1NNQDISJixoZrjSTAaQdDrkpCTkpORrrviirYzq9NhkDSMaDd4oC3J8/Ixhy0Tb22Sn99LFi1m9ejXrN2xg7bp1LJ1oSjCZzciyjMlkIi8vj8VLlrBi5QqWr1jB0mVLWVRcTE5uDjExMdPaY01mE9nZ2axYuTKsLF++nMzMzA9d2L6blJQUSkpKWLp0KXV1daF7BTARdFFRUeTm5tLd3U1fXx9+vz90iDZ5xdrw8DBWq5W8vDzS09MxGAwMDAzQ0tIS2htUJm5u7XQ6QzeHkWU5dPmwx+PB7XaTlJREYWFhqExejnulJgUmmkfmzZvH9u3b2b59e9hJnkh6vZ5Vq1aRmZlJT08PO3bsoL29fcY9+8keGu3t7ZhMJnJycrDb7XR3dzMaccesYDBIfX09/f39GI3G0Dpf6+SJ25UmJyeTk5tLUVERRfPmkZmZSXR09BWDMSo6muSUZNLS0sLCFkDWaIiKiiItLY38gnyK5s0bv11qejpGo/GK8wTQqwYMPhOSU0Zyyug8esxBC9FYsUox10yJkqwzhi0z9VIQhEl6vZ6srCzuuusuRkdH6ejoCBufkJBAWVkZ/f39VFdX09TUxNDQEAMDA9TV1VFeXo7L5SIrK4tFixaRnZ1NYmIi3d3dHDt2jI6ODrq7u0P3LZ48CcbExl5UVER2djYul4s33niDioqK8XsQDw7S399PW1sbtbW1VFVVMTY2FrZuk2RZJiYmhtKJe61KEZcDT6XX61m9ejVlZWXIssyzzz7L0aNHqauro7u7m/7+frq7u2loaODkyZPs2LGD6upqoqKiKCsrw+PxUFNTw8WLF+nq6qK/v5/e3l5aW1s5fPgwvb29pKSkkJubO2MbsjD3zbm7hQnv3+SVZpN7tFPbrA0GAzk5ORw7dozW1lbMZnPoSrO0tDRSUlI4cuQIlZWV1NXV4fP5qKioYOfOnezYsYO4uDg+/vGPc8MNN2CxWGhpaaG6uprTp0/T399PRUUFb7/9Nn/605+4ePEiXq+X+fPnc/vttxMbGxvqhfDmm2/S3t5OZ2cnnZ2dnDlzhhdeeIE33niDrq4uSktLcTgcoYs1tm/fzoIF4VcOTuVyuUI3sZm8/0F2dnbovEIwGOTgwYNcuHCByspKOjo6aGho4MCBAzz//PP85je/oaenh9LSUlavXk1OTg7l5eXj91Q+dYqhoSFaWlo4deoUL7/8Mm+88QaxsbHceuut3Hjjje966CzMbM7cLSxy4LVEBO5f3ujoKOfPnw9dLJCfnx8aN9n0Mjw8jEajIT4+nvXr15Obm0tcXBxRUVGhw/Te3l4aGhpoaWnB7XZTWFjIgw8+yLp160hMTAxNr9PpcDgcdHV10dMzfmFJQUEB+fn5pKamsmDBAq6//no0Gg1Wq5X09HRMJhPBYJCuiacHTJ7Ey8rKYv369SxcuDDUayIQCHDDDTeE3eshks/nw2azUVdXR1lZGcXFxaSlpSFNnOhLTU0lPz8frVaLy+Wit7eX+vp6ent7kWWZ+fPnc8cdd7B27VpSUlIwm83ExcURHR2N3W6nv7+fhoYG2tracLvdLFq0iNtuu42tW7eSkpLyoQmIa4kI3FkgAvcvb7K9ceHCheTn54ddrjp5Vt1kMpGWlkZeXh5LliwhOTkZs9mMwWAgOzub2NhYjEYjOp2O5ORkFi5cyIYNG9iyZQvJycnIEzctSU5OJi4ujpiYGCwWC+np6ZSWlrJ+/XpKS0vJz8+nqKgo1O/XarWSmZlJSkpK6ERNVFQUqamplJSUsGrVKlauXBm6ksloNJKWlsaSJUve9V4FqqqG6i9ZsoScnJzQzXZMJhNJSUkUFRURGxtLfHw8sbGxxMbGkp2dzZIlS9i4cSMbN24kMzMz1EsjPT2dlJSU8VuBWq3ExMSQmprKokWLuOGGG1i3bh0FBQXv2qwhXNlcCNw5+0wzQRDmFvFMM0EQBOGqicAVBEGYJSJwBUEQZokIXEEQhFkiAlcQBGGWiMAVBEGYJSJwBWGiX+5kEYS/FBG4gjBBhK3wlyYCV5g1k3uQJ06c4LHHHuO3v/0tbW1tkdVgoq7T6WT37t08+uijHDlyZNo9atva2njrrbf4wQ9+cMX5vBun08nx48f5+c9/zre+9S2+8pWv8M///M/s2LHjXR+eKQh/LhG4wqzr7OzkwIEDPPPMMzQ1NREIBCKroCgK7e3t7N+/n507dzI0NITf78fn8zE8PExraytHjhzh5Zdf5sUXX6T/fd743W63c+nSJZ5//nl27drF2bNnqaur4+jRo6EHXdpsttDtIgXhf4MIXGHWTN5DICYmBqPRyNGjR2ltbQ3dknEqRVGoqKigoqICu91OQUEB0dHROBwOamtr2b9/Py+//DK7du0K3Yv3/WhrawvdpQzgtttu42tf+xqLFy/mwoUL/PGPf6S2tvaKt30UhD+HCFxh1uXm5rJs2TIkSaK2tpbm5ubIKiiKwsWLF3E6nRQVFZE+cYPqyadQvPLKK9TU1OD1eiMnvSqNjY2cOnWKgoICPv7xj/PJT36SG2+8kW984xts3LgRt9vN22+/zcDAQOSkgvBnE4ErzLqUlBQWLFhAXFwcDQ0NNDY2ho2ffGx2bW0tGo2GxYsXYzKZ0Gg0JCcnc91113HvvfeyadMmcnNzw6Z9L6qq4vP56OzspKWlhQULFlBUVERaWhrx8fHk5eVRVDT+HK4jR45gs9kiZyEIfzYRuMKss1qtZGVlUVhYSFdXF42NjWGP53G5XLS0tNDe3k5sbCxlZWWhu0FlZGRw00038dnPfpbNmzeTnZ0dMff35nK5GBoawm63k5+fH3pWmiRJoVCPjY2luroap9MpTp4J/2tE4AofiNjYWNavX8/o6CjNzc04nc7QfXmHh4c5fvw4DoeD7Oxsli1b9r96+z2n04nL5UKn05GUlDTt+WJRUVFYLBaGh4fx+XwicIX/NSJwhVknTTyGfcOGDcTHx9Pd3c358+fxeDwADA4Ocvz48dAhfmxs7P/qDbvHxsbweDyhG5BHPvFVp9Oh1+tRFAW32z3tIZJzVTAYxOl00t7WRlVVFdXV1XR1duH3+VGV8S+dYDDI0OAQfb1905pbFEXB6/FiG7Zht9tRVZVAIMDIyAg9PT2h59E5nU4CgcBH8otsTgfu2NgYrS0tHNi/n1d27OD5Z5/lxeefZ/c7u6iqrGJwcBCXy8WJ4yfYvWsXZ8+cCW30TOk32tjYyO53dvH6ztfp6uoiEAjgcDjYt3cvr+/cyRuvv87bb73Fvr17OVleTkN9PS6Xi2AwGLY+wmUWi4XS0lLS0tIYGRnhzJkzuN1uvF5v6HHs2dnZ5Obm/q8//8vv9xMMBkNNCJHzlmUZWZZRVZVgMBj2BN65RlVV/H4/He0dHNh/gBeee55XX3mFXW+/zZs7X+eF55/nheef5+LFC4zYbHg8Hvbs3s1zzz7LOxMnFSe/kPx+Pz29PRw5fJgzp0+H+lKfLC/n2aef4cUXXuC5Z57l6T/9iaf/9BQ7X32NC+cvMDg4GLlac9acDVyXy0VLczOHDx3mtVde5YXnnufZZ57h2Wee5aUXX+TQwYPU19UzOjrKzldf5cknnmDnzp2M2GxhQel2uzlZXs6TTzzBL3/+cxoaGgj4AwwPD/OnP/yRP/zu97z4/Au8uuMVXt+5k7fefJODBw5QXV3N8PDw++6u9FGh1+vJyMggLy+PYDDImTNnGBsbw2az0dHRQVtbGwsWLHjX55L9uTQaTeiRLDPtZU1+0UqSFHo00FwVCASw2WwcP3aMV15+mR0vvcSJ4yeoranh4sUL7Nu7l6f+9CeOHztGb28vbrebV199ld88+SQvvfACVZWVOEfHu/X5/X46OzrZtWsXR48cQVVVRkdHOXjgIH/43e/Yu2s3u955h1d2vMIzTz3FM08/zdtvvUXlxQqcTudHYgdlzgZu9aVLvPTCizz91FMkJiXxifvv4+8ffpi//tJfU1BQQGtLCyeOHyfgD9Db20ttdQ3nz52npaUF5+goTBw+NTc1UVNdTX19Pa0tLbicY6G9gs7ODuLj41l33XVs2bqVkpIS3G4377z9Dv/8T//Evr17Rbei91BcXEx8fDxVVVUMDw9TU1NDdXU1Wq029CTd/20WiwWTyTR+COz1TtvQ/X4/fr8fWZZDz22bq4aHhjl98hTPPPUUJpOJr33jb3j0sZ/x7//xH/znD3/I977/fe65916s1hhGJ7YLJtrgVRVeeXkH/f19YfOcSX5+Pv/2ve/x81/+gl/++td859/+jVWrV3Pm9Gn+9Mc/curkyRn7Y881cy5wg8Egbrebw4cO0dvby5o1a9i2fTurV6+mZPFiypYv59bbb+OW225j+YrlSJJEMBgkJjaW9PR0Tp86RXdPD0x8+48f6nrIL8gnGAxe3iNSVQL+AEnJyZSWlrJm7Vo23XAD937sY9x+5x1YzBYOHzrEiePHw6cTYMpFECUlJeTn52O326msrOTEiRO0t7ezcOFCMjMziYqKipz0fyw6Ojr0FOChoaGwZiQmmqKcTicxMTHodLo5vYfb1tbKvj17SExKYsWqlSxfsYKUlBSSkv//7N13fCPXeej93ww6SIK9dy65ldt7b9qi3mXLtiQXOYmLothxfHPzusi5yc11nDiOndiOLctdcpHV+0q72t4re+8FbACJXmbm/QMklgC5q5Ut02vqfD/7LIGZMwcDkPPgzDlngCxycnOpqKhgxw07Wb9hPcWTpuBVVFRQXlFO1aVLtLS0MDIyElNvPIPRSEZGBtk5ORQVF7GochE33XwT6zdsAOC5Z59laHBwxrpv3JqLLq09GoPau7tS8fclA2jBAEpfH0pv73UXJqeDlGCADFUhXQljGRtDHRxEu8LpRzAYxG63U11Vhd6gZ/eePSxZuoS8/HzS0tLIys6mcvFi1q5bS+XixdFTy/z8fCorK7l48SJdnZ14vV7Gxsaoq63FaDBQWXm57GSJiYlkZWdTWFRIeUUFq9esYecNN7Blyxb6e/u4eP4CIyMjU1pRQkRpaSllZWXodDpOnDjBkSNHGBoaYs2aNdGvX/99hcNh3G43LS0ttLe3Rz+LwWq1kpaWRkJCAm1tbYyNjUW7ERRFYXBwEKfTyZw5c0hISJi1CTccDtPX20tVVRULFi6gsrKSrKys6HpZlrEmWCNfYT9nDpmZmdF1uXm5lFdUkJCYSGNDAx3t7dF1VyMR+Rbo5ORkFixcyIaNG8jNy+XM6TP09vbh8/niN0HRFEY1Jy55FL/Zi5asoCUrBK0B3HoXThw4tZF3jGFtkG6tI5JkaaeDtmh00kaX1sGQNjhlu3cbo5oTRZt6uTqArCkKmnMU5eIFwmfPEDp9isCJ4/iOH8N37Ggkjr+bOPaeRkJzEyWjThYpQeYH/KT3dBOuq0Xz+dCmeTf0er20NDfjdDjJzspm5epVmIzG+GJYrVZsSZGvxQbIz89j8ZLFdHV20tXVRX9fP91dXQwNDpGSkkJFRcU1HXiyLJOVlcVd99xDSmoqPb29tLa0vm9Gut+t9PR0iouLyczM5NixY5w+fZpAIMDmzZtJSUmJL46qqgSDQQKBQHTwSxu/mMHv98dM4woGg/T19fHKK6+wb98+6uvrkSQJk8lEfn4+RUVFVFdX09vbGx2wczqddHR0MDo6ysaNG6fdh9nC7/fjdI4yOjpKxdy5ZI4n24kus0AgEI34WQUmk5mCgkJ27d5FU2Mj1dXVkd8F7+5MrmzOHEpLy3C73XR3deF0OmPWq5pKAD89dNKt78CRPAglYSgJ40p30K1vpzFYS8M1RHXwIodD+zkUfotz4ZN0hFuiUR+u5kjoLapD52kI1dIQrHvX0aw20kozHbTiw4eqTc1PUrijXVPa2sDjQe3uYqSzk56eboaGhlGUSJaOpJlJyWbavCNNXRy34PJdiam5a3L9l28PDg0yODiIx+vBbDSxatduNt51N1JCIrp5c5Gzsi9vB/T39XFg/wGef/ZZ1q5fz6Of+5vo6Wu8YCDyQShf/MIXyM/P54EHH+SnP/kJaWlppKWl4fP78ft8lM0pIxgM8n++9o/82ze/yY6dO+nu7uKTH/8Ee268kXvvu4/yivJovaqqEgqG+F9/93c4nU7uue8+tm7bSlJSUszjCxHHjh3jxz/+MS+99BIjIyNs376d73//++Tk5GA2m2PK2u12GhoaGBoa4vDhwxw9epTm5mY+97nPMX/+fNLS0ti0aRMmk4mRkREuXLjAl7/8ZZKTk7n11lv51Kc+BcCFCxd45pln+MEPfsDWrVvZvHkzBQUFnDp1iv3796PX6/nqV7/KihUrSE9Pj9mH2aKvt5ffPf00v/jZz/mXf/06K1asIDklBU3TOHH8eMzsgbz8fAoKCtDpdHz2059h0aJF7N27l5SUZP71618nLy+fu+65G4fDyW9/8xuysjL50le+Qm9vL9/9r/+mpbmZb37rW2RmZmIyX+4T9/v9vPTii/zjVx/jkUcfZecNN1A2pyy63qGNMEAfAQLU2as5fOZtXn/pZQBy8/MpLikhMzsTSYqcfUrE5o/Jx31YF8ZjGSVs9qPqLp9xShJIig59wIwRI8agGUNwYh+lK6WmmMwoSRIV8+aRkZWJHj0FFFNAEalS7N+O7suf+qvHNHuk01sdGGS0q4vO1hZ62ttxDA4wNjzM6PAwo8ND4z8jMTYyzNjw5BiaUiY+YuuKj0nLhy6Hd2wUNRhAr2mYZR35c8rJnzcfggGkjExk2+VWKsCYy0VTYyMtLS0UFxezbv36aZMtk/p7973xRnQivl6vp6W1hUsXLzEwMMDGzZsoKi5mZGSEQwcPsXvPHkrLyhgbG+PF51+gvKIiMvCTnhZTt6yTeXPfPjweD3PnzqW0rGxWD778ISamXjU2NpKRkcGGDRu49dZbMRqNU353XV1dHD9+nPPnz0c/+Eav16PT6bDb7fh8PlauXInRaMTn82G32zl06BBWq5V58+axatUqGJ8lYbVa8Xg8jI2N0dLSQk1NDe3t7eTm5rJ9+3Z2796NzWZ7Ty+6uJ74fD7q6+u5cP4827ZtIycvD4vFgqZpHDp4kIb6ero6u7hw/jyaqpGSkorNZuOVl18hKyuLRYsj/e/Nzc2MjY7h8bhJSkqiob6ehMQEtmzdisvl4vSp0zhGRtizdy8JCQkxr2fA76ehvoHDhw6xcdMm5swpizmrcOPCQaR/2O7to93eQltHC5IewloIl3cM+7Cdvv5uevt7ImHvpre/e9KybvqcXfS7uxh09jHi7We0b5Sx+iCjHW5GB0ZxDo3i7B9lpM3JSN0YjmoXQ00OhppHIj+bHAyP/7wcI5PCgbNtjL4aOx3nO2k9307j+SaqzlVz7ty5aEzplAwCY4rKkN/PoM8XF95oDHivFJ4rhn1yeOLDPW2MBAK4VBUPcC29oDpZjo5Ah8KXTzmvhdliYfnKFciyjp7ubtwuFyUlpTH9WtdCVdXo6a0sy1isFuQrJH0BMjMzWbNmDTfeeCN33303W7ZswWw2T9tnLssyRqMRk8kUeUNdt449e/aQnZ2NyWSKGeQyGo1kZ2ezc+dOtmzZQnn55bOQtLQ0VqxYwUc/+lHWrl2LzWYjEAhQUlLCLbfcwl133UVWVtasfpO0Wq2RPmokhoeH8Xq90XUWs4XExEQkCepr62hrbZ1yoYNO1mG2WFizZg3WBCsnjp+IfozmtXI4HDgcI+j0elJSU7BYrfFFYmgKaL5I+Bx+hruH6Wvupbe5l97mnkg0RaKnqYeepm56mrrp7eyiv6+bwU47jt5hXG0efBc1fBc1vNUKnqYArh43Y40+Rmu9OKvcjJ7xMnbax9hpL2OnvYxeJZynPDS80MrZX17k9C/Pc+CXB3n2l8/xy1/+Miam/EX7jUaGbDY6ZB3tSNdVTO1On8poMpGdk00wEGBsbIxAIHDNCddgMJCfl09xcTHz5s9n5epVZGS8+4GbUCjE0GDkihqTyURubh76d1nH+4nVamX+/Pl86Utf4otf/CJ79+6NLxJVUVHBJz7xCf75n/+Zb3zjGzHx9a9/nc9+9rNYxw/ahIQE5s+fz//+3/+bRx99lG3btsXUlZSUxKZNm/jiF7/IE088wdNPP813vvMdPvjBD/5R5v9eb6xWKzabDaPRSHtbOyPjg4qSJHHHnXfwmUce4cMPPEBhUdGUrp3JVq5eTV5ePh3t7dTX1+McHY0vckXd3d309PRgsVooLCx85z5zv4Taq3vXofTrUAYjER6WUS6/t4BbjzR6+fhUk8KEsvx/lDlcU6o0h0Jkej2UyBKlOl0k5ImQo1EyTRRHQ4oNKRJF7xRMBBQChWgxceVf+WUWi4Xy8nLS0tPp7+vj2NGj036En8vlYsQxMiUZS5LE9p07+MQnH+b2O+4g7V3236mqit1u56knn8Tj8VBcUkJJScm7TtrvJ9L4BQYGgwGDwTDlUtvJZFlGr9dHL7+Nj8kt3HeqVxq/0myiLpPJhNFoRK/Xz/oLHhh//oWFhazfsIELF85z4cIFBgcHI6/L+Gusn7gS7yqvhcViYe7cuSxesoQzp09jH59WeSWapuHz+aitqeX1V1+jva2dvXv2kpmV9c7dN2YNOUd916HLUtFlREKfqkKel1DFAJoxDAlhNNvlWQWyW49hyARTx7z+YJJit2tKdxea3Y46MMBofz92ex+O0dHIVKaYfHT5zpQ24xXKxd+bst1kMQUjd3p7e+jt6cXlHsNssrBu1y623XMvcnY2clExctw7oqqqhEIh/ud736emuookm42bb7mFwsJCrFYroVCI/v5+hoaG0Ov0LF6yhL//4hcpLCzki3//9yQlJaGokT5FWZYjfYP9/bx94AD/52v/yDf+/d9jBs3WrV/Pnr17yS8oIBDwMzg4SEN9A/veeIPyinJ27ryBXXt2I11h4E4Q/pT6+/s5f/YcT//2tySnJLNgwULmlM/BbDajqhpdnR38/Gc/Z/WaNezes5t58+dHB83uuvtuFlUuAqCzo4NDhw7x/f/+LsFgkJtvvSVm0OzsmTN87BOfIDEhYfwKtDE6Ojro7OgkMyuTm2+5lUWVi6YMLLs1FyMMMYqTxr46Dp86yEvPPw9ARmYmebl5pKSmTjq2InlDu3wTAMmsolnC+GQPkkVFMYQIKSF0vcmgB9kkYVLNSC49ZmciFnfClGQVk/2mSWRWqzWmYZUgJWIhtotE0jRNU0edhC9dAq8XrrP5oocOHuLwoYN0dnZgtVjZeeNN3PrQQ+iXLEYyXrl/7fy5c7zy0sscO3qUxUuXMG/ePFLT0vB5fdTV1uL2eCgqKuK+D3yAr3zpSxQUFvL5v/1bEhMTkXWxDf/+vj4OHTzE1//lX/jnf/kXtm7bRk9PD5/91KfIL8incvFikpNTcI2N0drWSndXF3q9gQcfeoj1G9a/61ayIMwUVVUZHR3l+Wee5ciRIwwPDVFcUkySzYaiqDgdDjo6Oti9Zw87bthJfn4+//D3/5t58+Zx0803M2/+PBjvRmtpbuGfvvY1RsdG2bZ9O3/z+c9jt9v5yRM/Zv9bb1FcUoIE+P0+PB4PmqqxZu1atm7fxoaNGyFuVsGEoBagiw6auxs5ePhtfv3UUwAsW7GCzVu2MH/Bgin9/TFnruNzrINSkBH9AEGCeGUPHvly14dBNZEUTkGPgSQ1mSQlOXb7y/eijcHIzfHbkkR6ejoJCQkAGDCSTS7pUka0LBMJV1MUCAYJV11Cu84+SCI+4e76+Ce4/fOfh3f4QJOA309nVxdVFy9y6tQp+vv68Xq9yLJMfn4+y1esYMmypeTl5fE/3/seWVnZ3P/hD2G1Wqf88oaHhjh/7jw/+8lP+KvPfIaVK1cyODjAv37967jGXJjMkVNRi9lCekYGpaUlLF+xgqzsbBISEqacygrC9ULTNFRVxeP20NXVSUdHB/39/bhdLgwGA+kZmcwpKyO/sIDU1FRUVeXA/gOkp6cxp7ycjIxIQom0Wl2cP3cOx4iDnNwc1qxdi8fj4dKFizQ3N0e6gowGzGYzSUk28gvySU1NJTExMdpHPN0xrWkaYUKc7jnJS4eejybctevWccOu3SxesmRKI2k6GhqqpGCnDw8u1El9BhISsqYjhzysJCAz6ZiNT7hXMPEZHTr0FFFCAonopLhuLG3SW4E6NIg2zZUef0ovPv8CLzz/PA0N9SQlJnHfww/z8c9/Pr7YtHw+Hw6Hg+7ublxjYwSDIWQ58p1a2dnZpGdkYDQaaWxowGw2U1pWhl6vn/JL9/v9jIyM0NLczLz580lPT8fv91NdVT3+MX8TfYsGEhMTSElJJSs70h8Vn7wF4Xrl9Xpxu1y4XC4CgQCyThe9Ks9sNqPX6yNX4g0MYjQaSUhMiJnFEQ6HGRsdJRAIYDKZSE1Liy6b+JyEiePEZDKRmJT4ro6R2vZqXnz9eX7w/f8BYMfOndxx112sXrMane4d+n4n8eIhzPQzKRJIRMe11zUdGYkkktFLU+uJSbjXo189+RS/evJJqqursdlsfOwTH+eRRx+NLyYIwizX2trKSy+8yLe/9S0A9uzdywfvv5/1Gze882DbdeLa3loEQRCEP5hIuIIgCDNEJFxBEIQZIhKuIAjCDBEJVxAEYYaIhCsIgjBDRMIVBEGYISLhCoIgzBCRcAVBEGaISLiCIAgzRCRcQRCEGSISriAIwgwRCVcQBGGGiIQrCIIwQ0TCFQRBmCEi4QqCIMwQkXAFQRBmiEi4giAIM0QkXEEQhBkiEq4gCMIMmfUJV9M0FEVBURRU9fLXIv+hJupVVfXyd9MLwvtIOBzG7XbT1dlFc3MzrS2tdHV1MTQ0hNfrRdO0KcdGMBhkaHCI5ubmaWNkZCSm/Gwza7+11+12M2C309vbi8vlQtO0yFc7JySQnZNDZkYGsk5HZ2cnjhEHwWAASZLQ6w0YjUYSExNJz0gnJSUFg8EQ/ep0RVEYGhyis7MDx4gDDY2kpCRycnPJzc3FbDZP+Zp1QZiNPB4PvT09nDp5itHRUcxmMzq9HqPBQEJiIpmZGRQUFJCenoE1wQrAyMgIVZcucfHCxWmPlVWrV7N8xfKYZRNmw7f26h577LHH4hdeT6qrqqmuqmJgYACTycTyFctZu25dfLGoifePluZm3nj9dX7205/y/LPP8eYb+zhy5DDVVdWomkpqWhqhYJBfPfkkv/vt07z2yiscO3qMs2fOUFVVRW9vDwCpqamYLZboH4bP6+XE8RP8+IknePrp37L/zbeor60jGAxRVFREYlIisjzrTxwEgbHRMWqqq/nJE09w8sQJ+np7uXD+PIcOHeTo4SNUVVVhNJlITU0hOSUFSZLo6+vj5Zde4sc/eoK+3l6am5tpamigcTwKCgtYVFkZ/1AAOBwOGhsaOXniBADl5eVULl5MYVHhn80xN+sS7sRpzhM/fJzmpmaWLF3Khx/4CDfs2c3iJUuwJdlwuz3kZGeTkJDIyRMnUFWVJUuXcsstNzNv/jwSExPp6+vjrbfeYqDfjjUhgbz8PAAOHjzIsWNH8Xq8fPwTD7Nj5w7MFgv73thHTk4OqampJCUlxe+WIMw6Xq+X3t5eLly4wMpVq/jc336eXbt3s/OGXcybPw+Px8Oxo0cJBkNkZ2eRmpaGw+GguqoKu32AL335y9x2x+3csHsXN+yKRGVlJdaEhPiHglmScP889vJdCAQCdHV10djYiNlsYucNN7Bu3TrWr1/Pli1b2LnrBjZs2EBefh4akX7YxMRE5swpY/2GDazfuJGt27axadNm5s6dx6VLFzl96hTd3d1oqkrVpSqGh4ZZvHQJq9asZt2GDVRWLiYhIYGGhgZ6eiItY0F4v5BlmfSMDBYsXMiiykqWr1jOps2b2bV7FykpKTQ2NnDy5MmYMRSTyURFRQULFi5k4aJF0cjIzIype7aRAbRQCNXhQB0Zue5C7/FgDYewqSpJqoLR60MdG0W7wgBYKBhkeGgIr9dDQmLi+Gl+EjabjYLCQpavWMHWbdsoLimJbmM0GklOTiE3L4+SkhKWr1jBDbt3cdfdd6OoKvX1ddTV1hIKhejs6EDVVFasWEFqaippaWkUFhWyYMECent66O/vj9kfQXi/MRgM5OXlsWnzZtasXYPb5ebs6TOEw+HocRsKBuns6qK9vZ2e7m5GRkYIhUJTBtkANEVBHXUijY5i9HmxqSo2VcUSDKBzudCut9zldKKFw/FPAya6FLSxMcJnTqP2dKP29lxX0X/+PK7GBkyOYfIkmcWZGczNyUHOzkGapqM8HA4TCAQ4fOgwbreb5ORkCouKYga+JElCkiQcDgdnz5wBoKi4mPkL5kfrMZlMpKSk0NzUxMjwCIoSpnLxYl5+6SWMRiPbd2wnPS0NnV6P2+Wmv7+P9rZ2CouKqFy8OFqPIMxWE10K58+do6CwkA0bN8QXIRAIUFdXx/DwMDfs2oXH7aa2poZzZ8/hcDqoramlo72DgD9ARkYGZsvUgTR8PsLnz+NtqMdRW4ujroYsTWF+cgrliQmkhYLQ1zcld/zJYnAQOSsLyWSKfR6AFO7p1tSOTjTHCGpfH6N9vfT19+F0OFGUuCwdfR1iX5Ar3Yt/3eJLRk1aPLmEhERPby89vb243WOYjWbW7NrN5nvuQUpNRVc2Bzk9fdIWkYTr9Xh4/IePc+b0aXw+H8UlxRQWFlFaWkJ5RQVz5szBmpBAS0sLP/je99E0jU2bN3P7nXfE1OX3+/nZj3/C2bNnsSUn89lHHuErX/4SqalpfO7znycvPw+DwUBHRwdv7tvHm2/s48abbuTBj340ph5BmI2GBoc4c/o0P3r8cdatX8/f/t0XYtaHQiEaGxp4/Ic/pLurm3/7j2+iKgpnz5zh2LFj5OXlR2b9DA3S39fP5i1b2LxlCwsWLojWoQ4MoLS1oTlGGKqtoebECY4cPQxATnYuxUXFZGRmIEmR3lEp+t81mGiATV406fblBVfKaZOWA7l5ediSk5EMRuRFi9DPnYucnTN5A6RQQ72mNjcDoDQ3099QF+mL7O0lFApNKjntzWlMehJXLChdedUkkiQRCAYJhoKoqorJYGTZ7j2sueNOAHRLlqIrKIjfDIAzp89w9swZ6upq8Xq86HQ6zGYzKSkpbNi0kUWVlXi93ndMuL9+6lccP3YMo8nEo3/zN3ztq18lIyODz3/hC2TnZGMwGOjs7OStN9/ktVde4cabbuKjH/94TD2CMBtdS8Ktr6vjRz98nJ6eHr75n9/CYjYzPDxMT08PZrOFQMBPS3MzR48cRZJl7rr7Lm6+5RYYP/6V9naU2hoAhi9eoOn4cU6fPQ2AyWjCarFiNBmntoqnMaXENNtMWRKXYKesR4r8k2DF8pUUFBSA3oA8twL98pXoyspiSk8ZNFMUFb8/gMfriQ3P5XBfNdy4PW5cHjcu95XCxdg1xKhrDH/A/3tdsLBq9So+8uADPPq5z3H3PfewYMECxsbGePWVV3jm6aepr6uDqd1FUZqmgabh80UmcFvMZgxGA7IsRy56UJWYsqqioNPpkHW6mHoE4f1o4piw2+34fD4sFguJiYmkpKYyb/58duzcyYaNG9i+Ywd79t7Ijp076evtpa+3d9p+3AkqEBiPsWCA/lEHnQN2Ouz97xjt8dHfNyXa4qNvcvTSOiV6aOvtobW3D7fPF7+7U0xJuLOJxWIhPz+fjZs38ZGHHuThT36SXbt309zUTHt7O5p29USuqCp9vX1IskRBYQFJSUno9XrC4TB+/+U3AlVRCASCmMxmjEZjfDWC8L4UDIWoqakhFApRVFxMYmIiumkaJEaTkZTUFFRFIRQKXbWB5QE6kK6raEemAxlP/M5OY9qEK8sSOp0uEnIkZFl+1yFJ8REZrLpaEB/vUiAQoK+3l7HRUcLhcPSqsbS0NLJzc8gvKECWZVRFjT9fiDE8PMyJEydoaKgnOTmZZcuXY7VaSU1NBQn6+/pQlEgr1+fz0dvbQ3JyMjabLb4qQXhfCQQCkXGNN97g5IkTpKalsmHjBnQ6HSMjIzgcjsiMhfFLf8fGxmhpaSEhMYHEpCTkq8ypNQHpaNdVZKCRgcrUIbKppgyajXR30d3dxfDICOHwxGmzxtRW/pQFMa6+dtx4pVcrOzQ4yNDQED6f95oGzZwOBzU1NbjdbpKSksjOycFqsaIoYVpaWjn49gGam5q4/c47Wbp0KT/4/v/g9XpZtnw5O3buJBwO4/F4aGtr5eSJE3R1dbFz505uu+MO0tPT+e5//Tctzc2UlJRw4y03Y7VYuHDhAr/8+S9YvmI5O3fewMrVq2L2SRBmo4k+3B/8z/9QXFzM3ffcg6Iq0Ut+6+vrGRwYYPuOHezeu5fc3FzOnjnD0NAQBoOB5ORkVFWlqbGJAwcOkJqSzE233ML2HTuij3G1QbOkJBupqakkJCZEe1enzSVa9L/Ld69kaqKDq24zvkaSWbViJYWFhUg6HVJuHvqly6b04Uqapmmqw0H4zGm4SlP+T+Xg2wc5dPBtOjrasVoS2LV7N7d95MPoV66adtpFb28vb735Ji+/GJm+tWr1agoKCvD5fNTW1nLi2DF27d7NnptuxJaUxA//5wd0d3eTnpFBRUUFHo+b9vZ2Oto7cDgcPPjQQ+y8YSdz582L7s/rr75KVVUV9953H7IsU1NdzYH9+/nf/98/sGHjRjKzsuJ3SxBmnaGhIc6dOcv3v/c9+np7SU5OJhAI4Ha7sVgsVFRUcOfdd7Fi1Sry8iJXav7yF7/gzTfeoLW1jbKyMgKBAKOjowSDQR559K9Zu24d2dnZMY+jeTyEzp6hv6WF0ydP8tKLLwCwaFElq9esYU55eaRVHPdhOdFb4ze0uLQ5pa948rbx9UwqOrmeyeVSU1NJmLhKTpbRzZ+PrqQ0up6JhKuFQmhu9xWz+5/SM797hmd+9zT1tXUk2ZL40Ic/wic/8ymkxCSkaU49vF4v/f39HDp4kLbWNtxuF6FgCIPRSLLNRm5+Hhs3bqSoqIgxl4tXX36FlpZmgoEgCYmJGAwGTCYTGRkZlFeUU1JaSnp6OlZr5MM3nE4nF89f4Mjhw4yMjKBpGimpKZSVzWHL1q3k5uZgEP24wvuAz+djYGCAqosXGRtzYTAY0Bv0mE1mbMk2MjMzSc/IIDExEdN446i/r4+WlhZamlvw+/3odDK25BQK8vOZU1FOSkrKlHEQTVHQ3C56jxzh5IsvRhPusmXL2bhpE3PnzbvcN3wNZ83XJD7hXgO9Xh/ZD4MB3YKFyBkZSGZzTJlZ92lhynjHe1dnF3a7HafTgd/nw2A0kpKSQl5+PgUFBZjNZjweD+1tbQwPDxMIBJAkGaPRgMViJS09jfz8fIxGY0xHv6ZpDA0N0d7WRu/4iGpaWhqlpaVkZWVhinuBBWG2UhSFQCCAa2yMUCiEJEno9XpMJhNmswWzZeqxoKoqbrebkZERPG4POr2OpMRE0tLTMZlMV+2/7ThzhgPPPcfPfvoTADZv3sJNN9/CshXLpx2M+1OR9Drk/IJpz8BnXcIVBGF2mg0fz3jltxNBEAThPSUSriAIwgwRCVcQBGGGiIQrCIIwQ0TCFQRBmCEi4QqCIMwQkXAFQRBmiEi4giAIM0QkXEEQhBkiEq4gCMIMEQlXEARhhoiEKwiCMENEwhUEQZghIuEKgiDMEJFwBUEQZohIuIIgCDNEJFxBEIQZIhKuIAjCDBEJVxAEYYaIhCsIgjBDZn3C1ca/qz4QCODxePB6vSiKMvU76QVBeFfC4TBjY2O0tbZSV1dHfX09Lc3NdHd343A4rnqcKYqCy+WipbmZM6dPc/zYcdpaW3G5XPFFZ5VZm3A1TcPr9dLf3099XR3nz53jzOnTnD1zhprqarq6uhgdHSUYDNLa0kJnZyeBQGDaP5CxsTG6u7tpa2vD4/FE61cVFXt/Py3NzXR2dOD3+6fdXhBmo0AgQH9/P0ePHuXAW/s5dvQox48d4/ixY5w5dZqamhr6+/vx+XxTthsaHOTC+fMcO3qUg28f5NDBg9TX1+N0OmPKzja6xx577LH4hdeT6qpqqquqGBgYwGQysXzFctauWxdfbFotzS288vLLfP973+XZ3z3DKy+9zGuvvsrhQ4cZHhzCaDSSmJjEv/zz/6Wuro4FCxeSkJCALMe+D50+fZrnn32O/W+9RWlpKdnZ2dFW829/8xt+9atf0dDQQHlFBSkpKUiSFLO9IMxGrrEx6mpqefKXv6DqUhWuMRcNjQ0cO3KE/W++xcG3DyIhkZaWRnpGRnS7/r5+jh4+zHe+/R26OjrRNA2DXo/VaiUzM5OMSWUnczgcNDY0cvLECQDKy8upXLyYwqLCKcfs9erPYy9/D6dPneLll17kzJkzbNq8hUcefZTH/s8/8g9f/hI33XQjBoOB1pZWFEXB7Xbj9XpRVXXaFmo4FMLn8+H1RLojVFXF6XDym1//mpqaWnJzcrnjzjvJyMgQyVZ439A0UFUVVVGprKzk4b/4Cz716U/zhS9+kY9/8mEqF1dyYP9+Xn/tNRoaGqJnnWfPnOH1119n2/btfOShB3ngoQe5+9572bhpE7l5ufEPM6vMuoSrKAo+r5fjx47R1NhIdnYW23dsZ++Ne7nxppu46eab2b13LytWriQ3N3dSgpyaaGNF1msaDNgHOH3qFCdPHCc5OZmNmzaxdNkyEhMTRcIV3ndknY7cvDzWrF3D+g0b2LZ9O7v37GHnzp0YDAZqa2o5d+YMqqrS1dVFc3MzbrebLVu3sGnzZpavWMGiykUUlxRjs9niq59VZABNUdB8PjSf97oLORTEoKqYNA2TpqELhdCu0lcaCgYZGhri7JmzyDodt91+O4uXLCE1LQ29Xo/FYmFRZSU37N7F1m3b3vWpiNfnpbqqildfeYVwWGHT5k1s37kDg8HwrusShNlIlmVycnLYtGULm7Zsxuv1cOrkKcLhMDXVNQwPDVFUVEhGRgZ+nw97fz9DQ0P4fD4URYmvDk1V0fx+JL8fXSgYzQUGJYwUDFy3uUsLheKfCpKmaZo66iR86RKoavz6P7kDb+3nwP63aGtrI8GawN4bb+TOBx9Ev2QxktEUX5yRkREuXbzIf/3nt1m8dAmf/8IXpu2XneiDdTqcfPELXyAzK5NHP/c5cnNzMRgMMWXfPnCAN/ftY8A+wPwF83E6nXR1dvGJT36ShQsXkpKaMqV+QZjthgaHOHP6ND96/HHWrV/P3/7dF2LWBwIBjh45wq+f+hUej4dvfefbPPXkk1RfqiIQCJCckszY6CiappGXl8+tt9/G/AULSE1NjalH83oJV12it62NE8eO8czvfgfA6tVr2L5jB4sqFyHrdDHbXA90ZXPQFRbGLJMUu11TurvQ7HbUgQHGBuwM2O04R50oyuUEHHOifA2nzZEikXLTlp52IYAUs6qzs5POzk5Gx5yYTRbW7drFtnvuRc7ORi4qRk5JmVQa+vv7eXv/AZ595hnWrV/Ho5/7HJIkTXuqHwwEGRkZuaaE+/KLL1FdVYXBaCA9I4MFCxbwwIMPkZWVhU5//f2yBeGP7Z0SbigUor6ujh/98HF6enr4t//4Jj/+0RM0NTZisyWxeMlSdDodIyPDdHZ0kpKawq7du9m8ZQt6vR5JklCHh1G7ulDt/QzW11F94gQHD70NQH5eAWWlZWRmZyFL4w2eqYd5jNjV0xeOTRWX70xKaVNIUqRVb7PZQKdDysxEv2QpurKy2HKhhnpNbW4GQGlupq++lvr6erq6uwmFgpcLTn4kadK9KTswudw0q2HKRlPLjC+RInP9QqEQqqZiMhhZtnsPa+64EwDdkqXoCgpituzt6eH1115n3xtvsGHjBj77138ds36yd5Nwn3/2WY4fO47ZbCY/P5+ly5fxgfvvJzc3F6PRGFNeEN4PriXhNtTXjyfcbv7tP/6D7/33d+nu6qJibgV33HkXaelp2Pv7OXL4CK+9+go33XwzH3nwwehsH6W9HaW2BoDhixdoOn6c02dPA2AyGrFYrBiNxsv5aWoyiRGbNKcvHNvku2yaNts4CVmWWbFiBQUFBaA3IM+tQL985ZSEO+U8WFVUgsEggWCAQDAYDX8wcDkCfnwT4Y8P3+Xw+fBOG96Y8EwJTyS8HgLBAKp27V0dsk6H1WolHA4TDIaiFz78oWSdjoSEBDZs3ECSLYlXX3mV2poanE7ne1K/IMwmmqahqioDg4N4vB6MRhPJNhtms4n0jHTmzp1L2ZwyCgoKWLxkCXfefRcGgwG73c7g4OAVjykNUMfDFwwyMuqkf3CAvkF7JAauHr0DdnrtE9E/bfTY+6aN7v4rRS9dfT144+YbT2dKwtXGR+L/XJmMRnJyclAUhdFRJ6Ojo6jvQd+0yWQiLy+Prdu3s3PXLgoKCvj1U09x5vTpKRO7BUGI9OFeOHeOcChM2Zw5WKxWUlNT0el0OBxO1PEBMlmWI61USR6fZjZ14GyCF2hHuq6iA4kOdEQuibq6KQlXlmUMRgMmoykujDFhnAiDEaPBMG0Y9BOhjwn9lUJ3OXQ6HTqd7nLfzDUyWyyUlJWSlpbG4MAgZ06djrmCbOKd1+FwYLf3X/GdNJ4sy1isVrKyslmxciU7btiJ0+nk+LHjnD0dmfJyrXUJwmw0cWy53W5ampvZ/9ZbnD9/nrT0NNauW4ter6ewqAi9Xk9zUxMut5twOIzH46GrM3IBhC3JdtWpYTog4ToLK2BF41pGcnRf/bsvPKZ5PBAKgddDKBgkrIHObCYpNZWk9HRsaenY0tLGf0YiKfozjaTx+9FIjSyPbJM2XiYuUiffT40uSxxflpgaua/qdPjDYXyKAno9OXPmULRwEVJiEnJ2FlJCYswT0uv1JCYm0trSQl9fHwN2Ozk5Oaiqit/vx+1y0d/fT3NzMwP2ATIzM3lz3z4kJCrmzkUb/4MZGxvD5XKhaRpdnZ10tLfj8XhYs3YNc+fOJSszi46O9sj132NjzJ07D5PZhF6vj9kfQZitvF4vvb29nD1zBrPFTE5ODv19/bS2tHD+/HmOHz3G2Ngo6zdsYPv27SQkJqIoCt1dXdTX1ZFfUEAwFKSrs5NTJ08xMjLMylWrWLFqVXTQTPN6YTw/eYeGGe7rZaC7CxOQarGSk5pKbnoaWcnJ1xyZ04YtNmzvMpJtlJdXkJKRASYTUnIKck4uctyMC0kNhzVteJjwubNooRCaqkY+dEJV3/FSgJlw7Ogxjh87Sld3J1ZLAjtuuIGbP/Qh9CtWIlmtSNNM9wKoqa7h+eee443XX6ekpIRFixaRkZWJz+vl3NmzKIrKgoUL+fBHPsI//P3f09/fz/IVy0lMSIxO8dIbDKxes5oBu53q6moG7AN8+rOfYemyZQQDQdo72vnB979PS1MzN+zezV333E1eXl7M/gjCbDUxaPZf3/kOnR0dJCQkEApFxk3SMzKorKxkz003snjxYnJycpAkiXA4zNv7D/Drp56is7OT5JQUNE1jZHiYD3zofrZv307F3LkAkYSrKGguF+FzZ+lvbeXM6cgVpACLFi1m9Zo1zJkzZ+q0zElnm/Enntq0mU2bVG7y7XjapGukLpfTgOTkZMxmc2SBTod+wcIpg2aSpmmaFgygDo9M3bPrwAvPPcfzzz1HfX09SUlJfOCDH+Tjf/VXSGlpSFeZe+dyuWhtaaG6uprO9g4CgUDktB8wmYyUlpUxf/4CSktL+dlPfkJnVyfJycmRd9bxUUq9Qc+q1atRFAW73c6o08mNN99MWVkZqqri8/k4evgINTU1aJrKbbffTlFxsZi1ILwv+Lw+7HY7ly5exOl0IssyOr0Os9mMLclGekY6+QUF2Gw2TKbInHlN0xgYGKCluZn2tnYCwQAGvZ4km41FlZXk5OSQmBh71qqFw2jDw/ScOMGpV1/hpRdfAGDZsuVs2rSZufPnoZsuF0x0I8YvvwbvuntQA50+0g2KXo+uvBw5Kxsp7rlI2ruueWb96smn+NWTT1JdXY3NZuNjn/g4jzz6aHyxaQWDQZxOJ02NjQwNRq5k0elksnNyKC4pITs7G4CqS5cYHh6O3xxZlikuLkan0+P3+wkE/MwpLydl0tzfgYEBent7GbTbqVy8mPSMDJFwhfcFVVUJhUL4vD7CShhZktEb9JhNZvQG/dRW5zhN0wiHwzgcDrweDzq9nrS0NMxm8/SJc1znyRMcfPZZnvzFLwHYsHEje/fuZcmyZVfdbsbp9ehKS5Eslvg1szvhCoIwe7S2tvLSCy/y7W99C4A9e/fywfvvZ/3GDX82YyfTvwUJgiAI7zmRcAVBEGaISLiCIAgzRCRcQRCEGSISriAIwgwRCVcQBGGGiIQrCIIwQ0TCFQRBmCEi4QqCIMwQkXAFQRBmiEi4giAIM0QkXEEQhBkiEq4gCMIMEQlXEARhhoiEKwiCMENEwhUEQZghIuEKgiDMEJFwBUEQZohIuIIgCDNEJFxBEIQZMusTrqZpqKqK1+vF6XAwMjyMz+dDCYejZSa+fdTv9xMMBlFVNaYORVEIhUKEQiFUVY0pH/k23wCKorz7r1YWhD9j4XCYsbExWltaqK2tpa62lqbGRtrb2xkYGCAQCEw5lux2O81NTdTW1k4bvT09+Ly+WXss6R577LHH4hdeT6qrqqmuqmJgYACTycTyFctZu25dfLEpNE0jHArj8XpwOhz09PTS1dVFX18fwUCAsKIgSRIGg4FQKITD4aC/rx+vz4vBYMBoNCJJEgAejwen04nH48FgMKCqKmPOUfrt/YyMjOB2ufAHAtGErSgKsiwjSVK0DkGYbXxeLz3d3Rw6eJBLFy7Q3t4ePcZcLheSJKGTZXQ6XfQr08+ePcv5s+eorammpbk5Gs1NTdTW1KAoKqmpqSQmJk45dhwOB40NjZw8cQKA8vJyKhcvprCo8IpfyX69mbVfk64qKo2NDRw6eJAD+/fj9/lBktBUlUAwQG5uHmvXreUD99/PqHOU1197jWefeYa01FQ+8clPsnX7tuh33Z84foJTJ08SCoe5/Y7b0ckyhw8d5oXnn2dsdBRJkpB1MtaEBEpKSlm+Yjnbd+wgPT0ds9kcv2uCMCsMDw9z8fwFfvLjJwiFQlTMnUs4FGZkZATHyAjBUIjtO7azfedOFi1ahCRJvPbKK9RU1zAyMhJTVygc4uLFi2zevJm77r6bBQsXTkmi4mvSr2MXL17kzX1vcu7sWebNm8+eG2/knnvv5Z777mX3nj1kZGQwNDiE2+3G7/czMjxMe1sbnZ2d1NXX0d7eHq3L6/UwNDTE0OAgwUCQYDDI6Ogoo04ni5cs4e577+XmW25lzZo1yLLMieMneOLxH1FbW4vP54vZL0GYLTRVIxgM4nZ7yMnJZfeePezZu5fbbr+dG3bvZs6cOZw8cZKDBw7Q1NgIwLz589mybSt7b7oxGhs3b6KkpBRVUTAYDKSkpMQ/1KwhA4S1MC5tjDFt9LoLv8FL2BpGS1TREhUCRj8ezY2qxfYNTVAUBb/fz9GjR7h48QIWi5Wbb72FD37ofj70kQ/zoQ9/mA8/8AA7d93AnPI5yNL4e44kYTQaKSgqoruri6qLF1FV9Yp9SbIsk5SUxLYd2/nYJz7OQx/7KPfcdx9r163FaDDw1r59nD55it6e3vhNBWFW0el0FBQWsmnzZrZu38ZNt9zMnXffxc233ALApYuXOHP6DKqqUlpWxpq1a9mydStbtm5l85YtLFiwAJ0sk5eXT2FhIekZGVO6E2YLWdM0/Phoo5k2mmnVmq6rGEjsx5/ngdIw4aIgIylDdNOJQnjaZBgKhRgaGuLE8ePIssw9993L4iVLSElJGT/115GVlcXuPXu474MfJDs7O9JfCyQlJbFnzx5GHU5OnzpNKBSa9jEmk4j0AyclJTFnzhxuu/12PvzAR0hLT+fM6dOcO3sWTdPesR5BmE0yMjJYu24tN+y6gUAgwMkTJ1AUJb4YmqbR1dnJa6++yvz585k3fwFmszkm4UaPH00Dxn9OPp7G11+PEU92MEwv3WhEVqqqSjAQxOfz4fV68Xq9+LxefD5fNCZG5yeP0k8XwWDk9DsUDEVifKR/coTD4SmhKEo0ptvpIAE6aMONK34VPp+P9tY2goEAuTm5LFy0CIPBEF8MIJKAZRnGf7cWi4XlK1aQl5+P0+nk2NGjuMbG4je7Kr1eH/1jGx0dpbOzI76IILwv6PR6SkpLsVgsOBwOxsbGCE+aHQTQ1tZGXV0dHo+HVatXUzanLGY9AH4/ysUL6C5dJKOrk0olRKUSonBoAEtdHeHTpwmfOnndhdrfH/9MkPrUHs1OHwBuxrAP99PV2cXw4GD0xYm+10zTzL9a03/yuphS17gNQHNTE01NTYwMD2OxWrl1z+184M4PA1BICWlSekx5e38/B98+yDNPP83a9ev4m89/HoBgMIjL5cIx4oiWNZlNZGZm0tfbx29//WsOHNjPj3784+ggmd6g5+FPfpKWllYOHTxIKBTigQcfRKeTeXPfm7y1bx8ff/hhbrnt1kl7AENDQxw6eJBf/vznLFy0iC9/9asYDIYpz00Q/pwNDQ5x5vRpfvT446xbv56//bsvxKwPhULU1dbxxOOP09PTw7//x3+QlZ2F2WyOtgBffP4Fjh49is/r5ZG/eZQ5c+ZEB6sB1NFR1N5e1K5OBhoauHTyBAcO7AegoKCQ8jnlZOdkI8mTj60r5J2rGT82r7l8XElJgry8PGy2ZJBlpNRU9IuXoCuLfQORzvee1XyJXrpbuxlQ+2jsaqDqwkU629oIBYPIehm9RUfIG0ZTprY2kSQMCXqUoIIanL5fVW/RIxuu/alcidlm5tbtd/KBPQ/AFRJuT08Pr736KvvffIsNGzfwmUcegfEpJa0trVRdugSaRigUIiU1lS1btzI6Osqzv/sdBw4c4Imf/gS3y8Wb+97k+eee40tf+QoOh4MzpyNdDNeScJ1OJ+fOnuV7//3flJdX8JWvPYbJZJoy6ioIf86uJeE2NjTyox/+kK6uLv7tm98kKzsLi8VCOBzGNebiv77zHTo7Orjl1lvZvGULaelpMXUo7e0otTUADF+8QNPx45w+exoAnaxDr9ej08UfV5MS7pUaffGutdzE2kmFJElCRmL9hg2UlpaC3oA8twL98pVTEq78y1/+kpaaFh697XP8f3u+xo8+9nOO/ttZ2n8zSM+zToYPegl3ywy+6aHnWeeUsL86RrAVnMf8U9ZNhKc6jNqn+4ODwNVfCsY78JMSkwiFQgQCwehyr9dLe1srB99+m/379/Ob3/yGZ595JjLzIHi5HEBJaSnz5s/DbDZx8cJ5OibNWLgW4XCYUecoSlhBr9fHzOkVhPcLVVUZGLDj8XgwmYykpCRHu/d8Ph9nzpymu6uT1NQUtm7dii3ZFl/FVSmqQiAYwOf3x4UvGl6fNxqeq4XXEw33VcMdCc/lcLldjHndU7pLpiPv2r2L/NI8Hv1/j5BXmItnxEvQFULxqlhLTNiWmdBlqaSssmDOM6L4tGgY0/WkrUvAkAeJlUaS5ptj1ksGifT1iZjLdEjp6h8cTN8VG8NkNJKdk42qqjidDoaHh1EUhdSUFFauXs3HH/4EH3ngASoqKvB6vSiqEumIn8RgMFBUVMS27dupqa6hob6e8DUMoE3w+Xw0NTWRkJhIVnaWaNkK7zuqquLz+Th35iyhUJA5c8oxWyzoZDlybDqc7Hv9DRISEli2fDmJtqSYroR3I36g6k8SqhqXRaYnL1m8hLSsNPZ+cA87H9zOmntXMn93BcWb8ynamEvu8mxSi1PJW5lN0YYcCifH+lzyV2eTVppC9uJMCtbnUrA+Jyby1+WQMTeVlEJbJAomR1JMJMdHfhKWTBP6ZAk5SUPSv/NTMlssFBUXk5aWxvDQMOfOnsXn82G2WCgpKWHjpk2sW7+evPz8+E2jJEkiKzubTZs34/P56OrqxG63o10l4UZedI3hoSEa6uu5cP48Obk5lJeXI4krzoTZTNNQFYVAIIDX62V4eJimxiaOHD7MpYsXSU1LY9Wa1ZFxDFlm1OmkpbmZ+ro68gsKWbpsGXq9/l0fI5IkodPpMOgN6PX6q4ducuimhO6dQo4NWZajoZMjZeRr2H/dF7/6d4/58KKhkbc2h7KtxWQvTidzcRrZpdlkZGRGI68ih+K1BZFYU0D+ghzS0zNJT88kIz2TrKJsitdE1hWvKaBgSR4ZmZmkp2dcjrT06O20tHTS0jKikZ6aQfqk+2lp6UiqRNAfJBQIodcbmFc8n8qKpejRk0wKZskS84T0ej3Jyck0NTVFLjPs7WNO+Rz0Oh1hRSE0Pnh26sQJBux2duzciSRJ0WvAb7/zDpKSkjCZTKSkplJ9qYqWlmaGhobILyhg2fLlyLJEa2srLc3NzF+4gILCQnw+H263m0sXL3HgwH5OnzrF7j27Wb9hA8mzeCK38P7l9Xrp7e3l3NmzJNlslJaWMDg4SFtrKydPnuT1V1/D4XCweetWdu3ejdVqBaCpqYlDhw7S0dHB7r17WLtu3RVbt5rLheZ0gKLgGxxgsLeHzp4eVMBotpCYZCMxORlLQiIWawKWhOnDbLVevp1gxZyQEBORMvFhjYQl8tM06X709kQkJFBcWkpKahoY9Eipaci5ucipqTHPRwqqQc3FGN10ECRIMBSZ0hUOTz/PNXr6Pc2qaRb9ATTQ4Mjhwxw+dIiuzk6sCQncesvtPHjvRymgCDNW9FLsJX0T+1xTXc3rr73OwQMHSEtPo2xOOdnZ2ej1evr6+jhz+hQ6nZ5/+r//jKpqvPTCC9FBs7y8PLTxgbUjhw7z61/9iksXL7J5yxY++vGPo9PJvPHa6zzzzO+YU15OcXExPq8Pu92OwzGC2Wxmw8aN7Ny1izlz5mA0GmP2URBmg4lBs//+r/+iv6+P9Ix0dLIOo8lEWloaxSUlrF23loWLFpGbm4tOpyMUCvHC88/z21/9mhWrVnLzLbeyqDJy2e90tGAQzeEgXF2FvaWFc6dO8uqrrwCwcMEiVq5aRVlZ2TV128Xmpz8wW03efHzXExISxo91CUwm9AsXTRk0kzRN04JakFEcf+gu/FE8/+yzPPvMMzTU15OUlMQH77+fv/jkp0gmBZ00/bsigNvloqmpmUsXL47PhY18kIYG6PU6DAYj+QX53LBrF36/n5MnTlBdVcVn//qvSUuLjJRGOv0H2P/mW1RXVTFvwXx27NiJLMucP3+Oo4ePYDQZSUxMBA1C4TBJSUkUFOSzcNEi8gsKIusEYRbyer309/Vz/tw5RkZGkACdXofRaCI5OZns3BxKS0ux2WzRRkc4HKahvp662jrKK8opLikhNa4VGE8LBVH7+ulqa2P/W2/x0x//GIAtW7dyyy23snzliiu2kP+UpPQ05OTYs9tZ++E1jF/m63G7aWxsZMA+gMs1RlhRyMzMpLi4mPyCAhISEvD5fPR0dzM0NMTy5csxWyLdFBMvTXtbO319fSSnJFNUWAiSxMDAAN1d3YRCIXQ6GZPRhDXBSnZODpmZmeh0uiu+awvCbDAxYBQ5GdWQGB+rkKbOp58weZt3KhtvNnx4zaxOuIIgzB6zIeG+c8eHIAiC8J4QCVcQBGGGiIQrCIIwQ0TCFQRBmCEi4QqCIMwQkXAFQRBmiEi4giAIM0QkXEEQhBkiEq4gCMIMEQlXEARhhoiEKwiCMENEwhUEQZghIuEKgiDMEJFwBUEQZohIuIIgCDNEJFxBEIQZIhKuIAjCDBEJVxAEYYaIhCsIgjBDRMIVBEGYIbM24aqqis/nw+FwMDQ4iMPhwOfzRb81NBQK4ff5CQQCKIoSvzmapqEoCl6vl2AggKqqkW8B9ngYGRlhaGiIUaeTQCAQ/XZfQXg/CYfDuF1uOjs7aW5qorm5mbbWVro6OxkcGMTr9aKqavxm+Hw+7P391NfVUXWpitraWjo6Oq5YfjaZtQk3FAwyYLdTXVXFyZMnqamupr+vL7re7XYzMDDA0NAQoVAoZlvGE7bf76e/rw+H04miKIRCITo7O7l08SKnTp6krq4Op8MhEq7wvuTz+Whra+O5Z57liR89wU+e+DFP/vJJnn/ueY4fO0Zfbx/BYDB+M+x2OwffPsh3/vPb/Ms//zPf+vdv8rvfPk1vT8+0x+Jsonvssccei194Pamuqqa6qoqBgQFMJhPLVyxn7bp18cWiVFUlGAzy3e9+l9/99mmqq6ro6uri5IkTnD59hs6ODgoKCuno6ODA/v28uW8fxSXFZGZmxtQzNDTE6ZOneOaZ36GTdciyzD997R85cugQ9XX1tLW1cejtg1RdqsLtdlNeUYEkSUiSFFOPIMxWHreHttZW3nj9ddxuNwWFhQCMDA9TXV3FG6+/QU9PD2azhcysTCRJoqWlhTf37ePgwbdZvGQJK1atJDU1hZrqGjo7O7FardF64jkcDhobGjl54gQA5eXlVC5eTGFRIbL859F2/PPYy3dhosvAZDKRn5/P0mXLWL58BXPnziUUCvLmvn10dXYSDoXw+XwcOXyYnq5u/H5/TD0jw8OcOX2a4aFhwuEwOp2MyWSibE45y5YvY+nSZcydO5fu7m5OHD+O3W6f9e/OgjCZqqoEAgGcTie2ZBtr161jzdo1rF67hoWLFpGcnMypkyc5euQILS0tADQ3NdHe1oYsyaxYuYJ169ezdNkycnNzuHThIm2tbaiqOmvPGmUAVVPwaz5870l4cWmjjGrOmHBrY9OUfecI6YKoRhXNFImQLkRA81/xFyJJEjqdjhtuuIFPfPJh/urTn+aBhx7koY99jJUrV9Ha0kJffx/JqSmUlpbidDjo7e3BMTISrUNVVYaHh6mqqqKktIT8gnyysrP54P3385d/9Vd88i//kgceepCH/+IvyM7OprOzk77e3mlPnwRhttPpdBQWFrFl6xZ27NzJ7XfcwYcfeIAPfeQjqKrK2TNnOHXiJKqqYu+34/cHyM/Pp7y8nIKCAkpKSli8ZCkerxeXy3XFY/u9ovl8qC7XtKGFw/HF31MygA8/bTTTStMfHC00cpKjHOatmDjLySllryUGkvrx5bmhNIxSHMSRMkg3nYSZ/oWRJAm9Xk9pWRm5eXnR5UajEZPZFLltMJCRkUFhURFZ2dm0d3TQ0dkZLev3+xmwD9DS3EzZnDnkFxSQmJjIkmVLSU5JBkCWZSwWC3q9Hnm89SuL7gRBAMBms7Fg4QJ27d6NpmmcPXMGRVFIS0sjHApRV1dHd08PXq+XQCCI0+kkKyuL1NTUP3r3gNLcRPjUyalx5jSayxVf/D2l+9xXH31sEDs+vKiohJQQgZAfX8BLIOQnEPITDAcIhKaPYDhIMBwgGA7gCo9iV3sYU5w4lGGG1QFGFQdhJUwoHMSjeCAsEQ6HCYaDhJQQISV41WhuaaKlrQXnmAOD2UDFgnksqFxAgAAGDBglY8wTmuhH1el0BAIBhgYHqaur4+jRo3S0t1NaVsa2HdvJyckhEAzQ093NqHOUlNQUFlVWAtDe1saFCxdoaWnhrrvvorS0FKPRiF6vx+fz0dPdzcWLFzn49gHcbjeLFi1i0+bNWKxWdDpdzP4Iwmzl9Xrp7e3l/LlzFBQWsmHjhui6iePQ4/HQUF+P0+lk+44d2Gw2AoEA7W1t1NbU0NXZSVNjI3W1NazbsIFVq1aRkRnp752gBfwoTY24m5sYqK6m7+IF0lWVhZkZzE9PJ0uSYGAA1W6/aiidHSjnzqE0N6G2taE1NaF1dqCNDMPYKNrQEKq9D21oCG10dMr27zbQyUgJCdHnASA9ve832ijO6AJFUQmHQ4TDChBp2ktMarnFteIm7qomBb/Rx6jsALOCX+fFp3OjmoMkkIhBMSOFdKRqachBA4Qn1yPFVxtVU11DbU01gwMDWBISuPXG2/nAXR8CoJAS0qT0+E2iRkZGaG1p4fixY1y6eAmD0cCmzZvZvWcPGRkZ2O123t5/gJdfeomly5bx6c9+BpPJxFtvvsnhQ4fp7+vji3//v5hTXh79A+jv76fqUhUnjh+nprqasrIytmzdwp4bb4TxPzRBeD8YGhzizOnT/Ojxx1m3fj1/+3dfiFkfGm/JPvHDx+np6eHf/+M/sFgsHDl8iGd+9wyqqpKamorP76Onq5u//PSnWLd+Pbm5udE6NLcbdWAApaWZgaZGLpw8yZtv7gOgtLSMBQsWkJ+fP7VVPM1hKPsDGPt7Magqss+HNjYGgJSUBFYrACEkQimphNMm5ZVp6ppMIpIIM9IzSEhMQJJkSEpCX7kYXVlZbNlt27a9Jx0moUw/4dQg6DS0jCAYVDRDiFCmE02voPo1wi4ZNFBGZFT3uz9tMCeYuXXbnXxgzwNwDQnX3t/PpUuXeP3V1+jp6caWnMyatWu56aabyc7Owh8I0NvTy2Nf+Qq5uTk88uij5OTm8tMf/5iqS5eoXLyE2+64nZycnGid7W1tHD92jAP7DzA0NMSc8jls2ryZG2+6KdK9EP+LF4RZ6loSbnNTE4//4Id0dnbyjX//N1wuFwffPsipU6e4++67GRiwc/7ceS5cuMCNN97IjTffzIqVK6ItZKW9HaW2BoDhixdoOn6c02dPw3i3nl6nQ9bpJuXE8VuxP5AAExrpmkoyGnpJIjypcSRpIKExioRT1jEm61GQJrJpTF2XN4r8J0mRhtbqVaspLCxCMuiRyuagX7IEXXFJzCa6kpKS92RamJoQRk0JoaUHwaCBV4c8YkY3bCWshlG0MCgSikNGsevQhnRoLvldhSFRz7zy+VSWLwUgmRQsUuSdaTomk4ms7GyWLVvGilWrCIfCPP/ssxSVFJOalkZSUhIJCQmcO3MWr89PQmIi6enp7HvjDRwOB7ffeQe5eXkYjZe7LSxWK4WFhaxavYrVa9fQWN9AQ309ubm52JJtmEyRfmJBmO2u1qXA+IURdXX1nD93DoC77r4nMkuoq5vy8nJu2HUDCysrKS0txWazcezIEUwmE+XlFVisFiRJQnM60QYHAfDZ+xnp7qa3rxfGZySp4xcohaMRjkQ4jBKO/AyHw5gVhURNAVXFoGkM6I1csCTRaTDRaTAxqNMTRKLVaKHfYMZuNHHRlkxbQgLtVivtVitt8WGZFGYr5wNBDg4Osb+vn7daWnjz9Bn27d/Pvn37ovHeNsdkDYxaZChOkZACOmSPCVmS0Vk1dIkaslVDTtCQEtV3HbzL7lGDwUBycjJFxcUsWLCAvPw8XC4X3V3djDqdyLKM2WxmTnk5Br2es2fOUFtTg9vtJjU1ldLSMsxmc0ydJpOJ9IwMSsvKWDQ+9WVsbIy2tjYCcVPLBOH9SlEU3G43586eIRQKUVZWhsViobu7B7fLRU5ODskpKWRlZVE+t4LVa1bjDwQYHhrC7b72mQoT00CnC3VSSJqKbmI5GgFJwqnTR2NM1uGTZDw6Hb7xcBoMOAzGa4oRg4GuYJAWt5sWl4uWwSGaOztpamqKCXnR8oVULCunYlk5RcsKyFyYTmKpBWOeDn2uhD7nGiNLQp8qo0/QobdJ6NNBl62iy1YxZegwp5ixJJuxZppIyDOTWGCdJizRSCiwkJBvwZRtQJcOcqqGZHjnX8LE3MBgMBhzya4sy+j1enT6yGBaKBSKnrbMmz+fhMRELl64wInjx9GAwqIiUtNS0ev1KOEwwWCQYDAYvfRwYmBObzAgjV91o8zyyxIFYVrjl8p7PB5cY2MMDQ3R3tbGubPnuHj+AjabjRUrV6I36NE0jWAwiNfrJRQKoaoqOp0Ok9mM0WhEp9dd8ziIJEnIsoxOp3vH0HQ6wrIc2UaSsGgqmeFQNNKUMImqQrISJikcIjEcIjPgJ8vvu8bwM9dsYklqCkvSUlman8+y+fNZvnx5TEjdoU7NTuSS1z56aLM309zYRH9fH8FgCDQtOnjGpFuRn5eXh61+FHMQJFCsfjTd5eSjSRpyUIfsjZxu69wmZL8hsi7mnWz89vgyTdMYdThxOp0E/QHMFjO3bL16H24gEGB4eBiDwYDVaiVhfJRwaGiIl154ke98+z/5/Be+wJatWykcv6Klr6+Pp375Sx7/wQ/Jz89n+cqVbN+xnRtvugnGLwP2ejwgSSQnJ2MymQiHw4yMjPDNb/wbHR0dPPwXn2TlypWkpKbG7I8gzFYTfbg//OEPmD9vPh958MHo5yRcvHiRQwcPEg6F+OCHPsTd996DzWbjxz96guPHjqE3GPji3/8v8vPz6e7u5o3XXuOVl1/h1ttu44EHH8BkNr9jH65er8dkiMweYiJ7TNMynlhi0FQyFAUbKkZpcva6bAwYQceYJKPGlYjei9tQGm/Qbdy4idKSUjDokSvmol++HF1p3KCZX/VpozjppxcfXrwBL16Ph4A/gKqpUyqPdXmlqlPx6byMMBhJtlLchqqEXjGQTiYGxYSkRHoztKs9gKZx6uRJTp44SW9PN1ZrArfedDsP3PNRcsgjgaQp08JGnU7q6up4/bXX8Hq95OXlYbFaaW9to7e3F51exyN//dfMmz8fi8UC40n62Wee5Xv/9V+Mjo7ywEMPcfsdt1NeUQHjCfn82bM8++yz5OXlkZGRgSTLNDU2MjQ4xLz58/nUZz5NSkoKBkPkjUQQZrvhoWHOnzvHjx5/nLHRUQoKC5B1OmQpMkc9PSODxYsXs6hyEYVFReh0Opqbmjh08BBHjhzBoNePH4Mafr+fFStXsXHTRhYsXIg83hrVvF7UoSGUxgYGmpo4f+okb7zxOgAV5RUsXryEouIipInB6qukE8nvQ9/TjV5Vkb0etNHRyHJbMow3zMJAKC0NJT0jbutJpnkMSYLU1DSsVgtIMiQkoF9UOXWWgqZpWkALMMzg1ZPfNQgSYBQHozgJEXvVlRkLyaSQTCo6Iu9I1+KF55/nheeep7GhnsSkJO77wAf45Mf/knQy0UlTO3U9Hg/d3d28+vIr9PX1YjQY0RsMeDwebDYbS5YuYdPmzaSmpsacupw9c4ZXX3mFvt4+brv9djZs2khSUhKMTy+rq63lheefR5ZkDAYDkiwxNjZGUVExK1etZNPmzdEuCkF4P/B4PPR093Dq5AkGBweRJAm93oDJZCItLY3CoiLKK8qx2WzRVmggEKC5qYkL58/T29OLqmmYTEaSk5NZt349hUVFJCYmxjyOFgigdnbS1dbKwbff5pc//zkAGzdu4sabbmLp8mXXNv89GEQdHETr70cbGUZzuwGQEhLBYgZJQs7OQcrKQkqOXOD0h5Czc5DTY8/AJe1ae6evkaqpdNOBF2/M8mRSyJXyY5Zdi189+RS/evJJqqursdlsfOwTH+eRRx+NLxY18XQ6Ozvp7urC3m8nEAiQkZlJSWkJ5eXlMN7/M5nT6cTe38/Y6BjFJSVkZWdF12mahtfrpbu7m67OLhwOB5qqkp2Tzdy5c8nOyRHTwQThXVBVlXA4TCgUil61+U5aW1t56YUX+fa3vgXAnr17+eD997N+44ZoQr8W4doa1KGh+MUgSegXL0FOSYlf8555zxOupmkohKf0f8jI6KVrf1Em/L4JVwmHCSsKiqKgaRo6WYfeoI/+YuITrjo+rURTVfQGQ8w75sSop6IohMNhVEVBG7+G3DBeNr4+QRCubOI4nfh5LQ2W9yrhasEgTPMZ2EgSGA1I8jW0ln9P7/ws3yVJktBLkUtuJ8fvk2x/HxOn9XqDAbPZTEJCAomJiVislkhXwBVO+2WdbvzzFsxTTk8mRkMNBgMWi4WExMRIneOfpTBdfYIgXNnEcSjL8jUl2/eSZDQiWSxTw2z+oyZb/hgJVxAEQZieSLiCIAgzRCRcQRCEGSISriAIwgwRCVcQBGGGiIQrCIIwQ0TCFQRBmCEi4QqCIMwQkXAFQRBmiEi4giAIM0QkXEEQhBkiEq4gCMIMEQlXEARhhoiEKwiCMENEwhUEQZghIuEKgiDMEJFwBUEQZohIuIIgCDNEJFxBEIQZMmsTbiAQwOv1XjFCoRCqqhIIBPD5fAQCAVRVjflyO03T8Pv9BIPBmHWCIFymaRput5u+vr5o9Pf3MzgwiGtsjGAwGD2evF4vDoeD4eHh6Be8TtShaRoul4uhoSE8Hg/hcDj+of7szdqE29HeTnVVFVWXLk2J6qoqBgcG8Pv9dHV1UVdXR2dHB16vNyaphkIhmpub6e3pIRgMxtQvCEJEKBTi5IkT/Pu/foN//9dv8M1v/Bvf/tZ/8qPHH+fQwYP09fVFy1ZXV/Pcs8/ym1/9mrHRsZjjLRwOc/zYMX7xs59x/tw5xsbGoutmi1mbcF995VV+8sSPeerJp3j6N7/ld799+nI8/TQN9Q04nU7e3n+AX/z0Z/zqyac4cfw4fr8/UoEGwUCQZ5/+HUcOH8E15hItXEGYhqZq9HT3UHXpErJOJj09nZTkZLxeDy88/wIvPv8Cly5eQtM0srKyCPj9nDh+nJMnTjA4MAjjyfb8uXOcOX2avr4+8vLzMZvN8Q/1Z2/WJtzammoaGxsJhUIkJiZis9liwmgy4fV6aWxooKamhuPHj3Po4EFGR0dRxr+zPhwOc/78eVqamy8nYkEQYmhoeDweXC4XZWVlrFi1ktVr17CoshKfz8elSxc5f+4cmqaRnZ1NTm4uAAcOHKCtrQ2fz8fY6CiHDx5icHCQwoJC8nJzZ2/C1VQVLRS6LkNSFGRNQ6dp6DUNSVHRwuFram3OmzePBx96iL//h3/gS1/9SjT+vy9/mY2bNkbL5efnoSoKZ8+cpa+3F5/PF1OPIAjvzGw2M2/efFatWsX2HTu49bbbuGHXDehkmYaGegAsFguVlZVs2LiRE8eOUVtbQ39/P52dnRw7dozUlFR27d2D0WRClmdfezCScN0uwmdOEz518rqL5NYW5oyNslgJsiDgJ6OrE6W6CkKh+Ofye8vJyaVi7lyys7M5fOgQXZ2d8UUEQfg96HQ6pLjEmZ9fwLoN6ykuKaGmqpqnfvFLfvfbp8nNy2PpsmUUFRUhSVLMNrOF7iuf/exjamcn2uAg+P2EPR78o6P4nE4CY2MxEZx83+Wasj4wNkbQ5bpihCbfd7unrI+Wc7uj0dXcRF97G4GxURL0eiqKiqgoKYkkXKMJ6QqnHS+98AIjIw6sVisu1xhdXd10tHfQ1dGJc9SJTqcjEAhw9swZLBYLefl55OXlcfr0afILCigoKERRFJ5/7jlycnJYvmIFNptt1v4hCMLvKxwOc+H8eWpqqtm0eTPpmRkoikJPdzdvvfkmqqqycOFCli1fjizL6PV6jAYDiqLS0tJCdVUVToeD7Tt2sGrNarKzs2OOMy0YRO3owNXWSl9tDR3nz5GiqczPyWF+TjbZRiOMjKAOD19XgSwjWSwxr5UUaqjX1ObmyBPz+XA7nQwPD+Nyu1BV9XLBSf9P/Iium/TixCakScsnL43ZXrpqffW1ddTW1TI0NIjFbGXrrl3sue02AHRLlqIrKJi05WV/+fDDtLa0Mm/+fLKystDp9TD+jltQWMCqVavQGwz84HvfJyEhgUWLF5Obm8P/+7//lz17b+TGm24iPT2dj3/0oyxdupSPP/ww+QX5s/I0RxD+EH6/nx//6Al+9tOf8pEHPkJJaSkAPd3dnD1zhgULFrJt+zaWLFsWPX4CgQDd3d188xv/xsG33yYrO4t/+frXWbpsWUzfreb3ow4Po9TXYW9q4vypk7z++msAzK2Yx5KlSykuKX4Pj0spPh29s/ENkpNTsJjNkQRnsaBfVImurCy26OSEq7S00FtXS01NDZ3dXYTC791p++9LU9XIHFjAZDCyfPce1t5xJ1xDwm1ubqGiooLMzMyYhFtUVMSatWswGI3RhLt+4wYWL17Mt7/1n6iaxsqVK9m9Z49IuILwDiYS7r9/4xvo9froMZKQkMCnH/ksW7dto6S4GEmWo42pYDBIf38///b1f2X//rfIzMzk/00k3EmtQqWjA6W2BjSN4YsXaTxxjFNnTgMgyzI6nQ5ZluOS5OQGYMyKGNM2B6VJCfeq205+DAkkic2bNlNWWgoGA3J5BfrlK6Yk3NjsoWn49HoGrVY6VI22sPInj3ZVoxOJLiQCV38NpigoKGDnrl3c98EPcP+H7uf+D93PfR/8ADt27qCgsDCutESSzcbuvXsJBAJcvHCBkZHhWTn5WhD+GDIyMvjkX/4lX/7qV/nQRz6CxWKhuamJwYGBmH5cTdNwOhz87umnkXU6lixZitWawKGDh6ivjwyuTSocicgdJC2StGQAVUUJhQgFAgR/jwhEw385/D78E+G7tvD5vPh9XpRwKLKvqhaZVzqNKc01SVWRFQUDGga4rmLKzr6DxMREioqKmDt3HvPmz4/EvHkUFhWRlJQUXxyz2czixYvJysrE6XRy7uw5PG53fDFBEKZhsVpZumwZW7dtY8/ePWzZuoXOzk4uXrhAR0dHtJzT6aShoYEzp8+Ql5fHnhv3smbNGqqrq7l08RKOEcc1zUK6somEF7l67Y8RqqZeDlVFUdXL7wtXMSWHmRWFzGCAIoOeEqPh2sPw+0WxQX/VKNTJ5EuQh4YpfmffY3q9nozMDBYtqiTJlsS+N97A6XTGFxMEYRoSoJNlzGYT8xcs4O577wMNzp09x/Gjx/B6PIRCITo7Ojh54gSBQICFixZx0003cdOtt+DxeKipqaGxseGaLqWXJCnarXBNIU8OedqQf8/Qybqrdl9MmJJwLRYL2VnZlBQVU1pcEomi4ilRMh7FheNRVDQliuKjsIiiwsJoFBYUUlRQNDXyiyjKL6Qov5C0lFQMBkP8bv5RLV+xnDlz5nDq5EncooUrCO9aQkIC5RXl3PuB+9A0jZdefJGqqir6+/u5eOECR48cZe/evSxYsIDUtDQqKipYv2E9w0NDvPrKq9HPX7gag8FAYkIiqckppCWnkpqcMimSYyLFlkxK8kTYoreTbfFhuxxJcZF4OWyJSdFISkzClpCIQf/OeUpSHA5N7etDbW9DczoJuN34vN7Ih7lo47MUrvC8YxdfoVC8ScUu35xm2/FFNTU1VFdXMzg0gMVkYdOuXez8wAfQlZQgZ2cjJSTGbwnjg2Ztbe0sWLiQ7OwsdLrIoBnj74xbtm4hIzNz0qDZRnbv2Q2Az+fj+LFj/Pd3/oumpkbuvvseMWgmCFfg9/v57W9+w8svvsRf/82jLFy4iJTUFBRFwW638/qrr3L+3Hmyc3IoKi6ir7ePvt5ePv7ww5SWlZKYmEgoFKLq0iVef+017PYBHnroIeaUl5MoS2j9/SjtbQw0NnDx5EneeutNAEpLSpm/YAH5+fnIkjyeMqbJJVcRm9Pf3bZEt9eQkMjKziIxMSkyHSw5GX3l4imDZpKmaZrqdqM0N8GkaWDXi32vv8Hrr71GS0sziQmJ3HrbbXzg4x9DV16BdJWW77//6zeoqalGrzeg1+tjhitlSeLW22+jcvFiXnz+BcwWM5WVlaxavTpapq21lTdef50L5y+wdt06brr5JjIyM0XCFYQ4oVCIM6dPc+nSJXbuvIG8vDysCdbo+vq6Oqqrq+nr7SMjMwOdrMNsMbPzhhuwWq1IkoQ2/sl8J44fp621jaXLllFeXk5ySjKa34/S3ERPWxuHDx3mV089CcD69RvYvWcPS5YuQdbpJu3R9UGXX4CcnR2zTNLeqd3+J/arJ5/iV08+SXV1NTabjY994uM88uij8cWmaGluZmxs7Iod2Xl5eSSnJGO329HpdCQlJZGSkhJdHwwGcbtc9PX1Y7MlkZWVhdFkEhc+CMKfSGtrKy+98CLf/ta3ANizdy8fvP9+1m/cEGlU/RmYtc21/Px8KubOZe686SMtPQ2TyUROTg5ZWVkkJsZ2Tej1emw2G6VlpWRlZ2MwGmPWC4IgvFuzNuGaLRYSExOvGEajEVmWMZvNmEymKe+QsiyjNxiwWq2Yxj9IQ7RuBUH4Q8zahCsIgnC9EQlXEARhhoiEKwiCMENEwhUEQZghIuEKgiDMEJFwBUEQZohIuIIgCDNEJFxBEIQZIhKuIAjCDBEJVxAEYYaIhCsIgjBDRMIVBEGYISLhCoIgzBCRcAVBEGaISLiCIAgzRCRcQRCEGSISriAIwgwRCVcQBGGGiIQrCIIwQ2ZtwlUUhXA4HBOKoqBpGtN9UbGmaSiKQigUikY4HEZVVVRVnba+6eJqjyEIs5GmaYRDYfx+/ztGIBCIxsTxNZmiKISCQQKBAKqqzrrjaNZ+TfrFixcZHhpC00CSwGQykZaeTmFBARarFV3c99iPjIzQ2dFJR3s7wWAAk9lMRkYG5RUVoGkMDw/T19f/jn8ABQUFFBUXYTabxZdOCu8LXo+Xw4cP8cZrr8evmqKktIRgKITP62P7ju3MX7CA9PT06Pqa6mouXrzI0OAQt9x6C6VlZdHjaDZ8Tbruscceeyx+4fWkuqqa6qoqBgYGMJlMLF+xnLXr1sUXm+J3v32aUydO0tfbS19fHy0tLTTU1VFfV4fJZMJisWA2mwGoq63lyOHDHD50mOHhYYaGBunp6qa+vo7+vn5Gx0ZxjDg4e+YMXZ2dtLe10djQwIXz5+np6WGgv5/uri66u7qwWq3k5uViMplEwhXeF8LhMHa7Hbt9ALPFgtliweF0UnXpEnq9niSbjeSUFMwWC9nZ2QQDAbq7u+jp7iY7J4fs7GwAxkZHefvttzl98hRFRYWUz51LcnJy9DhyOBw0NjRy8sQJAMrLy6lcvJjCokJk+c/jZP3PYy9/D5cuXuDSpUuMOEZQwmE8Hg8NDQ089+yzHHz7bbq7ulBVlWAwyJEjRzjw1lu0tjRjtVhITU3FaDTiGBnhwvnzdHd1o2latHvB4/XS3d3NkcOHo/VE4x1awIIw2+gNesorKrjxppuiUVlZSSgYpKi4iA0bNkSXb9i4idVr1jBnTjlnTp+hrqaGkeFhFEWhsbGR+to6PB4369avJy0tbdY1WmZtC/elF14gLT2d+z/0IW6/4w523LCT4pJihoeHqa2pITs7m4q5cxkZGeEnTzyB2Wzhrz79KXbv3cPqNWtYt349W7dtIycnh8VLlrBq9SrWbVjPxk2bmDdvHiazmepLl/jgh+7n4b/8CzZu2sTGTZuoqKjAYrEgSdKs+2MRhOnIskxiYiLZOdnk5OaQk5vDyMgIp06eYs2aNaxavZpFlZXk5OaQmpZKdlYWycnJHD50kEAwiNVqJS8/n5/++CeMjjpZuWoV23bsiB5HE0QL9zqnk3UYjSbMZjMWi4X0jAxKSkvxuD243R7C4TCusTECfj+SLGG1WjGbLpdPTk5mYeUi8gvyMRqNWCwWLBYLJpMZo8GAJMsYDIbocovFgsFgQJZlkWyF9w1JkpBlGb1eHw1Z1kWX63S66HKdTofRZCInJ5dbb7sd19gYL730Eq++8gpNjY0UFRWzZds2DAbDrDyGZADN70fp6kTp7Ljuwjw8RLrfT44SJjscIsHhROnrQ1OU+OdyVZqmEQqG8Ho8mC0WTCYTOlnGYrWSmJiEY8TBieMnqKmppbenF4/HgyzLpKamkpCQEF+dIAi/J1mWsSXb2Lx1CxmZmbS3tfH6q6+RkpLCgoULKCkpiUm2WiiE0tOD3NtLgtNBjhImRwmT4nFjGLCjXqe5Sx0bi3neAJIaDGrq0CDKxYtogQBKKEgwGJkSpTG1P/La33OuveTVnD51ilMnT9LT243VbGX7rl3ceP/96JcuQ0pMRLrC6ORfPvwwqqpxz333UVm5CEmWuXThIs89+yxJNhs333wzW7ZtRVEUvvXNb3LsyFFUVWXd+vXMnTeP4pJi8vLysdmSMFssMaOg3V3dHD1yhP/6znf47COf5QP33x/z2ILwfvf6a6/zja9/nbvvuZsdO3cyb/78mPUTs31+8sQTPPPMM7S3tvGpz3yaXbt3UzF37uVyoRDa6CjhSxext7Rw9tRJXnnlZQAqKxezds065lTMQZZjZx1dyR+claatILLQZDSi0+sjd/UG9AsXoSsriy0Zbm3VlNZWCPhROzrob26iqamJ3r4eQqFwTGEkKVL1tA86aXHMqUDk9nTbTVoz7emDhITH68bj8RAMhTAbTazYtZsNd94FZjP6BQuRc3LiN4PxhNvY2MicOXNISUnF4XCgKgo5ubnccdedzJs/n+TkZAA6Ozo4ffo0Rw4fpqOjg7HRUXQ6Pfl5edx1z92sXLWKvPz8aN0i4QrC1V1LwtU0je9/93s8+8zv6Ovt44P3388tt93GsuXLouWU7m6UxgYIBBiuukT9ieMcPxnpw01KTCIlOZmEBCvjmSmSTyL/pjFp6fQFkMbzzvTrpanrxm/LkszCRYvIyckBvR65pBT9suVTEq7uy5/+1GPa4AAA6tAQo7099HR0MNDfh9flIuD1XA6PB/81RGw59+VwXyk8+DxufO74cBHy+0FR0AMmWUfenHLy58+HcBgpMwvZZot5QhNeeuEFPB4PJSUlZGRm0tbWis/vZ+nyZaxZu5b09PRoX6vVaiU1LY3CwkLmzZ/PnDnlJCQm0NPdQ09PDykpKZTNmRMdCBsbG6Ors5NTp06xZu0aKhcvjn94QXhfa2lu4djRoyxcuJDSsjIyMjJi1vt8Pmqqqzl+7Bg+v59ly5bT3d1NSkoyJaWlGI1GJElCGxlB6+uLbNPXh6OzE3tfL3pAC4cJ+nx4XGO4R0fHw4l71Ilr2hi9fNsZvy4S0W2d08eY04FrIkYnbke2yc3KIjXJBhpI6WnIuXnIqakxz3vKoJmmadN2JbwbE+9e7xRqNCZNq4qLiVOP30daWhoLKytZu349lZWLSU1NZXh4mLHRUYKBQHQ/DAYDBQUFrN+wgVtvu41777uXm2++mfkL5lNXV0dzcwuBQCC+ekEQfg/hcJiR4RHeevNN/D4/y1es4OZbbyEYCFBXW0dDff0Vj/0QMDYeTlVlKBRkwO/Hfk3hiw3f1Oi/anjp93npmwjvRHjo83rxhd95XGlKwp0w3niOiT83KSmpLFiwkPXr1nPXPfdQXl7OSy+8wKlTp+i329HGL+eNvyQ3MSmJirlz2bFzJ2azGa/Hg9/nj69eEIR3SdM0fF4fHR0dvPbqa+Tl53PnnXeybv16FlVW0t3dzb439hEMBqdNuD6gC2lSyO9hTK733YRMNzLe+J2dxpSEazAYsCUmkZaSSlpqWkykp6aSnhKJtKtEakrK9JGcQko0kiNhmxrJNlskkmyYTeb3ZI5dWVkZm7ZsZtOmTbzx2mscevttOjs6OHf2LC8+/wInT5zA5/NFf8lOp5Pa2trIJcEZ6SQmJcZXKQjC76GutpY3XnuN4uJilixdQlFxMSaTiZtuvYWs7GyqLl3i7JkzjI6Oxm+KFShBowSNUgnKZJgjS8yRJcpkiTI5siwmJCi9lgBKYiLyOO8cKiWayrVkCEkZHNTUnh7U3h7U4SG8wyM4HCO4PR5URYUrdC9MuzS6cNq1MGXN+L1pik8sam1ppbW1BYdzBLPJwoZdu9l+773IefnIBfnItsjAV7y/fPhh9HoDD370oyxbtgyT2cTAwADnz53jqV8+SUpKCkuXLaO4pJi39x/A5/ORX1BAamoqmqYxMDBAS3MzObm57Nq9m42bNsL44J4YNBOEqzty+Ag/+uEP2b1nN+vWr6d0fPDI5XLx9oG3eXv/fpatWM6mTZsoLStDVVXcbjcvv/QSZ06dYt78Bey5cS+FNlskN/X0MFhfz6WTJ3j77f0A5ObmUVxcTEZG5rSD7hOuuYtUi09FcdtNU01kkYaExJyyOaRnpIOsQ0pPR794yZRBM0nTNE0dG0OprYG4T+65Hrz15pu8ue9N2tpaSLAmctPNN3PPQw+hW7gQyWiMLx71T1/7R3R6Pbfceivz5s/DaDSiaRoej4df/vwXNDU2kpyczM233MLrr71GbU0NLreb5ORkNE1DkiRsNhv33ncvlYsXkzbpAzbsdjsXzl/g1089xQfu/yB79u6NeWxBeL9rbGjg4NtvU7l4MeXl5WRmZQEwPDzMhfPnaWlu4cabbyIrKwuTyXR5u8ZG6mpqGRwcZNfuXRQVF4PfT7i2hr66ek4fOcxLL74AwPLlK9i8ZSvzF8yf8mFU77XpujeYvFwDSR6/ulSSkBITkefMQZd3eXYTEwlX0zRQFLhCpX9Kv/n1r/n1U7+iZvzTwh762Mf4zF8/ArrIlSxX0tPTA0BKSgoWiwVZlqN9tG6XmzHXGEpYITU1FUmScLlcDA4NMup0YjQYSElNJTsnhwSrFf341WMTgsEgXq+X4eFh0tPTSUlJmfTIgiBMfNSpXqdD1umix486/lGniqJEZyJMPo4n1mmqGnvcKQo9+9/i5DPPXFcJN54kSWA0ol+5Cik5GSmuO3TWfjzjxKyCyGWGly+11cY/hCYcDqNpWnR9OBwmEAgQCgaRZRmD0YjZHOk/jk/sEzMoQqEQBoPhz+aj4QThz1l71SX2Pfc8P/rhDwHYtn07t99xJytXr0L/R06474pORkpNQzIY4tdMHTSbLUwmU+Ty3biWsCRJ6HQ6TOOfmTCRcI1GI0lJSaSlp5Myfjlv/LYTJq4bt8RdgSYIwh+PmpCIL8nGkKxjSNbhslgJp6Uh5+Qg5+ZeP5GVPW2yZTYnXEEQhOuNSLiCIAgzRCRcQRCEGSISriAIwgwRCVcQBGGGiIQrCIIwQ0TCFQRBmCEi4QqCIMwQkXAFQRBmiEi4giAIM0QkXEEQhBkiEq4gCMIMEQlXEARhhoiEKwiCMENEwhUEQZghIuEKgiDMEJFwBUEQZohIuIIgCDNEJFxBEKImvmg1HA5Hvsxx/L7w3hAJVxCEGKqq4vF48Pl8KIoSv1r4A8zab+1l/CuXPR4Pzc3NDNjtjI2NEQ6FSU1Lo7i4iIKCApJsNrxeL91dXXR1dWFLTqastJSMzMxoPYMDAwwODqKqGkXFRUhI9Nv76ersJBQKodPpMJvNJCQkkJmVRWZmZvQroAXheqcoCiMjI5w/e5ZLly7R19ePz+dDliVsNhtFRcWsWr2K8vJy9Ho9v/j5z+nu7qGwsIB7P/ABkpKSMBgM+P1+ujo7OXHiBLYkG7fefhtOp5P9b73F6ZOnANAb9JjNFpJsSeRk57Bw0SJKSkqwJdvid2uK1tZWXnrhRb79rW8BsGfvXj54//2s37jhz+bLXHWPPfbYY/ELryfVVdVUV1UxMDCAyWRi+YrlrF23Lr7YFF6vl5bmFk4cP875c+fo6ellaHCIAbudnu5uOjs7GR0dJT8/H7fLxdkzZ3ntlVdpb2sjPSOdzKys6C+xtaWFqktV9Pb0kJubSzAYoLqqmrcPHKC3txfHyAh9fX20trbS0dGB3W4HwGwyYzQZ4/ZMEK4fgUCAwYEB3tq3jwvnLzBgH0Cn10caDIDX42XAbsdisZCSmorRZOLxH/6Q0ydPMTY2SnZODmlpaVitVvx+P22trby1703cHg+bNm/C4XDwysuvcOjtt0lNTQUklHAYt9tNT3c3drsdf8BPeno6BoMBWb7ySbfD4aCxoZGTJ04AUF5eTuXixRQWFV51u+vJn8devgsTfU49PT289eY+fvqTn3Dx/AWUcJjs7Gxy83Jxe9wcOniQF557npGREUZHx2hsbOSN11/nxRde4OKFCwwPD0frHBwcpK6ujtraWlwuF263m7bWVk6eOEF/Xx/BYJCh4WGqq6p47tlnefwHP+TVl16mqyvSAhaE69Xo6CiXLl3iFz//BX19fWzYtJEvfPHveOwfv8b/+of/zf0f/hD5+fn4fD6cTieaphEMhtAbDHi9Pl5+6SXsdjuqqgKgqhrBUIhwOPJ3r2kaoVCI9Ix0HvrYR/nEJx/mgx+6n02bN2E0Gnh7/35+99unqautxev1zvr+4lmXcBn/Jb/+6mtUXapi/oL5/O0Xv8gn/uKT3HXP3dx73318/gtf4It///fc98EPYDKZkCQJSZKwWCwsqqykq6ubs2fOxFcbQ9bpSEpKYuu2bTz8yU/y2Uce4Wv/9E88+jd/w+IlS/jd009zYP9+2tvb4zcVhOtGa0sLL7/4Ejk5Oey5cS979u4lPT0di8VCeno6y1es4OG/+CQ333oLFXMrotstWLiAufPmcvTIUdrb2nC5XDH1xjMajGRlZVNYWMj8+fPZsnUrn3nkr7lh1y78fj8/++nPGBwcjN9s1olJuMPaED1a13UVDuswgQwfWm4YJSeEmnj1TvyA3093dzc11dUYjUZ27d5NeUU52dnZpKenk56RQV5eHpWLF7N8+XKSk5PR6/VIQGJiItt37MDr9XLh/HmcDgfhcDj+IaJ0Oh02WzJZ2dnk5ORQWFjIylWr2LxlC/kFBTTUN1BXUxO/mSBcF8LhMHa7nYaGBhZVVjJv3jxSUlKip/YGg4GEhASysrPJysoiKSkpum1mZhZz5pRTUFBAfV09zU3NMXXHk8brMxlNWKxWbDYbuXm5rFqzmuKSYupra+nu6sLjdsdv+p4bmSbPDWszk+xlgLAWZkwbZYQhBjX7u4ohBv6o4TaNEkoJQoaKmhbGb/Xh1lyoWuQUJp7P76ezvZ2hoSHS09NZtXo1FotlSh9PcnIy2Tk5WK1WdDodABarlVWrV5Nss9Hf109tbS0+rzdmuyuZaCVnZmayaNEiVqxYgd1up6WlBU0VU2uE64/f78fhcOB0OimvKCczMwvGzxC9Xi9jY2PRiO8as1gsFBYVsXXbNtra2qitqcHv91/z37kkSciyTHlFBaWlpTidTvr7+qdtKSuagksbwy25CJh8aEkqWpJKyBLEq/cwxihj2juHQxuhT+uhk3Y6aKGdZhqpoYUGuminT+uhT+thSBuYsu3vEwEtEP9UkDVNw4+Pdlrw4EbVVMLhMKFQ6HKEYyMcDhNWZiYiiVWLhASjOOihizDhaX+5wUCAvr4+dDodqWmppKWlodPp0DQNVY08t4mYmGc4Qa/Xk5Obw6LKRVitVl575VVGHI7Iw78LFquFirlz8ft8DA0ORfu3BOF6Mjo6imtsDFmSSE1NxWK1RNf19vTS0twSDXu/HY/HE7N9ZlYmt91xOyMjI9TV1f1ef+tpqamkp6ejaipOpwNvXANH0zRCBOmig259OyPJg1ASgpIQ7gwnPcZOWpRGmpX6d4w6pYoj6n4a1Bq61A461Faq1HM0q3U0qLUcUt/kkPom59VTNCsN7zpatEZaaYrGKM6Y5wIgDauD2hAD+PAxxACtPc3UVlfT3dFFKBiMLw+AFPtf7Lqpi6ZxuVB06lTMj8vrh4eHGR4awufzYbZYuHXnHdx/y4OYsZBNHjYpdjpJb08Pr7/2Om/ue4P1Gzfy2UcegfGBr+qqKo4ePhItm5uXx4033YTL5eK5Z57hwIEDPPHTn+B2udm37w2ef/Y5vvyVr+BwOjlz+jShUIgHHnwQnU7mzX1v8ta+fXz84Ye55bZbJ+0BOB0Ozp45y/e++10qKir46te+htFknNLKFoQ/pYGBAZ757dP8+Mc/5p/++Z9YtXo1qWlpKIrCv339X6mtrUVRFHw+Hxs3bWLrtq0Ul5Tw2U9/hkWLFnH7HXdQMbeC7/zntxkaHKSkrJQ5c8p54fnnycrK5Etf+Qq9vb1897/+m5bmZr75rW+RmZmJyWyK7oPb7eblF1/in//P/+Fzf/t5tu/cSUlJSXS9U3MwSD8+fNT313D4zNu89tLLAGRkZpKbl0dKWhryNIknZokEil7Bn+hCs4bAEHljCBJEhw6dpI+06Xx6jB4rRp91fLOp9U5dJCFLEstXrSS/sAAdOtLJopgysqTsmJK6z331bx5z4gDAyQhdPZ3Un6un7kINvZ29DPQOvLvomYjBSbenKTce9ol14+XscTE2MkbIF4YwGJL0zKuYz6LyJYQIkYQNixR5YSZ4vF56e3qoqakmNzcvOoXM4/EwYLfT0dFJKByKzM0dGGDFypUoikJjQwPt7e3cfucdZGZl4nK5qLpUhc1mwznqxOP2oKoqS5cuRZYlWltbaWttZfmKFcydNy92H8bn/lZfukROTg7btm9Hp9OJebnCdUXTNJqbmzh96hRLly0nNy8Pmy3SgHGMjGCz2UhITKC2ppbU1FSKiorJys7ilZdfISsri0WLFpGXn0coFKK3p5ea6mpycnJobWnBlmxjy9atuFwuTp86jWNkhD1795KQkBAzZ3ZwYJBLly5x9uxZbrr5ZubMmUNCQkJ0vQsXI0RmDNm9vbTbW2jraEEyQEgNMOpxMjDST/9g75Tom3TbPtbDoLeXYZcdR2CAsYExxpoDuLt9uLq9jPa7cDodjLZ5cXS6GO504GgcY6TNwUh7XLTFh5ORdif+gSBDLSN0VXXTW9VPR1UH9VUNVFVVRWNKk0tSdOj9BjSPjOZ+96FGQ4oN15UClLH40KKhukBzS2huGa4+XgaAyWgkJzeHcFhhdNSJy+VCVVWsVislJaVs3rKZdevXk5CQgN1uJxgMoMX1ByckJFBaWsratWupqa6msaGBUDA4bRdGPFVV8Xi9tLS0oDcYSE1NxWA0iGQrXHesVispqakkJdloa2tlcHAQRVGQZZnb7riDT3/2s3zowx+msLAQs9kcv3nUkqVLyc3Lpa+vl6amRsbGxuKLTDExXaytrZWe7m7S09PJzc2NGZibjqaCFohEyBPG6/DiGhiLJNBpYnQ8xkZHcfuceBxufE4vwV4FtdYSDaXJiNKjR2nXo3TLhHtBqzOg1RqvIQyoNXqanmvnxONnOPb4KV57/A2eevxXPP744zExJeGGjUF8KW6knDBynnJdBaZ3Tnhmi4WS0lIsVgv9/f1UXbpEKBTCarVSVFzE+g0bWLNmLbl5efGbxsjLz2fPjXvp6+2lob4hZl7u1YRCIYYGBzl+9ChpaamUlJXGFxGE64IkSeTm5rF06VJOnzpFQ309gcDUgZ53kpKSwtx58ygvr+DIocP0dHfHF5lCURScTicH9h+gtraWdRs2kJ2Tg8l0ubthWn4JtVf3rkOx6wgPjseIjOL90zSAdF/46t8+5iEyFcPFGA73MM5RByElhDnBQkJSItakBBLiIzEBa5IVa1LCpLBGIjESlvGfMZEwsc6CJdGKJcGKJcESCev4zwQL5vGfsk5CJTJwZjDomVuygMrypQAkkzKlS0GWZUwmE/9/e3ca3dZ533n8e3EBAuACkKC4ixBF7ZJlS5YpibIsW4ol2U4aW5PYsZOetpOZSdo003TmTGM3GU8dp0lP23E2N0nTSd0XPZVieYsXLV60UZJlk7JW7vu+k9iIhdjuvAAIkSBpx2kK0/T/c87/iLwbQAr3x3uf+zz39vX1MTQwSGdnJ7m5NjIyMjGnx3oreL1eqt+tZmhwkN179qAoCi3NzYkmhaysLFRVJc1opKOjg4H+ARwOBwUFBWzavDnRpNDW1sqGjTdRWlqKx+Oht7eXt8+f56033qSjo4O79+6jsrIyPsJGiIVFURQMegOZmZk0NjbQ091DV1cnEx4Pw8PDdHV2ce3aNS5cuEBBQT4rVq6c0aSwbv168vPzURQFVa9HQ+Odty8QDAZZvWb1jCaF9tZWrFYr7R3tXLt6jXNnz/HySy/R19fHqtWrOXDgAKX20lmB68OLh9gR84h3iK7BDjq621DSNdRMBTVLQc3Sxf+dVpnTC1Qb6G2gpivoszVUaxQtZ5Jo3gTRPC9Rm4+oxU9YDRBUAgQJMJk+QcDqIZCdXO5E+a3xyvZwy2c2cutnN7N61woqdlWw58497N21j127diVKcUbHtTFG8eDGyThDjgH6e/sYHx+PX8Un3ktgtpmn2NO+jn8591oxiXXn2f7UlI62djra23A6nJjT0/m9vQ/wxc/+AVlYWEI+GUpm0pox777zDlVnqqivr2P58uWULi0lOycHnapjfHycmupqIuEw/+vRRwkFQ7z68suJi2bF8aPfYDDIibfe4vnDh6mvb+COO+7gj778ZVRVxxuvv8ErL/+aW7dsYf36DYRCoUQ7scfjJnfJEu5/4AHWrV8/60MkxEIRDoUYHx/n6JEjNDY0EggEKCouIs2QhhYfIt/b28u27dvYXllJYWEhf/3kk6xYuZK9+/axalVsMEQgEKCttY2f/PjHeNxubt+5kz/+2p8wPDzMoYMHuXD+bTbctAG93kA0GiUQ8ONxu1lWVsaW227j9tt3ojfoZ11Y9mhuxhjBg5umwXrOVp/hyMuvAFBQUMDS0lJsublzXqyfHk+KKUrUHMKHF8UcIaIPEmQSLZ40KnpMmpmIT8EwYY5fNIvNmzuibkzQ4hfXKiq3Yy9bhg6VbGzYWT7ropmiaZrm1bx004HGh+vSkQrHjx7j2LGjtLe2kpGRyf0HDvBHX/oydpZjUAzJiydEIhEaGxo5efIEb77xBh63ByV+84xwKEypPda88OAXHsLlcnHsyFEuvH2ep374QwoKCyHeHutwOPi3f/1XTp44yW0VFTz08BdQdTpOnTzFi88/j8vlinXq1uuxWq2sXrOGim1buWv3bqxWK2lpci8FsbBpmkYkEqGutparV67Q1dWFy+kiLX49ZN269ay/aQOFhYUEAgFee/VV8vPzWb9hAwUFNwLF7XJz4cIFhoeGKFlawl27d+N2u6l+911qr9cCYDAYMKebseXYWL1mNaV2O1arddq7mW1Sm6SbDtp6W6g6e4ZnDx0CYHtlJXv338PNt9yc6Ev/fgL4GaSfMCEm8OBmPDHPiBkbeajxsLSxZMa6H5YePYUUk6vcuAkWU4Eb1aIE+fBtN6nw3OHDPPfsYerq6rBYLPzBH/4hX/vTr5PG+9+NS9M0Jicn8Xg8uN1unA4HXq+XSCSCzWbDYrGQZbGQnZ1NOBzG6XQyMTGB3W5PhOTUB3FsdBS32016Rga5tlxQYh8uhyN2FjAVuKqqYjSZSE9PJzMzU3omiI+FqbPNQCCA3+8nFAzGPteKLnZ3L6MJk9mEXq9H0zTcLhd6vR6jyYTBcOOgJxKJ4PN6CYXDGAyxpopoNIrP6yMQ8EO8GUPR6WJ32DMaMaSlfWBYRrUoIYK811fNa1Wv/NaBGyVKmBAjDDGBm8i0q/AKOvToKaCIdDLR89vffUxFpZQyMshEr8zczqK+PSNJH6ZgMJjosTD9zkRa/IY3mqah0+lmhWQ0GkXTtMRosuR1pkbNEP9ACSF+9+o6r/PqGy/z/37xTwDs3rOHBw4c4LatFb9R4E7xMkGIucYYKGSS9e8KWwAdOqzkzArb2LxFbiokzWYzVquVnJwcjEbjjLaiqcCc74h0at5UGE9fXh8/sp0exkKI3z1zNIN0XxbKmIoypmL0mLGGclhCPnlKwW9cZcoKVinr5qi1FCkls5b/sJWr5M0ZtnwSAlcIIRYKCVwhhEgRCVwhhEgRCVwhhEgRCVwhhEgRCVwhhEgRCVwhhEgRCVwhhEgRCVwhhEgRCVwhhEgRCVwhhEgRCVwhhEgRCVwhhEgRCVwhhEgRCVwhhEgRCVwhhEgRCVwhhEgRCVwhhEiRRRe4mqahRW88byzZ9GeRTVU0Gk08t2yudYT4pJq+j4TDYUKhEJFIZMZ+krw/JUvMm7ZfavEHtIbDYcLh8KxtLlaLLnBjz7wPEA6H5/0PjEajhIIhJgOThEIh3C433gkv0ejCe0y8EB81Lf6k3v6+Pjra2xkfH2dy8sZTvkOhEMFgkHA4PGO9KZqmEQ6HCQQCRCKxJ+WGw2EcDgc93d309PTgcrkS8xYz9YknnngieeJCUnu9ltrr1xkeHsZoNLL51s1s2749ebGEgf5+Xnj+Bfr7+tHpFJYsmfl8+VAoxKX33uNiTQ1tra2kGdN49ZVXGBocxG63Y0gzyMMghYiH4sDAAM8fPszpU6eofreaq1evUVNdzUD/AAAFBQVcePsCF2tq6O3toXTp0hmPTgfo7+/n0nvvcfTIa+Tl5dPd3cWLL7zAmdOnufTeJS5fuszFmhqcTgdGo5HsnByY4wnYDoeD5qZm3n3nHQBWrlzJTRs3UmovnfFQ2IXs4/EuPwSXy01NdTVvvfkm9XX1M05zNE0jFAzx9vnznDt3lqamJnxeH729vQwPD39iTmuE+E1EIhGcTicXay7S2tLKyMgILpeT+rp6Tp44wdmqKgKBAN1dXZw/d443jr/OxMTErDPFrs4uzp87z5nTZxgZHaGvr4+LNTV0d3UzPj7O0NAgV69c4chrr3H92jX8fv+M9ReTRRe4VquVbdu3Mzw8RHd316wADYVD1NfWodfr2XLbFlauWsmffv3rfP7BB8nKykKn081oZ5qrhPiksFqt7L/vXr79fx7n6Z/9lL9/6im+8T//B0ZjGufOnmN0dJQVK1aQkZFBS3Mzbrc70bQwtb/09vTQ399Pxdat5GTnUFZWxucfeoinfvgDfvz0T/je97/PV/74q3R1dnHlyhVGRkYW7X626ALXYrVQsbUCVVUZ6B+gp7s78QHwTnjp7OhkZHSU3NxcVq5chc/n4/SpU1y5fJlIJMz42BjHjhzh+cPPUV9XzzO//CXf/+5f84P/+xSnTpxkbHQs+SWFWJQMBgN5eXns2LGDoqIidDodqqpSUlKCxWpFi1/4Wla2jJKlS4lEI9TW1jI2FttHNE3D5/PR29OD0+Fg67ZtLMlbQtny5WyvrCQzKwtVVcnIyMBut2M0GmMXsCOL91qKDkAL+Il0tBNpb1twZR4ZJs/vpyQSpjgUInNsjEhvL9o8DfRms5llZWXk5eXj9XppamwiHAoB4HQ6aWxowGg0UlhYhM1mw+fzceXyZVpaWohGo0xMTHDpvUscP3aMkydOMDw8zITXS1dXrN2ppbkZn8+X/LJCLDo6nQ6TyUR+fj6qquJ0Ouns6OTqlauoqp7Va1ZjsVjIsdkoKSlmyZI8aq/XJg5KIpEIPd09jI2PYzKZWLt2LVlZWWRmZpKbm0skEmFkZITmlhauXrlKfn4+dvsyLBbLrPbbxUKnTQaIjo4SaWoi0thIuKGBUH09wbq637pC9fX/rgo3NCQqo7+PYt8E5dEwy0KTWIeHibS1ojmdaMFg8s+DXq/HarVSvqIcgNrr1wkGg2iaxtjYKNeuXaWkpISSpSUY0gwEJ4P0dHczPDSEpmkEg0H6+vtobm6mp7ublatWseP2HdjtdqqqqmhsbMDhcCS/rBCLmtvtprW1laqqKo6+9ho6RaGiYis2mw2TyURRcTHl5eU0NjQwOjqS6EbWUF9PwO+npHQphUWFGI1GiIexw+GgrraWk2+9xbGjR1lWVsa6Deux5dpmvHZUixLQ/EwqAcL6IJopimaKEjGECeomCeDHr/kWXIW12IHedLpobx+RhgaIN3RHIhECgQA+nw+v14vP50uU3+9PVMAfiFVg7pqcnGRycpJgMDijQsFQosKhUKIfXnJFIhEikUi8f2zSu/b5CF+5THRsNGnGDWvXrsVoMnL9+nUmJyfjgTvG9avXKC8vp7i4JHmVGdatW8djf/mXfPrTn+buvXu58647KSwswOFwMDo6/+sKsRj19fZx9kwVhw8dorurC4vFQqm9NDG/sKiIVWvW0N7WxtDQEJOTk4TDYWprr6M36Fm/bv2Mo9ZgMEhXRyfHjx7j9eOvMzY2hn2Znfz8/MQyU0IE6aaTHn0H49kjUBaGsjAT+S76Tb2007Igy4kz+UdBCTU1atHWVgCiQ0OM9fTQ3dPNyOjIvP3iYr+2aYf8cxz9KwDznBbMnKokT5iaCsDw8AjDw0P4fF5MRhPb7t7HrgceAEC9+RbUpUtnrDelvb2d5559lqozVXznu0+Sl5fPubNn+cXPf863Hv/fVGzditlsprenlycef5w1a9fyzccepbe3lx889RSqTuUnP/0HFEVBURTqamt5/NvfZnvlDnbv2UPF1orklxRi0RobG6O/rz92Njg8RHNTExmZmfy3r34Vq9VKOBTm+rVrfOuxx/jM/Z/l3nvvxWKx8q3HHqV8xQo+e//93LJpU6L7VjgUYnx8nK7OLnr7ehkaGuLa1atUVlay/557ycvPQ1EUPJqbUYaZwEPTYD1nq09z5JVXASgoKKTUXkruktz36RaWFC6Jb5X54mne7Jov92LL67h58yaKS4rRoZJDLnaWk68U3FiepMCNtLbS1dTIpcYG2traCIZmn7J/lGyGNCr27WfrAwfgAwLX5/Px3OHDvPDc8zz8yMNkZ+fQ2NjI6VOn+N7ffJ9169cTDAbnDVy9qufpn/00sb36ujqefOIJbr11C3fu3s227dtmvJ4QnwThcJjBgQH+8ec/p6Wlhb/45jdZtXo1liwLnZ0dPPnEdygqLmLT5s3YS+383d/+Lbv37OFLv//75Nhy5myb9cavkfzV44+zevUaHnzwQW7edAs6nY4RbZh+egCoG77K2UunOPH6GxBvY1b1elRVN5V6M7Y7KyCTvp3rvUyZb54yzwGiTqfj9/7TATZs3IiKnhJKKWPlrMCd9WchqDfgNGcwpFMZQFlQ9WHiPz09neLiYkpKiqmtraW6+l3Gx8fYuHEj2dnZ6PX65FXen6KgKLo5//IJsRhp8SG907tDqqpKcUkJttxcopEIPT09BAIBFJ1CRkYmmzZvxuOZ4GLNRa5du0ZWVlZ8eRuKosw5jD49PZ2SkhJsOTYCfj9D8espHyQ2YjQYa9r0BQj4/DPK7/Pj9/lmlvdG+Sa885bXMzFnTXg8TLhnl8flIhyc3WabbFbgGoOTLHG7sEcjlKEtqDInv9kPUBRvV2qob6CmugaX08VtFRVkZGYmLyqESBIMBvF5fUTCNwYERaNRXC4XbpebSCRKbm5uYmRZeno6t265lclAgEsXL1JTXU3Z8uUUFxclthnw+2cM8SU++tPtduNwONDpdFizrYl5HxeKMitK5zRrKaOqYktPpzgnh6U5uSzNsSWqZI4qzsmZXdnJlZ2oIutvWlYKLVZsJjOZOhXzXG/2AxQUFLBm7VqcTieDg4MoOh0bb95Ienp68qJCiCSOcQeXLl3iX555hl+/9BInT5zgzOkzHPq3g7FhvPZSylesSOxPRpMx1rxgteB0Oulob2flqpUUFcVYqoUAAAUgSURBVBcntjk8PMyZ06d55pf/zLEjRzl96jSvHzvOswcPEQoGKbXbWbZs2byn9NPpVJU0oxFTuhmT2YzJbJqzjGYTRtP0Ms6qNKORNGPavGVIS8OQZrhRhmmVZsCQloZO/eCEUsI9PVq0qxPN5SLa34d7YICR4WFc7thfMJj/0D4+YHauibEv5zotmH6XoRkzkmloGgwMDDAwMMCE14MpzUTF3n3s/NznUKxW1JUr0S3JS14xIRQK0dbWxvee/C5ut5udd9zBn/35NzAYDOh0Ovx+P0ODQ/z4Rz9keXk5X/nKVxgcHORf/vkZdKrKX33nxm0mWlta+Yenn2bDhvVs3baNWzZtmvFaQiw2PT09vFdzkaNHj2KxZJGdnY1O0dHW3kZ2djYVFVt56OEvJC4sTzUT/NMvfsFbb76FFo3yF489yk033URm/KyyuamJM6dOc+HCBYpLiklPz8Dr9dLX00NhURH33ncfd+zahaKLbdOlORlmED8+GgfrOHvxNMdfPQJA7pIlFBQWYs3JvtGsmpQ5c2fMtAxKfBnLm3nXmD55jlxTdDp23LGTZeXlqOhYQj52yme14SrRaFTTHA7C1e+izdMr4aN0tqqKs1VVdHd3km7O4FN37+UzX/oihoqtYDS+719CTdNwu92cP3eOYDBIaWkpt27ZAvFG8VAohMfj4WxVFTabjW3bt+PxeKiprkan07Fv//7EtkZHRjl/7hwFhQXY7XaKS96/W5kQH3fBYJDR0VFqqqtpa2tjfHQMTdNYXl7OtsrtrFu3DlVVIb4/TR1g1dfV0d7Wjt/v51N778Zmi7XfAkwGArS3tXP58mU6OtrxTnhJz8hgxYoV3HnXXeQXxAZZTN/mJJO000Jnbzvnzp7l2UMHAdheuYO9+/az8ZabE+t85KbFUTGlswNX0zRNC4XQXM75wv0j9dKLL/LrF1+koaEBS5aFh7/4Rf7r1/4ExWpB0X3wL3nqNnBaNIrJZMJivdE+FI1GEx2wDQYDVquVSCSCy+UCmHGnsWAwiNPhJM2YhslkwmQyJeYJsRhNXZRyud34fD5C8YFG5vR0rFYrmZmZcx7wTHgm8Pl9RKfaeNNu3D0sGong8/vxuD34/T7CkQiqqpJuTifHloNxjoOoqBbBh4+OznaOHzvOP/7sZwB86u67+dznH2Tr9q0LJ3CnMWEiTYkN9JiiaHOe9y8cvzp4iF8dPEhtbS0Wi4X//F++zH//xjeSFxNCLHLt7e289sqr/ORHPwJg/z338PAjj1B5+44P3+voI/LBrbxCCCF+JyRwhRAiRSRwhRAiRSRwhRAiRSRwhRAiRSRwhRAiRSRwhRAiRSRwhRAiRSRwhRAiRSRwhRAiRSRwhRAiRSRwhRAiRSRwhRAiRSRwhRAiRSRwhRAiRSRwhRAiRSRwhRAiRSRwhRAiRSRwhRAiRSRwhRAiRSRwhRAiRSRwhRAiRSRwhRAiRSRwhRAiRSRwhRAiRSRwhRAiRSRwhRAiRSRwhRAiRRRN07TkiQvJrw4e4lcHD1JbW0taWhoVFRXcfsfO5MWEEIvcwMAgDfV1XKy5CMD+e+7h4UceofL2Hej1+uTFF6SPVeACmM1mMjIykhcTQixyExMTBAKBxPcSuP8BkgNXCCGQwP2PcezoUY4dPUprc0vyLCHEJ9jtO3dyz333sWnzJlRVTZ69IC34wG1ubqalqYnRsbHkWUKIT7Bly5axavVqioqK0Ok+Htf/F3zgCiHEYvH/AebkKs7mUM0rAAAAAElFTkSuQmCC;" vertex="1" parent="1">
          <mxGeometry x="980" y="30" width="348" height="628" as="geometry" />
        </mxCell>
        <mxCell id="cGMNiagJuGMT5GAcroAZ-10" value="" style="endArrow=none;html=1;rounded=0;exitX=0.991;exitY=0.172;exitDx=0;exitDy=0;exitPerimeter=0;fillColor=#1ba1e2;strokeColor=#006EAF;" edge="1" parent="1" source="pi9QV9mLhc3Nf6GCbJB_-5">
          <mxGeometry width="50" height="50" relative="1" as="geometry">
            <mxPoint x="1340" y="140" as="sourcePoint" />
            <mxPoint x="1460" y="220" as="targetPoint" />
            <Array as="points">
              <mxPoint x="1400" y="140" />
              <mxPoint x="1400" y="220" />
            </Array>
          </mxGeometry>
        </mxCell>
        <mxCell id="cGMNiagJuGMT5GAcroAZ-11" value="" style="endArrow=none;html=1;rounded=0;exitX=0.994;exitY=0.225;exitDx=0;exitDy=0;exitPerimeter=0;fillColor=#6d8764;strokeColor=#3A5431;" edge="1" parent="1" source="pi9QV9mLhc3Nf6GCbJB_-5">
          <mxGeometry width="50" height="50" relative="1" as="geometry">
            <mxPoint x="1360" y="280" as="sourcePoint" />
            <mxPoint x="1490" y="220" as="targetPoint" />
            <Array as="points">
              <mxPoint x="1370" y="170" />
              <mxPoint x="1370" y="280" />
              <mxPoint x="1490" y="280" />
            </Array>
          </mxGeometry>
        </mxCell>
        <mxCell id="cGMNiagJuGMT5GAcroAZ-12" value="" style="endArrow=none;html=1;rounded=0;exitX=0.996;exitY=0.464;exitDx=0;exitDy=0;exitPerimeter=0;fillColor=#647687;strokeColor=#314354;" edge="1" parent="1" source="pi9QV9mLhc3Nf6GCbJB_-5">
          <mxGeometry width="50" height="50" relative="1" as="geometry">
            <mxPoint x="1390" y="320" as="sourcePoint" />
            <mxPoint x="1520" y="220" as="targetPoint" />
            <Array as="points">
              <mxPoint x="1520" y="320" />
            </Array>
          </mxGeometry>
        </mxCell>
        <mxCell id="cGMNiagJuGMT5GAcroAZ-13" value="" style="endArrow=none;html=1;rounded=0;exitX=1.004;exitY=0.404;exitDx=0;exitDy=0;exitPerimeter=0;fillColor=#a20025;strokeColor=#6F0000;" edge="1" parent="1" source="pi9QV9mLhc3Nf6GCbJB_-5">
          <mxGeometry width="50" height="50" relative="1" as="geometry">
            <mxPoint x="1360" y="370" as="sourcePoint" />
            <mxPoint x="1550" y="220" as="targetPoint" />
            <Array as="points">
              <mxPoint x="1350" y="284" />
              <mxPoint x="1350" y="300" />
              <mxPoint x="1550" y="300" />
            </Array>
          </mxGeometry>
        </mxCell>
        <mxCell id="cGMNiagJuGMT5GAcroAZ-15" value="" style="group" vertex="1" connectable="0" parent="1">
          <mxGeometry x="1430" y="60" width="150" height="160" as="geometry" />
        </mxCell>
        <mxCell id="pi9QV9mLhc3Nf6GCbJB_-6" value="BME280" style="rounded=0;whiteSpace=wrap;html=1;" vertex="1" parent="cGMNiagJuGMT5GAcroAZ-15">
          <mxGeometry x="10" width="130" height="130" as="geometry" />
        </mxCell>
        <mxCell id="cGMNiagJuGMT5GAcroAZ-2" value="SCL" style="text;html=1;align=center;verticalAlign=middle;whiteSpace=wrap;rounded=0;" vertex="1" parent="cGMNiagJuGMT5GAcroAZ-15">
          <mxGeometry y="100" width="60" height="30" as="geometry" />
        </mxCell>
        <mxCell id="cGMNiagJuGMT5GAcroAZ-3" value="SDA" style="text;html=1;align=center;verticalAlign=middle;whiteSpace=wrap;rounded=0;" vertex="1" parent="cGMNiagJuGMT5GAcroAZ-15">
          <mxGeometry x="30" y="100" width="60" height="30" as="geometry" />
        </mxCell>
        <mxCell id="cGMNiagJuGMT5GAcroAZ-4" value="GND" style="text;html=1;align=center;verticalAlign=middle;whiteSpace=wrap;rounded=0;" vertex="1" parent="cGMNiagJuGMT5GAcroAZ-15">
          <mxGeometry x="60" y="100" width="60" height="30" as="geometry" />
        </mxCell>
        <mxCell id="cGMNiagJuGMT5GAcroAZ-5" value="VIN" style="text;html=1;align=center;verticalAlign=middle;whiteSpace=wrap;rounded=0;" vertex="1" parent="cGMNiagJuGMT5GAcroAZ-15">
          <mxGeometry x="90" y="100" width="60" height="30" as="geometry" />
        </mxCell>
        <mxCell id="cGMNiagJuGMT5GAcroAZ-6" value="" style="endArrow=none;html=1;rounded=0;entryX=0;entryY=1;entryDx=0;entryDy=0;strokeWidth=3;fillColor=#008a00;strokeColor=#005700;" edge="1" parent="cGMNiagJuGMT5GAcroAZ-15" target="cGMNiagJuGMT5GAcroAZ-3">
          <mxGeometry width="50" height="50" relative="1" as="geometry">
            <mxPoint x="30" y="160" as="sourcePoint" />
            <mxPoint x="-70" y="240" as="targetPoint" />
          </mxGeometry>
        </mxCell>
        <mxCell id="cGMNiagJuGMT5GAcroAZ-7" value="" style="endArrow=none;html=1;rounded=0;entryX=0;entryY=1;entryDx=0;entryDy=0;strokeWidth=3;fillColor=#008a00;strokeColor=#005700;" edge="1" parent="cGMNiagJuGMT5GAcroAZ-15">
          <mxGeometry width="50" height="50" relative="1" as="geometry">
            <mxPoint x="60" y="160" as="sourcePoint" />
            <mxPoint x="60" y="130" as="targetPoint" />
          </mxGeometry>
        </mxCell>
        <mxCell id="cGMNiagJuGMT5GAcroAZ-8" value="" style="endArrow=none;html=1;rounded=0;entryX=0;entryY=1;entryDx=0;entryDy=0;strokeWidth=3;fillColor=#008a00;strokeColor=#005700;" edge="1" parent="cGMNiagJuGMT5GAcroAZ-15">
          <mxGeometry width="50" height="50" relative="1" as="geometry">
            <mxPoint x="89.28999999999996" y="160" as="sourcePoint" />
            <mxPoint x="89.28999999999996" y="130" as="targetPoint" />
          </mxGeometry>
        </mxCell>
        <mxCell id="cGMNiagJuGMT5GAcroAZ-9" value="" style="endArrow=none;html=1;rounded=0;entryX=0;entryY=1;entryDx=0;entryDy=0;strokeWidth=3;fillColor=#008a00;strokeColor=#005700;" edge="1" parent="cGMNiagJuGMT5GAcroAZ-15">
          <mxGeometry width="50" height="50" relative="1" as="geometry">
            <mxPoint x="119.6400000000001" y="160" as="sourcePoint" />
            <mxPoint x="119.6400000000001" y="130" as="targetPoint" />
          </mxGeometry>
        </mxCell>
        <mxCell id="cGMNiagJuGMT5GAcroAZ-33" value="" style="group" vertex="1" connectable="0" parent="1">
          <mxGeometry x="1430" y="430" width="150" height="190" as="geometry" />
        </mxCell>
        <mxCell id="cGMNiagJuGMT5GAcroAZ-17" value="" style="group" vertex="1" connectable="0" parent="cGMNiagJuGMT5GAcroAZ-33">
          <mxGeometry y="30" width="150" height="160" as="geometry" />
        </mxCell>
        <mxCell id="cGMNiagJuGMT5GAcroAZ-18" value="Rain Sensor" style="rounded=0;whiteSpace=wrap;html=1;" vertex="1" parent="cGMNiagJuGMT5GAcroAZ-17">
          <mxGeometry x="10" width="130" height="130" as="geometry" />
        </mxCell>
        <mxCell id="cGMNiagJuGMT5GAcroAZ-19" value="A0" style="text;html=1;align=center;verticalAlign=middle;whiteSpace=wrap;rounded=0;" vertex="1" parent="cGMNiagJuGMT5GAcroAZ-17">
          <mxGeometry y="100" width="60" height="30" as="geometry" />
        </mxCell>
        <mxCell id="cGMNiagJuGMT5GAcroAZ-20" value="D0" style="text;html=1;align=center;verticalAlign=middle;whiteSpace=wrap;rounded=0;" vertex="1" parent="cGMNiagJuGMT5GAcroAZ-17">
          <mxGeometry x="30" y="100" width="60" height="30" as="geometry" />
        </mxCell>
        <mxCell id="cGMNiagJuGMT5GAcroAZ-21" value="GND" style="text;html=1;align=center;verticalAlign=middle;whiteSpace=wrap;rounded=0;" vertex="1" parent="cGMNiagJuGMT5GAcroAZ-17">
          <mxGeometry x="60" y="100" width="60" height="30" as="geometry" />
        </mxCell>
        <mxCell id="cGMNiagJuGMT5GAcroAZ-22" value="VIN" style="text;html=1;align=center;verticalAlign=middle;whiteSpace=wrap;rounded=0;" vertex="1" parent="cGMNiagJuGMT5GAcroAZ-17">
          <mxGeometry x="90" y="100" width="60" height="30" as="geometry" />
        </mxCell>
        <mxCell id="cGMNiagJuGMT5GAcroAZ-23" value="" style="endArrow=none;html=1;rounded=0;entryX=0;entryY=1;entryDx=0;entryDy=0;strokeWidth=3;fillColor=#008a00;strokeColor=#005700;" edge="1" parent="cGMNiagJuGMT5GAcroAZ-17" target="cGMNiagJuGMT5GAcroAZ-20">
          <mxGeometry width="50" height="50" relative="1" as="geometry">
            <mxPoint x="30" y="160" as="sourcePoint" />
            <mxPoint x="-70" y="240" as="targetPoint" />
          </mxGeometry>
        </mxCell>
        <mxCell id="cGMNiagJuGMT5GAcroAZ-24" value="" style="endArrow=none;html=1;rounded=0;entryX=0;entryY=1;entryDx=0;entryDy=0;strokeWidth=3;fillColor=#008a00;strokeColor=#005700;" edge="1" parent="cGMNiagJuGMT5GAcroAZ-17">
          <mxGeometry width="50" height="50" relative="1" as="geometry">
            <mxPoint x="60" y="160" as="sourcePoint" />
            <mxPoint x="60" y="130" as="targetPoint" />
          </mxGeometry>
        </mxCell>
        <mxCell id="cGMNiagJuGMT5GAcroAZ-25" value="" style="endArrow=none;html=1;rounded=0;entryX=0;entryY=1;entryDx=0;entryDy=0;strokeWidth=3;fillColor=#008a00;strokeColor=#005700;" edge="1" parent="cGMNiagJuGMT5GAcroAZ-17">
          <mxGeometry width="50" height="50" relative="1" as="geometry">
            <mxPoint x="89.28999999999996" y="160" as="sourcePoint" />
            <mxPoint x="89.28999999999996" y="130" as="targetPoint" />
          </mxGeometry>
        </mxCell>
        <mxCell id="cGMNiagJuGMT5GAcroAZ-26" value="" style="endArrow=none;html=1;rounded=0;entryX=0;entryY=1;entryDx=0;entryDy=0;strokeWidth=3;fillColor=#008a00;strokeColor=#005700;" edge="1" parent="cGMNiagJuGMT5GAcroAZ-17">
          <mxGeometry width="50" height="50" relative="1" as="geometry">
            <mxPoint x="119.6400000000001" y="160" as="sourcePoint" />
            <mxPoint x="119.6400000000001" y="130" as="targetPoint" />
          </mxGeometry>
        </mxCell>
        <mxCell id="cGMNiagJuGMT5GAcroAZ-29" value="+" style="text;html=1;align=center;verticalAlign=middle;whiteSpace=wrap;rounded=0;" vertex="1" parent="cGMNiagJuGMT5GAcroAZ-17">
          <mxGeometry x="30" width="60" height="30" as="geometry" />
        </mxCell>
        <mxCell id="cGMNiagJuGMT5GAcroAZ-30" value="-" style="text;html=1;align=center;verticalAlign=middle;whiteSpace=wrap;rounded=0;" vertex="1" parent="cGMNiagJuGMT5GAcroAZ-17">
          <mxGeometry x="60" width="60" height="30" as="geometry" />
        </mxCell>
        <mxCell id="cGMNiagJuGMT5GAcroAZ-31" value="" style="endArrow=none;html=1;rounded=0;entryX=0;entryY=1;entryDx=0;entryDy=0;strokeWidth=3;fillColor=#008a00;strokeColor=#005700;" edge="1" parent="cGMNiagJuGMT5GAcroAZ-33">
          <mxGeometry width="50" height="50" relative="1" as="geometry">
            <mxPoint x="60" y="30" as="sourcePoint" />
            <mxPoint x="60" as="targetPoint" />
          </mxGeometry>
        </mxCell>
        <mxCell id="cGMNiagJuGMT5GAcroAZ-32" value="" style="endArrow=none;html=1;rounded=0;entryX=0;entryY=1;entryDx=0;entryDy=0;strokeWidth=3;fillColor=#008a00;strokeColor=#005700;" edge="1" parent="cGMNiagJuGMT5GAcroAZ-33">
          <mxGeometry width="50" height="50" relative="1" as="geometry">
            <mxPoint x="90" y="30" as="sourcePoint" />
            <mxPoint x="90" as="targetPoint" />
          </mxGeometry>
        </mxCell>
        <mxCell id="cGMNiagJuGMT5GAcroAZ-34" value="" style="group" vertex="1" connectable="0" parent="1">
          <mxGeometry x="1640" y="430" width="150" height="190" as="geometry" />
        </mxCell>
        <mxCell id="cGMNiagJuGMT5GAcroAZ-35" value="" style="group" vertex="1" connectable="0" parent="cGMNiagJuGMT5GAcroAZ-34">
          <mxGeometry y="30" width="150" height="160" as="geometry" />
        </mxCell>
        <mxCell id="cGMNiagJuGMT5GAcroAZ-36" value="Resistive Rain Plate" style="rounded=0;whiteSpace=wrap;html=1;" vertex="1" parent="cGMNiagJuGMT5GAcroAZ-35">
          <mxGeometry x="10" width="130" height="130" as="geometry" />
        </mxCell>
        <mxCell id="cGMNiagJuGMT5GAcroAZ-45" value="+" style="text;html=1;align=center;verticalAlign=middle;whiteSpace=wrap;rounded=0;" vertex="1" parent="cGMNiagJuGMT5GAcroAZ-35">
          <mxGeometry x="30" width="60" height="30" as="geometry" />
        </mxCell>
        <mxCell id="cGMNiagJuGMT5GAcroAZ-46" value="-" style="text;html=1;align=center;verticalAlign=middle;whiteSpace=wrap;rounded=0;" vertex="1" parent="cGMNiagJuGMT5GAcroAZ-35">
          <mxGeometry x="60" width="60" height="30" as="geometry" />
        </mxCell>
        <mxCell id="cGMNiagJuGMT5GAcroAZ-47" value="" style="endArrow=none;html=1;rounded=0;entryX=0;entryY=1;entryDx=0;entryDy=0;strokeWidth=3;fillColor=#008a00;strokeColor=#005700;" edge="1" parent="cGMNiagJuGMT5GAcroAZ-34">
          <mxGeometry width="50" height="50" relative="1" as="geometry">
            <mxPoint x="60" y="30" as="sourcePoint" />
            <mxPoint x="60" as="targetPoint" />
          </mxGeometry>
        </mxCell>
        <mxCell id="cGMNiagJuGMT5GAcroAZ-48" value="" style="endArrow=none;html=1;rounded=0;entryX=0;entryY=1;entryDx=0;entryDy=0;strokeWidth=3;fillColor=#008a00;strokeColor=#005700;" edge="1" parent="cGMNiagJuGMT5GAcroAZ-34">
          <mxGeometry width="50" height="50" relative="1" as="geometry">
            <mxPoint x="90" y="30" as="sourcePoint" />
            <mxPoint x="90" as="targetPoint" />
          </mxGeometry>
        </mxCell>
        <mxCell id="cGMNiagJuGMT5GAcroAZ-50" value="" style="endArrow=none;html=1;rounded=0;fillColor=#a20025;strokeColor=#6F0000;jumpStyle=arc;" edge="1" parent="1">
          <mxGeometry width="50" height="50" relative="1" as="geometry">
            <mxPoint x="1490" y="430" as="sourcePoint" />
            <mxPoint x="1700" y="430" as="targetPoint" />
            <Array as="points">
              <mxPoint x="1490" y="380" />
              <mxPoint x="1551" y="380" />
              <mxPoint x="1700" y="380" />
            </Array>
          </mxGeometry>
        </mxCell>
        <mxCell id="cGMNiagJuGMT5GAcroAZ-51" value="" style="endArrow=none;html=1;rounded=0;fillColor=#647687;strokeColor=#314354;jumpStyle=arc;" edge="1" parent="1">
          <mxGeometry width="50" height="50" relative="1" as="geometry">
            <mxPoint x="1520" y="430" as="sourcePoint" />
            <mxPoint x="1730" y="430" as="targetPoint" />
            <Array as="points">
              <mxPoint x="1520" y="400" />
              <mxPoint x="1730" y="400" />
            </Array>
          </mxGeometry>
        </mxCell>
        <mxCell id="cGMNiagJuGMT5GAcroAZ-52" value="" style="endArrow=none;html=1;rounded=0;fillColor=#a20025;strokeColor=#6F0000;exitX=0.989;exitY=0.937;exitDx=0;exitDy=0;exitPerimeter=0;" edge="1" parent="1" source="pi9QV9mLhc3Nf6GCbJB_-5">
          <mxGeometry width="50" height="50" relative="1" as="geometry">
            <mxPoint x="1320" y="708" as="sourcePoint" />
            <mxPoint x="1550" y="620" as="targetPoint" />
            <Array as="points">
              <mxPoint x="1350" y="620" />
              <mxPoint x="1350" y="658" />
              <mxPoint x="1550" y="660" />
            </Array>
          </mxGeometry>
        </mxCell>
        <mxCell id="cGMNiagJuGMT5GAcroAZ-53" value="" style="endArrow=none;html=1;rounded=0;fillColor=#647687;strokeColor=#314354;exitX=0.99;exitY=0.876;exitDx=0;exitDy=0;exitPerimeter=0;" edge="1" parent="1" source="pi9QV9mLhc3Nf6GCbJB_-5">
          <mxGeometry width="50" height="50" relative="1" as="geometry">
            <mxPoint x="1310" y="688" as="sourcePoint" />
            <mxPoint x="1520" y="620" as="targetPoint" />
            <Array as="points">
              <mxPoint x="1400" y="580" />
              <mxPoint x="1400" y="640" />
              <mxPoint x="1520" y="640" />
            </Array>
          </mxGeometry>
        </mxCell>
        <mxCell id="cGMNiagJuGMT5GAcroAZ-54" value="" style="endArrow=none;html=1;rounded=0;exitX=0.992;exitY=0.287;exitDx=0;exitDy=0;exitPerimeter=0;fillColor=#1ba1e2;strokeColor=#006EAF;noJump=0;comic=0;jumpStyle=arc;flowAnimation=0;" edge="1" parent="1" source="pi9QV9mLhc3Nf6GCbJB_-5">
          <mxGeometry width="50" height="50" relative="1" as="geometry">
            <mxPoint x="1350" y="544" as="sourcePoint" />
            <mxPoint x="1490" y="620" as="targetPoint" />
            <Array as="points">
              <mxPoint x="1410" y="210" />
              <mxPoint x="1420" y="630" />
              <mxPoint x="1490" y="630" />
            </Array>
          </mxGeometry>
        </mxCell>
        <mxCell id="cGMNiagJuGMT5GAcroAZ-55" value="ESP8266" style="rounded=0;whiteSpace=wrap;html=1;" vertex="1" parent="1">
          <mxGeometry x="1100" y="260" width="120" height="60" as="geometry" />
        </mxCell>
        <mxCell id="cGMNiagJuGMT5GAcroAZ-56" value="CP2102" style="rounded=0;whiteSpace=wrap;html=1;" vertex="1" parent="1">
          <mxGeometry x="1100" y="540" width="120" height="60" as="geometry" />
        </mxCell>
        <mxCell id="cGMNiagJuGMT5GAcroAZ-57" value="USB Type-C" style="rounded=0;whiteSpace=wrap;html=1;" vertex="1" parent="1">
          <mxGeometry x="1100" y="620" width="120" height="60" as="geometry" />
        </mxCell>
        <mxCell id="cGMNiagJuGMT5GAcroAZ-59" value="" style="endArrow=none;dashed=1;html=1;dashPattern=1 3;strokeWidth=2;rounded=0;entryX=0.5;entryY=1;entryDx=0;entryDy=0;" edge="1" parent="1" target="cGMNiagJuGMT5GAcroAZ-57">
          <mxGeometry width="50" height="50" relative="1" as="geometry">
            <mxPoint x="1160" y="760" as="sourcePoint" />
            <mxPoint x="1179" y="740" as="targetPoint" />
          </mxGeometry>
        </mxCell>
        <mxCell id="cGMNiagJuGMT5GAcroAZ-60" value="" style="endArrow=none;dashed=1;html=1;dashPattern=1 3;strokeWidth=2;rounded=0;entryX=0.5;entryY=1;entryDx=0;entryDy=0;" edge="1" parent="1">
          <mxGeometry width="50" height="50" relative="1" as="geometry">
            <mxPoint x="1180" y="760" as="sourcePoint" />
            <mxPoint x="1180" y="680" as="targetPoint" />
          </mxGeometry>
        </mxCell>
        <mxCell id="cGMNiagJuGMT5GAcroAZ-61" value="" style="endArrow=none;dashed=1;html=1;dashPattern=1 3;strokeWidth=2;rounded=0;entryX=0.5;entryY=1;entryDx=0;entryDy=0;" edge="1" parent="1">
          <mxGeometry width="50" height="50" relative="1" as="geometry">
            <mxPoint x="1140" y="760" as="sourcePoint" />
            <mxPoint x="1140" y="680" as="targetPoint" />
          </mxGeometry>
        </mxCell>
        <mxCell id="cGMNiagJuGMT5GAcroAZ-62" value="USB bus to PC" style="text;html=1;align=center;verticalAlign=middle;whiteSpace=wrap;rounded=0;" vertex="1" parent="1">
          <mxGeometry x="1115" y="760" width="90" height="30" as="geometry" />
        </mxCell>
        <mxCell id="cGMNiagJuGMT5GAcroAZ-63" value="" style="group" vertex="1" connectable="0" parent="1">
          <mxGeometry x="560" y="160" width="150" height="160" as="geometry" />
        </mxCell>
        <mxCell id="cGMNiagJuGMT5GAcroAZ-64" value="3pin analog photoresistor" style="rounded=0;whiteSpace=wrap;html=1;" vertex="1" parent="cGMNiagJuGMT5GAcroAZ-63">
          <mxGeometry x="10" width="130" height="130" as="geometry" />
        </mxCell>
        <mxCell id="cGMNiagJuGMT5GAcroAZ-65" value="S" style="text;html=1;align=center;verticalAlign=middle;whiteSpace=wrap;rounded=0;" vertex="1" parent="cGMNiagJuGMT5GAcroAZ-63">
          <mxGeometry y="100" width="60" height="30" as="geometry" />
        </mxCell>
        <mxCell id="cGMNiagJuGMT5GAcroAZ-67" value="GND" style="text;html=1;align=center;verticalAlign=middle;whiteSpace=wrap;rounded=0;" vertex="1" parent="cGMNiagJuGMT5GAcroAZ-63">
          <mxGeometry x="60" y="100" width="60" height="30" as="geometry" />
        </mxCell>
        <mxCell id="cGMNiagJuGMT5GAcroAZ-68" value="VIN" style="text;html=1;align=center;verticalAlign=middle;whiteSpace=wrap;rounded=0;" vertex="1" parent="cGMNiagJuGMT5GAcroAZ-63">
          <mxGeometry x="90" y="100" width="60" height="30" as="geometry" />
        </mxCell>
        <mxCell id="cGMNiagJuGMT5GAcroAZ-69" value="" style="endArrow=none;html=1;rounded=0;entryX=0;entryY=1;entryDx=0;entryDy=0;strokeWidth=3;fillColor=#008a00;strokeColor=#005700;" edge="1" parent="cGMNiagJuGMT5GAcroAZ-63">
          <mxGeometry width="50" height="50" relative="1" as="geometry">
            <mxPoint x="30" y="160" as="sourcePoint" />
            <mxPoint x="30" y="130" as="targetPoint" />
          </mxGeometry>
        </mxCell>
        <mxCell id="cGMNiagJuGMT5GAcroAZ-71" value="" style="endArrow=none;html=1;rounded=0;entryX=0;entryY=1;entryDx=0;entryDy=0;strokeWidth=3;fillColor=#008a00;strokeColor=#005700;" edge="1" parent="cGMNiagJuGMT5GAcroAZ-63">
          <mxGeometry width="50" height="50" relative="1" as="geometry">
            <mxPoint x="89.28999999999996" y="160" as="sourcePoint" />
            <mxPoint x="89.28999999999996" y="130" as="targetPoint" />
          </mxGeometry>
        </mxCell>
        <mxCell id="cGMNiagJuGMT5GAcroAZ-72" value="" style="endArrow=none;html=1;rounded=0;entryX=0;entryY=1;entryDx=0;entryDy=0;strokeWidth=3;fillColor=#008a00;strokeColor=#005700;" edge="1" parent="cGMNiagJuGMT5GAcroAZ-63">
          <mxGeometry width="50" height="50" relative="1" as="geometry">
            <mxPoint x="119.6400000000001" y="160" as="sourcePoint" />
            <mxPoint x="119.6400000000001" y="130" as="targetPoint" />
          </mxGeometry>
        </mxCell>
        <mxCell id="cGMNiagJuGMT5GAcroAZ-73" value="" style="endArrow=none;html=1;rounded=0;fillColor=#1ba1e2;strokeColor=#006EAF;entryX=-0.001;entryY=0.107;entryDx=0;entryDy=0;entryPerimeter=0;jumpStyle=arc;" edge="1" parent="1" target="pi9QV9mLhc3Nf6GCbJB_-5">
          <mxGeometry width="50" height="50" relative="1" as="geometry">
            <mxPoint x="590" y="320" as="sourcePoint" />
            <mxPoint x="710" y="430" as="targetPoint" />
            <Array as="points">
              <mxPoint x="590" y="370" />
              <mxPoint x="880" y="370" />
              <mxPoint x="880" y="97" />
            </Array>
          </mxGeometry>
        </mxCell>
        <mxCell id="cGMNiagJuGMT5GAcroAZ-74" value="" style="endArrow=none;html=1;rounded=0;fillColor=#647687;strokeColor=#314354;entryX=0.006;entryY=0.646;entryDx=0;entryDy=0;entryPerimeter=0;jumpStyle=arc;" edge="1" parent="1" target="pi9QV9mLhc3Nf6GCbJB_-5">
          <mxGeometry width="50" height="50" relative="1" as="geometry">
            <mxPoint x="650" y="320" as="sourcePoint" />
            <mxPoint x="833" y="250" as="targetPoint" />
            <Array as="points">
              <mxPoint x="650" y="350" />
              <mxPoint x="910" y="350" />
              <mxPoint x="910" y="436" />
            </Array>
          </mxGeometry>
        </mxCell>
        <mxCell id="cGMNiagJuGMT5GAcroAZ-75" value="" style="endArrow=none;html=1;rounded=0;exitX=1.004;exitY=0.404;exitDx=0;exitDy=0;exitPerimeter=0;fillColor=#a20025;strokeColor=#6F0000;entryX=0.004;entryY=0.7;entryDx=0;entryDy=0;entryPerimeter=0;jumpStyle=arc;" edge="1" parent="1" target="pi9QV9mLhc3Nf6GCbJB_-5">
          <mxGeometry width="50" height="50" relative="1" as="geometry">
            <mxPoint x="680" y="314" as="sourcePoint" />
            <mxPoint x="901" y="250" as="targetPoint" />
            <Array as="points">
              <mxPoint x="680" y="470" />
            </Array>
          </mxGeometry>
        </mxCell>
      </root>
    </mxGraphModel>
  </diagram>
</mxfile>
